<?xml version="1.0" standalone="no"?>
<!DOCTYPE svg PUBLIC "-//W3C//DTD SVG 1.1//EN" "http://www.w3.org/Graphics/SVG/1.1/DTD/svg11.dtd" >
<svg xmlns="http://www.w3.org/2000/svg">
    <defs>
        <font id="Inter-ExtraBold">
            <font-face font-family="Inter-ExtraBold"
                       units-per-em="2816"
                       ascent="2728"
                       descent="-680"
                       bbox="-2526 -912 7274 3158"
                    />
            <missing-glyph horiz-adv-x="0" />
            
            <glyph glyph-name="!" unicode="&#x21;" horiz-adv-x="738" d=" M730,2048 L684,627 L273,627 L227,2048 M478,-29 Q371,-29 294.5,47 Q218,123 218,231 Q218,337 294.5,412.5 Q371,488 478,488 Q581,488 659.5,412.5 Q738,337 738,231 Q738,159 701.5,100 Q665,41 606.5,6 Q548,-29 478,-29"/> 
            <glyph glyph-name="&quot;" unicode="&#x22;" horiz-adv-x="970" d=" M452,2048 L452,1245 L120,1245 L120,2048 M970,2048 L970,1245 L638,1245 L638,2048"/> 
            <glyph glyph-name="#" unicode="&#x23;" horiz-adv-x="1824" d=" M935,0 L1271,2048 L1631,2048 L1295,0 M22,488 L83,848 L1707,848 L1646,488 M215,0 L551,2048 L911,2048 L575,0 M139,1200 L200,1560 L1824,1560 L1763,1200"/> 
            <glyph glyph-name="$" unicode="&#x24;" horiz-adv-x="1764" d=" M867,-256 L867,2304 L1031,2304 L1031,-256 M1262,1434 Q1252,1544 1173.5,1605.5 Q1095,1667 950,1667 Q854,1667 790,1642 Q726,1617 694,1573.5 Q662,1530 661,1474 Q659,1428 679.5,1393 Q700,1358 739.5,1331.5 Q779,1305 835,1285 Q891,1265 961,1250 L1137,1210 Q1289,1177 1405.5,1122 Q1522,1067 1601.5,991 Q1681,915 1722,816 Q1763,717 1764,594 Q1763,400 1666,261 Q1569,122 1387.5,48 Q1206,-26 950,-26 Q693,-26 502,51 Q311,128 205,285 Q99,442 96,682 L570,682 Q576,583 623,517 Q670,451 752.5,417 Q835,383 944,383 Q1044,383 1114.5,410 Q1185,437 1223,485 Q1261,533 1262,595 Q1261,653 1226,694.5 Q1191,736 1118.5,766.5 Q1046,797 934,823 L720,873 Q454,934 301,1070.5 Q148,1207 149,1440 Q148,1630 251,1773 Q354,1916 536,1996 Q718,2076 951,2076 Q1189,2076 1364.5,1995.5 Q1540,1915 1637,1770 Q1734,1625 1736,1434"/> 
            <glyph glyph-name="%" unicode="&#x25;" horiz-adv-x="2234" d=" M1298,384 L1298,492 Q1298,618 1352.5,725 Q1407,832 1511,897 Q1615,962 1765,962 Q1918,962 2022.5,897.5 Q2127,833 2180.5,726.5 Q2234,620 2234,492 L2234,384 Q2234,258 2180,151 Q2126,44 2021,-21 Q1916,-86 1765,-86 Q1613,-86 1509,-21 Q1405,44 1351.5,151 Q1298,258 1298,384 M1617,492 L1617,384 Q1617,320 1648.5,261 Q1680,202 1765,202 Q1852,202 1882,259.5 Q1912,317 1912,384 L1912,492 Q1912,559 1883.5,618.5 Q1855,678 1765,678 Q1681,678 1649,618.5 Q1617,559 1617,492 M236,1556 L236,1664 Q236,1792 291.5,1898.5 Q347,2005 451,2069.5 Q555,2134 703,2134 Q856,2134 960.5,2069.5 Q1065,2005 1119,1898.5 Q1173,1792 1173,1664 L1173,1556 Q1173,1428 1118.5,1322 Q1064,1216 959,1153 Q854,1090 703,1090 Q552,1090 447.5,1154 Q343,1218 289.5,1324 Q236,1430 236,1556 M558,1664 L558,1556 Q558,1489 589.5,1431.5 Q621,1374 703,1374 Q791,1374 820.5,1431.5 Q850,1489 850,1556 L850,1664 Q850,1731 822,1790.5 Q794,1850 703,1850 Q619,1850 588.5,1789 Q558,1728 558,1664 M387,0 L1795,2048 L2068,2048 L660,0"/> 
            <glyph glyph-name="&amp;" unicode="&#x26;" horiz-adv-x="1935" d=" M799,-31 Q583,-31 426.5,46 Q270,123 186,253.5 Q102,384 102,544 Q102,662 148.5,752.5 Q195,843 277.5,919.5 Q360,996 470,1070 L900,1345 Q973,1391 1003.5,1442 Q1034,1493 1034,1544 Q1034,1599 991.5,1644 Q949,1689 866,1688 Q813,1688 774,1666 Q735,1644 713.5,1607 Q692,1570 692,1523 Q692,1462 727,1398 Q762,1334 821.5,1262 Q881,1190 954,1103 L1935,0 L1437,0 L616,891 Q546,969 469,1066 Q392,1163 339,1278.5 Q286,1394 286,1530 Q286,1683 358,1807 Q430,1931 560.5,2004.5 Q691,2078 865,2078 Q1033,2078 1155,2009 Q1277,1940 1343,1826 Q1409,1712 1409,1576 Q1409,1432 1338,1311.5 Q1267,1191 1137,1098 L716,797 Q649,749 611,694.5 Q573,640 573,576 Q573,510 604.5,461 Q636,412 694,384 Q752,356 830,356 Q934,356 1038,405.5 Q1142,455 1228,545.5 Q1314,636 1366,760.5 Q1418,885 1418,1034 L1812,1034 Q1812,850 1773,692.5 Q1734,535 1656.5,410.5 Q1579,286 1465,204 Q1429,184 1395,166 Q1361,148 1325,128 Q1207,43 1069.5,6 Q932,-31 799,-31"/> 
            <glyph glyph-name="'" unicode="&#x27;" horiz-adv-x="452" d=" M452,2048 L452,1245 L120,1245 L120,2048"/> 
            <glyph glyph-name="(" unicode="&#x28;" horiz-adv-x="1138" d=" M252,806 Q252,1177 352,1488.5 Q452,1800 664,2067 L1138,2067 Q1058,1968 989,1826 Q920,1684 869.5,1515 Q819,1346 790.5,1165 Q762,984 762,806 Q762,570 811,329.5 Q860,89 945,-116.5 Q1030,-322 1138,-454 L664,-454 Q452,-187 352,124.5 Q252,436 252,806"/> 
            <glyph glyph-name=")" unicode="&#x29;" horiz-adv-x="944" d=" M944,806 Q944,436 844,124.5 Q744,-187 532,-454 L58,-454 Q139,-355 207.5,-213 Q276,-71 326.5,98 Q377,267 405.5,448 Q434,629 434,806 Q434,1043 385,1283.5 Q336,1524 251,1729.5 Q166,1935 58,2067 L532,2067 Q744,1800 844,1488.5 Q944,1177 944,806"/> 
            <glyph glyph-name="*" unicode="&#x2A;" horiz-adv-x="1399" d=" M678,896 L707,1266 L399,1055 L252,1313 L586,1472 L252,1631 L399,1889 L707,1678 L678,2048 L973,2048 L944,1678 L1252,1889 L1399,1631 L1065,1472 L1399,1313 L1252,1055 L944,1266 L973,896"/> 
            <glyph glyph-name="+" unicode="&#x2B;" horiz-adv-x="1690" d=" M765,102 L765,1550 L1168,1550 L1168,102 M242,624 L242,1027 L1690,1027 L1690,624"/> 
            <glyph glyph-name="," unicode="&#x2C;" horiz-adv-x="654" d=" M654,280 L645,169 Q633,31 596.5,-100.5 Q560,-232 519,-337 Q478,-442 454,-500 L146,-500 Q162,-442 189.5,-337 Q217,-232 241,-100 Q265,32 268,168 L270,280"/> 
            <glyph glyph-name="-" unicode="&#x2D;" horiz-adv-x="1138" d=" M1138,1017 L1138,640 L190,640 L190,1017"/> 
            <glyph glyph-name="." unicode="&#x2E;" horiz-adv-x="690" d=" M430,-29 Q322,-29 245.5,47 Q169,123 170,231 Q169,337 245.5,412.5 Q322,488 430,488 Q532,488 610.5,412.5 Q689,337 690,231 Q689,159 652.5,100 Q616,41 557.5,6 Q499,-29 430,-29"/> 
            <glyph glyph-name="/" unicode="&#x2F;" horiz-adv-x="1103" d=" M1103,2144 L443,-308 L26,-308 L686,2144"/> 
            <glyph glyph-name="0" unicode="&#x30;" horiz-adv-x="1865" d=" M998,-50 Q730,-50 536,77.5 Q342,205 237,444.5 Q132,684 133,1021 Q134,1358 238.5,1593.5 Q343,1829 536.5,1952.5 Q730,2076 998,2076 Q1266,2076 1460.5,1952.5 Q1655,1829 1760,1593 Q1865,1357 1864,1021 Q1864,683 1759,443 Q1654,203 1460.5,76.5 Q1267,-50 998,-50 M998,355 Q1158,355 1257,518.5 Q1356,682 1355,1021 Q1355,1243 1310,1387.5 Q1265,1532 1185,1603 Q1105,1674 998,1674 Q839,1674 741,1513.5 Q643,1353 642,1021 Q641,796 685.5,648 Q730,500 811,427.5 Q892,355 998,355"/> 
            <glyph glyph-name="1" unicode="&#x31;" horiz-adv-x="1098" d=" M1098,2048 L1098,0 L604,0 L604,1586 L592,1586 L134,1306 L134,1734 L639,2048"/> 
            <glyph glyph-name="2" unicode="&#x32;" horiz-adv-x="1667" d=" M151,0 L151,356 L898,1010 Q982,1086 1041,1149.5 Q1100,1213 1131,1277.5 Q1162,1342 1162,1418 Q1162,1503 1125,1563.5 Q1088,1624 1023,1657 Q958,1690 874,1690 Q789,1690 725,1655.5 Q661,1621 625.5,1556 Q590,1491 590,1398 L121,1398 Q121,1607 215,1759 Q309,1911 479.5,1993.5 Q650,2076 876,2076 Q1109,2076 1281,1998 Q1453,1920 1547.5,1780.5 Q1642,1641 1642,1457 Q1642,1340 1595,1225 Q1548,1110 1426.5,971 Q1305,832 1082,638 L837,412 L837,399 L1667,399 L1667,0"/> 
            <glyph glyph-name="3" unicode="&#x33;" horiz-adv-x="1751" d=" M930,-28 Q696,-28 515.5,52.5 Q335,133 231,275 Q127,417 125,602 L623,602 Q626,535 666,483.5 Q706,432 775,403 Q844,374 932,374 Q1020,374 1087.5,405.5 Q1155,437 1193,492.5 Q1231,548 1230,620 Q1231,692 1189,748 Q1147,804 1070.5,835 Q994,866 890,866 L691,866 L691,1218 L890,1218 Q981,1218 1050.5,1248 Q1120,1278 1159,1332.5 Q1198,1387 1197,1458 Q1198,1527 1164.5,1579.5 Q1131,1632 1071.5,1661 Q1012,1690 934,1690 Q852,1690 785.5,1661 Q719,1632 680,1579 Q641,1526 639,1456 L166,1456 Q168,1639 268,1778.5 Q368,1918 540.5,1997 Q713,2076 934,2076 Q1154,2076 1321,1999 Q1488,1922 1581,1789.5 Q1674,1657 1674,1490 Q1675,1317 1561.5,1205 Q1448,1093 1270,1067 L1270,1051 Q1508,1023 1629.5,897 Q1751,771 1750,582 Q1750,404 1645.5,266.5 Q1541,129 1355.5,50.5 Q1170,-28 930,-28"/> 
            <glyph glyph-name="4" unicode="&#x34;" horiz-adv-x="1833" d=" M126,340 L126,726 L965,2048 L1308,2048 L1308,1524 L1109,1524 L618,746 L618,730 L1833,730 L1833,340 M1115,0 L1115,458 L1125,627 L1125,2048 L1588,2048 L1588,0"/> 
            <glyph glyph-name="5" unicode="&#x35;" horiz-adv-x="1730" d=" M935,-28 Q711,-28 537,53 Q363,134 262.5,276 Q162,418 158,602 L638,602 Q644,489 730,420.5 Q816,352 935,352 Q1028,352 1100,393 Q1172,434 1213,508.5 Q1254,583 1253,680 Q1254,779 1212.5,853 Q1171,927 1098.5,968.5 Q1026,1010 932,1010 Q843,1011 763.5,971 Q684,931 643,862 L206,944 L295,2048 L1609,2048 L1609,1649 L702,1649 L655,1166 L667,1166 Q718,1251 831.5,1306.5 Q945,1362 1090,1362 Q1274,1362 1418.5,1276.5 Q1563,1191 1646.5,1040 Q1730,889 1730,694 Q1730,483 1630.5,320 Q1531,157 1352.5,64.5 Q1174,-28 935,-28"/> 
            <glyph glyph-name="6" unicode="&#x36;" horiz-adv-x="1766" d=" M972,-28 Q804,-28 650,26.5 Q496,81 376,200.5 Q256,320 187,514.5 Q118,709 119,989 Q120,1242 181,1443.5 Q242,1645 355.5,1786 Q469,1927 627.5,2001.5 Q786,2076 982,2076 Q1197,2076 1361.5,1992.5 Q1526,1909 1625,1768.5 Q1724,1628 1742,1456 L1255,1456 Q1233,1553 1158.5,1603.5 Q1084,1654 982,1654 Q794,1654 701.5,1491 Q609,1328 607,1055 L620,1055 Q662,1147 741,1213 Q820,1279 922.5,1314.5 Q1025,1350 1140,1350 Q1324,1350 1465,1265 Q1606,1180 1686,1032.5 Q1766,885 1765,695 Q1766,481 1665,317.5 Q1564,154 1385.5,63 Q1207,-28 972,-28 M969,352 Q1060,352 1132,395 Q1204,438 1245,512 Q1286,586 1285,679 Q1286,773 1245.5,846 Q1205,919 1133.5,962 Q1062,1005 970,1005 Q903,1005 845,980 Q787,955 744.5,910.5 Q702,866 678,806.5 Q654,747 653,678 Q654,587 695,513 Q736,439 807,395.5 Q878,352 969,352"/> 
            <glyph glyph-name="7" unicode="&#x37;" horiz-adv-x="1576" d=" M238,0 L1064,1636 L1064,1649 L98,1649 L98,2048 L1576,2048 L1576,1646 L747,0"/> 
            <glyph glyph-name="8" unicode="&#x38;" horiz-adv-x="1778" d=" M951,-28 Q712,-28 524.5,48.5 Q337,125 230.5,256.5 Q124,388 124,554 Q124,681 185,787 Q246,893 350.5,963.5 Q455,1034 584,1054 L584,1070 Q415,1101 307.5,1227 Q200,1353 200,1522 Q200,1682 297.5,1807 Q395,1932 564.5,2004 Q734,2076 951,2076 Q1168,2076 1337.5,2004 Q1507,1932 1604.5,1807 Q1702,1682 1702,1522 Q1702,1352 1593.5,1226.5 Q1485,1101 1318,1070 L1318,1054 Q1446,1034 1550.5,963.5 Q1655,893 1716.5,787 Q1778,681 1778,554 Q1778,388 1671,256.5 Q1564,125 1377.5,48.5 Q1191,-28 951,-28 M951,323 Q1042,323 1111,357.5 Q1180,392 1219.5,454 Q1259,516 1259,594 Q1259,674 1219,736 Q1179,798 1109.5,833.5 Q1040,869 951,869 Q863,869 793,833.5 Q723,798 683,736 Q643,674 643,594 Q643,516 682.5,454.5 Q722,393 791.5,358 Q861,323 951,323 M951,1218 Q1029,1218 1089.5,1250 Q1150,1282 1184.5,1339 Q1219,1396 1219,1468 Q1219,1540 1184.5,1595 Q1150,1650 1090,1681.5 Q1030,1713 951,1713 Q873,1713 812,1681.5 Q751,1650 717,1595 Q683,1540 683,1468 Q683,1396 717.5,1339.5 Q752,1283 813,1250.5 Q874,1218 951,1218"/> 
            <glyph glyph-name="9" unicode="&#x39;" horiz-adv-x="1775" d=" M922,2076 Q1090,2076 1243,2021.5 Q1396,1967 1516,1848.5 Q1636,1730 1705,1537 Q1774,1344 1774,1066 Q1775,810 1714,607.5 Q1653,405 1539.5,263 Q1426,121 1267,46.5 Q1108,-28 912,-28 Q696,-28 531.5,55.5 Q367,139 268.5,281 Q170,423 151,599 L638,599 Q661,497 735,445.5 Q809,394 912,394 Q1100,394 1193,557 Q1286,720 1286,1000 L1274,1000 Q1231,908 1152.5,842 Q1074,776 971,741 Q868,706 754,706 Q570,706 429.5,790 Q289,874 209.5,1021 Q130,1168 129,1357 Q128,1569 228,1731.5 Q328,1894 507,1985.5 Q686,2077 922,2076 M925,1696 Q833,1696 761.5,1653 Q690,1610 649,1537 Q608,1464 609,1373 Q610,1282 650.5,1209 Q691,1136 761.5,1093 Q832,1050 923,1050 Q991,1050 1049,1075 Q1107,1100 1150,1144.5 Q1193,1189 1217.5,1248 Q1242,1307 1241,1374 Q1240,1463 1199,1536 Q1158,1609 1086.5,1652.5 Q1015,1696 925,1696"/> 
            <glyph glyph-name=":" unicode="&#x3A;" horiz-adv-x="690" d=" M430,-29 Q322,-29 245.5,47 Q169,123 170,231 Q169,337 245.5,412.5 Q322,488 430,488 Q532,488 610.5,412.5 Q689,337 690,231 Q689,159 652.5,100 Q616,41 557.5,6 Q499,-29 430,-29 M430,1025 Q322,1025 245.5,1100.5 Q169,1176 170,1285 Q169,1391 245.5,1466.5 Q322,1542 430,1542 Q532,1542 610.5,1466.5 Q689,1391 690,1285 Q689,1213 652.5,1154 Q616,1095 557.5,1060 Q499,1025 430,1025"/> 
            <glyph glyph-name=";" unicode="&#x3B;" horiz-adv-x="726" d=" M654,280 L645,169 Q633,31 596.5,-100.5 Q560,-232 519,-337 Q478,-442 454,-500 L146,-500 Q162,-442 189.5,-337 Q217,-232 241,-100 Q265,32 268,168 L270,280 M466,1025 Q358,1025 281.5,1100.5 Q205,1176 206,1285 Q205,1391 281.5,1466.5 Q358,1542 466,1542 Q568,1542 646.5,1466.5 Q725,1391 726,1285 Q725,1213 688.5,1154 Q652,1095 593.5,1060 Q535,1025 466,1025"/> 
            <glyph glyph-name="&lt;" unicode="&#x3C;" horiz-adv-x="1690" d=" M242,618 L242,1034 L1690,1642 L1690,1187 L734,830 L749,852 L749,799 L734,822 L1690,464 L1690,10"/> 
            <glyph glyph-name="=" unicode="&#x3D;" horiz-adv-x="1682" d=" M251,969 L251,1370 L1682,1370 L1682,969 M251,281 L251,682 L1682,682 L1682,281"/> 
            <glyph glyph-name="&gt;" unicode="&#x3E;" horiz-adv-x="1690" d=" M1690,618 L242,10 L242,464 L1198,822 L1184,799 L1184,852 L1198,830 L242,1187 L242,1642 L1690,1034"/> 
            <glyph glyph-name="?" unicode="&#x3F;" horiz-adv-x="1509" d=" M540,627 L540,668 Q540,838 568.5,939 Q597,1040 652,1101.5 Q707,1163 786,1214 Q849,1254 898.5,1295.5 Q948,1337 977,1385 Q1006,1433 1006,1494 Q1006,1553 978,1598 Q950,1643 901.5,1667.5 Q853,1692 794,1692 Q735,1692 683.5,1665 Q632,1638 599.5,1588.5 Q567,1539 566,1469 L106,1469 Q109,1679 203.5,1813 Q298,1947 454,2011.5 Q610,2076 798,2076 Q1004,2076 1164.5,2012 Q1325,1948 1417,1823 Q1509,1698 1509,1517 Q1509,1398 1469,1307 Q1429,1216 1357.5,1146.5 Q1286,1077 1190,1020 Q1115,976 1065.5,928 Q1016,880 991,818.5 Q966,757 966,668 L966,627 M761,-29 Q653,-29 576.5,47 Q500,123 501,231 Q500,337 576.5,412.5 Q653,488 761,488 Q864,488 942,412.5 Q1020,337 1021,231 Q1020,159 983.5,100 Q947,41 888.5,6 Q830,-29 761,-29"/> 
            <glyph glyph-name="@" unicode="&#x40;" horiz-adv-x="2885" d=" M1550,-607 Q1226,-607 972,-519.5 Q718,-432 542,-263.5 Q366,-95 274,146 Q182,387 181,695 Q182,1000 274.5,1250.5 Q367,1501 545.5,1682.5 Q724,1864 983.5,1963 Q1243,2062 1576,2062 Q1880,2062 2122,1976 Q2364,1890 2534.5,1728 Q2705,1566 2795,1337 Q2885,1108 2884,820 Q2885,623 2846,467 Q2807,311 2727.5,200 Q2648,89 2527.5,25.5 Q2407,-38 2244,-50 Q2112,-61 2044,-34 Q1976,-7 1948,44.5 Q1920,96 1909,160 L1897,160 Q1874,99 1796.5,51.5 Q1719,4 1612,-20.5 Q1505,-45 1392,-38 Q1278,-30 1170,16.5 Q1062,63 975.5,153.5 Q889,244 838.5,382 Q788,520 787,707 Q788,894 839.5,1028.5 Q891,1163 974.5,1252.5 Q1058,1342 1158,1391.5 Q1258,1441 1354,1456 Q1470,1476 1578,1459 Q1686,1442 1760.5,1404 Q1835,1366 1853,1322 L1868,1322 L1868,1434 L2214,1434 L2214,434 Q2216,369 2240,340 Q2264,311 2302,311 Q2360,311 2404.5,368.5 Q2449,426 2473.5,545.5 Q2498,665 2497,850 Q2498,1056 2443.5,1202.5 Q2389,1349 2296,1445 Q2203,1541 2084.5,1595.5 Q1966,1650 1834,1672 Q1702,1694 1574,1694 Q1319,1694 1133,1617.5 Q947,1541 825,1406 Q703,1271 643.5,1093.5 Q584,916 583,713 Q584,482 649,304.5 Q714,127 840,7 Q966,-113 1151.5,-174.5 Q1337,-236 1577,-236 Q1694,-236 1805,-221 Q1916,-206 2007.5,-183 Q2099,-160 2158,-135 L2272,-460 Q2209,-499 2098.5,-532.5 Q1988,-566 1846.5,-586.5 Q1705,-607 1550,-607 M1526,333 Q1645,333 1714,377.5 Q1783,422 1812,509 Q1841,596 1838,722 Q1838,826 1812,906 Q1786,986 1718,1032 Q1650,1078 1522,1078 Q1412,1078 1335.5,1035 Q1259,992 1218.5,912 Q1178,832 1178,719 Q1178,620 1211,531.5 Q1244,443 1320,388 Q1396,333 1526,333"/> 
            <glyph glyph-name="A" unicode="&#x41;" horiz-adv-x="2107" d=" M598,0 L66,0 L757,2048 L1416,2048 L2107,0 L1575,0 L1094,1532 L1078,1532 M527,806 L1639,806 L1639,430 L527,430"/> 
            <glyph glyph-name="B" unicode="&#x42;" horiz-adv-x="1787" d=" M155,0 L155,2048 L1009,2048 Q1239,2048 1394.5,1983 Q1550,1918 1628.5,1801 Q1707,1684 1707,1530 Q1707,1413 1658,1321.5 Q1609,1230 1523,1170 Q1437,1110 1324,1086 L1324,1066 Q1448,1060 1553.5,999 Q1659,938 1723,829.5 Q1787,721 1787,573 Q1787,408 1703,278.5 Q1619,149 1460,74.5 Q1301,0 1074,0 M650,399 L956,399 Q1117,399 1193.5,460 Q1270,521 1270,630 Q1270,709 1233,766.5 Q1196,824 1128,855.5 Q1060,887 965,887 L650,887 M650,1206 L924,1206 Q1005,1206 1068,1233 Q1131,1260 1166.5,1311 Q1202,1362 1202,1434 Q1202,1537 1129,1596 Q1056,1655 932,1655 L650,1655"/> 
            <glyph glyph-name="C" unicode="&#x43;" horiz-adv-x="2014" d=" M2014,1306 L1514,1306 Q1504,1383 1473,1445 Q1442,1507 1391,1551 Q1340,1595 1270.5,1618.5 Q1201,1642 1117,1642 Q968,1642 860.5,1569 Q753,1496 695.5,1358 Q638,1220 638,1024 Q638,820 696.5,682.5 Q755,545 861.5,475.5 Q968,406 1114,406 Q1196,406 1263.5,427 Q1331,448 1382.5,488.5 Q1434,529 1467.5,587.5 Q1501,646 1514,720 L2014,717 Q2001,581 1935.5,449 Q1870,317 1756,208.5 Q1642,100 1478.5,36 Q1315,-28 1104,-28 Q826,-28 606.5,94.5 Q387,217 260,452 Q133,687 133,1024 Q133,1362 262,1597 Q391,1832 611,1954 Q831,2076 1104,2076 Q1290,2076 1448,2024.5 Q1606,1973 1726,1874.5 Q1846,1776 1921,1633 Q1996,1490 2014,1306"/> 
            <glyph glyph-name="D" unicode="&#x44;" horiz-adv-x="1923" d=" M912,0 L155,0 L155,2048 L911,2048 Q1224,2048 1450.5,1925.5 Q1677,1803 1800,1573.5 Q1923,1344 1923,1025 Q1923,705 1800.5,475 Q1678,245 1451,122.5 Q1224,0 912,0 M650,422 L893,422 Q1065,422 1184.5,480.5 Q1304,539 1365.5,671.5 Q1427,804 1427,1025 Q1427,1246 1365,1377.5 Q1303,1509 1182.5,1567.5 Q1062,1626 886,1626 L650,1626"/> 
            <glyph glyph-name="E" unicode="&#x45;" horiz-adv-x="1583" d=" M155,0 L155,2048 L1583,2048 L1583,1646 L650,1646 L650,1226 L1510,1226 L1510,823 L650,823 L650,402 L1583,402 L1583,0"/> 
            <glyph glyph-name="F" unicode="&#x46;" horiz-adv-x="1553" d=" M155,0 L155,2048 L1553,2048 L1553,1646 L650,1646 L650,1226 L1464,1226 L1464,823 L650,823 L650,0"/> 
            <glyph glyph-name="G" unicode="&#x47;" horiz-adv-x="2022" d=" M1499,1379 Q1482,1442 1449,1490.5 Q1416,1539 1368,1573 Q1320,1607 1258,1624.5 Q1196,1642 1122,1642 Q973,1642 864.5,1570 Q756,1498 697,1360.5 Q638,1223 638,1027 Q638,830 695,691 Q752,552 860,479 Q968,406 1122,406 Q1258,406 1352.5,450.5 Q1447,495 1496,577 Q1545,659 1545,770 L1637,759 L1139,759 L1139,1120 L2022,1120 L2022,849 Q2022,574 1905.5,378 Q1789,182 1585.5,77 Q1382,-28 1118,-28 Q825,-28 603,99 Q381,226 257,461.5 Q133,697 133,1021 Q133,1273 208,1468.5 Q283,1664 417.5,1800 Q552,1936 729.5,2006 Q907,2076 1112,2076 Q1290,2076 1443.5,2025 Q1597,1974 1715.5,1881 Q1834,1788 1908,1660 Q1982,1532 2000,1379"/> 
            <glyph glyph-name="H" unicode="&#x48;" horiz-adv-x="1951" d=" M155,0 L155,2048 L650,2048 L650,1226 L1457,1226 L1457,2048 L1951,2048 L1951,0 L1457,0 L1457,823 L650,823 L650,0"/> 
            <glyph glyph-name="I" unicode="&#x49;" horiz-adv-x="650" d=" M650,2048 L650,0 L155,0 L155,2048"/> 
            <glyph glyph-name="J" unicode="&#x4A;" horiz-adv-x="1475" d=" M987,2048 L1475,2048 L1475,632 Q1474,433 1380,284.5 Q1286,136 1120.5,54 Q955,-28 738,-28 Q546,-28 389.5,39 Q233,106 140.5,247 Q48,388 49,608 L542,608 Q545,529 572.5,473.5 Q600,418 649,390 Q698,362 766,362 Q837,362 886,392.5 Q935,423 960.5,483 Q986,543 987,632"/> 
            <glyph glyph-name="K" unicode="&#x4B;" horiz-adv-x="1950" d=" M155,0 L155,2048 L650,2048 L650,1182 L677,1182 L1354,2048 L1937,2048 L1211,1134 L1950,0 L1358,0 L848,805 L650,555 L650,0"/> 
            <glyph glyph-name="L" unicode="&#x4C;" horiz-adv-x="1502" d=" M155,0 L155,2048 L650,2048 L650,402 L1502,402 L1502,0"/> 
            <glyph glyph-name="M" unicode="&#x4D;" horiz-adv-x="2445" d=" M155,2048 L768,2048 L1288,780 L1312,780 L1832,2048 L2445,2048 L2445,0 L1963,0 L1963,1258 L1946,1258 L1454,13 L1146,13 L654,1265 L637,1265 L637,0 L155,0"/> 
            <glyph glyph-name="N" unicode="&#x4E;" horiz-adv-x="1898" d=" M1898,2048 L1898,0 L1478,0 L663,1182 L650,1182 L650,0 L155,0 L155,2048 L581,2048 L1387,868 L1404,868 L1404,2048"/> 
            <glyph glyph-name="O" unicode="&#x4F;" horiz-adv-x="2088" d=" M2088,1024 Q2088,686 1958,451 Q1828,216 1606.5,94 Q1385,-28 1110,-28 Q834,-28 613,95 Q392,218 262.5,452.5 Q133,687 133,1024 Q133,1362 262.5,1597 Q392,1832 613,1954 Q834,2076 1110,2076 Q1385,2076 1606.5,1954 Q1828,1832 1958,1597 Q2088,1362 2088,1024 M1582,1024 Q1582,1224 1525.5,1362 Q1469,1500 1363.5,1571 Q1258,1642 1110,1642 Q963,1642 857,1571 Q751,1500 694.5,1362 Q638,1224 638,1024 Q638,824 694.5,686 Q751,548 857,477 Q963,406 1110,406 Q1258,406 1363.5,477 Q1469,548 1525.5,686 Q1582,824 1582,1024"/> 
            <glyph glyph-name="P" unicode="&#x50;" horiz-adv-x="1748" d=" M155,0 L155,2048 L1001,2048 Q1231,2048 1398.5,1958.5 Q1566,1869 1657,1709.5 Q1748,1550 1748,1339 Q1748,1127 1655.5,968.5 Q1563,810 1392,723 Q1221,636 986,636 L464,636 L464,1026 L894,1026 Q1006,1026 1081.5,1065 Q1157,1104 1196,1174.5 Q1235,1245 1235,1339 Q1235,1434 1196,1503.5 Q1157,1573 1081,1611 Q1005,1649 894,1649 L650,1649 L650,0"/> 
            <glyph glyph-name="Q" unicode="&#x51;" horiz-adv-x="2088" d=" M938,736 L1338,736 L1508,519 L1731,263 L2074,-160 L1626,-160 L1386,127 L1244,331 M2088,1024 Q2088,686 1958,451 Q1828,216 1606.5,94 Q1385,-28 1110,-28 Q834,-28 613,95 Q392,218 262.5,452.5 Q133,687 133,1024 Q133,1362 262.5,1597 Q392,1832 613,1954 Q834,2076 1110,2076 Q1385,2076 1606.5,1954 Q1828,1832 1958,1597 Q2088,1362 2088,1024 M1582,1024 Q1582,1224 1525.5,1362 Q1469,1500 1363.5,1571 Q1258,1642 1110,1642 Q963,1642 857,1571 Q751,1500 694.5,1362 Q638,1224 638,1024 Q638,824 694.5,686 Q751,548 857,477 Q963,406 1110,406 Q1258,406 1363.5,477 Q1469,548 1525.5,686 Q1582,824 1582,1024"/> 
            <glyph glyph-name="R" unicode="&#x52;" horiz-adv-x="1818" d=" M155,0 L155,2048 L1001,2048 Q1231,2048 1398.5,1965.5 Q1566,1883 1657,1729.5 Q1748,1576 1748,1366 Q1748,1153 1655,1004.5 Q1562,856 1391,778.5 Q1220,701 986,701 L451,701 L451,1091 L894,1091 Q1006,1091 1081.5,1120.5 Q1157,1150 1196,1210.5 Q1235,1271 1235,1366 Q1235,1461 1196,1523.5 Q1157,1586 1081,1617.5 Q1005,1649 894,1649 L650,1649 L650,0 M1308,936 L1818,0 L1278,0 L778,936"/> 
            <glyph glyph-name="S" unicode="&#x53;" horiz-adv-x="1764" d=" M1262,1434 Q1252,1544 1173.5,1605.5 Q1095,1667 950,1667 Q854,1667 790,1642 Q726,1617 694,1573.5 Q662,1530 661,1474 Q659,1428 679.5,1393 Q700,1358 739.5,1331.5 Q779,1305 835,1285 Q891,1265 961,1250 L1137,1210 Q1289,1177 1405.5,1122 Q1522,1067 1601.5,991 Q1681,915 1722,816 Q1763,717 1764,594 Q1763,400 1666,261 Q1569,122 1387.5,48 Q1206,-26 950,-26 Q693,-26 502,51 Q311,128 205,285 Q99,442 96,682 L570,682 Q576,583 623,517 Q670,451 752.5,417 Q835,383 944,383 Q1044,383 1114.5,410 Q1185,437 1223,485 Q1261,533 1262,595 Q1261,653 1226,694.5 Q1191,736 1118.5,766.5 Q1046,797 934,823 L720,873 Q454,934 301,1070.5 Q148,1207 149,1440 Q148,1630 251,1773 Q354,1916 536,1996 Q718,2076 951,2076 Q1189,2076 1364.5,1995.5 Q1540,1915 1637,1770 Q1734,1625 1736,1434"/> 
            <glyph glyph-name="T" unicode="&#x54;" horiz-adv-x="1819" d=" M88,1646 L88,2048 L1819,2048 L1819,1646 L1198,1646 L1198,0 L710,0 L710,1646"/> 
            <glyph glyph-name="U" unicode="&#x55;" horiz-adv-x="1888" d=" M1394,2048 L1888,2048 L1888,727 Q1888,498 1779,328.5 Q1670,159 1475,66.5 Q1280,-26 1022,-26 Q761,-26 566,66.5 Q371,159 263,328.5 Q155,498 155,727 L155,2048 L650,2048 L650,770 Q650,664 696.5,581 Q743,498 827,451 Q911,404 1022,404 Q1133,404 1216.5,451 Q1300,498 1347,581 Q1394,664 1394,770"/> 
            <glyph glyph-name="V" unicode="&#x56;" horiz-adv-x="2107" d=" M620,2048 L1078,548 L1095,548 L1553,2048 L2107,2048 L1416,0 L757,0 L66,2048"/> 
            <glyph glyph-name="W" unicode="&#x57;" horiz-adv-x="2948" d=" M646,0 L50,2048 L597,2048 L906,706 L923,706 L1276,2048 L1722,2048 L2075,703 L2092,703 L2402,2048 L2948,2048 L2353,0 L1876,0 L1507,1242 L1491,1242 L1122,0"/> 
            <glyph glyph-name="X" unicode="&#x58;" horiz-adv-x="1998" d=" M656,2048 L1030,1401 L1046,1401 L1424,2048 L1978,2048 L1360,1024 L1998,0 L1430,0 L1046,654 L1030,654 L646,0 L82,0 L717,1024 L98,2048"/> 
            <glyph glyph-name="Y" unicode="&#x59;" horiz-adv-x="2043" d=" M53,2048 L606,2048 L1039,1191 L1057,1191 L1490,2048 L2043,2048 L1294,684 L1294,0 L802,0 L802,684"/> 
            <glyph glyph-name="Z" unicode="&#x5A;" horiz-adv-x="1769" d=" M148,0 L148,282 L1143,1646 L149,1646 L149,2048 L1769,2048 L1769,1766 L774,402 L1768,402 L1768,0"/> 
            <glyph glyph-name="[" unicode="&#x5B;" horiz-adv-x="1142" d=" M287,-454 L287,2067 L1142,2067 L1142,1708 L761,1708 L761,-95 L1142,-95 L1142,-454"/> 
            <glyph glyph-name="\" unicode="&#x5C;" horiz-adv-x="1103" d=" M686,-308 L26,2144 L443,2144 L1103,-308"/> 
            <glyph glyph-name="]" unicode="&#x5D;" horiz-adv-x="909" d=" M909,2067 L909,-454 L54,-454 L54,-95 L435,-95 L435,1708 L54,1708 L54,2067"/> 
            <glyph glyph-name="^" unicode="&#x5E;" horiz-adv-x="1304" d=" M659,1811 L731,1811 L731,1698 L659,1698 M86,1120 L511,2010 L879,2010 L1304,1120 L953,1120 L686,1738 L704,1738 L438,1120"/> 
            <glyph glyph-name="_" unicode="&#x5F;" horiz-adv-x="1366" d=" M1366,0 L1366,-358 L-1,-358 L-1,0"/> 
            <glyph glyph-name="`" unicode="&#x60;" horiz-adv-x="1018" d=" M685,1731 L382,2182 L815,2182 L1018,1731"/> 
            <glyph glyph-name="a" unicode="&#x61;" horiz-adv-x="1506" d=" M588,-26 Q441,-26 327.5,23.5 Q214,73 148.5,173.5 Q83,274 83,426 Q83,554 128,642 Q173,730 252,785 Q331,840 434,868.5 Q537,897 654,907 Q785,919 865,932.5 Q945,946 981.5,971.5 Q1018,997 1018,1044 L1018,1049 Q1018,1126 965,1168 Q912,1210 822,1210 Q725,1210 666,1168 Q607,1126 591,1052 L140,1068 Q160,1208 243.5,1318.5 Q327,1429 473.5,1492.5 Q620,1556 826,1556 Q973,1556 1097,1521.5 Q1221,1487 1313,1421.5 Q1405,1356 1455.5,1261 Q1506,1166 1506,1044 L1506,0 L1046,0 L1046,214 L1034,214 Q993,136 929.5,82 Q866,28 780.5,1 Q695,-26 588,-26 M739,294 Q818,294 881.5,326 Q945,358 983,414.5 Q1021,471 1021,546 L1021,692 Q1000,681 970.5,672 Q941,663 906,655 Q871,647 834,641 Q797,635 763,630 Q694,619 645.5,596 Q597,573 571.5,536.5 Q546,500 546,450 Q546,374 600.5,334 Q655,294 739,294"/> 
            <glyph glyph-name="b" unicode="&#x62;" horiz-adv-x="1700" d=" M155,0 L155,2048 L644,2048 L644,1273 L654,1273 Q684,1343 739.5,1408 Q795,1473 881.5,1514.5 Q968,1556 1089,1556 Q1249,1556 1388.5,1472 Q1528,1388 1614,1213 Q1700,1038 1700,767 Q1700,506 1617.5,330 Q1535,154 1395.5,66 Q1256,-22 1086,-22 Q970,-22 885,16 Q800,54 742.5,116 Q685,178 654,249 L639,249 L639,0 M634,768 Q634,644 667.5,552 Q701,460 764.5,409.5 Q828,359 917,359 Q1007,359 1070,409.5 Q1133,460 1165.5,552 Q1198,644 1198,768 Q1198,892 1165.5,983 Q1133,1074 1070.5,1124 Q1008,1174 917,1174 Q827,1174 764,1125 Q701,1076 667.5,985 Q634,894 634,768"/> 
            <glyph glyph-name="c" unicode="&#x63;" horiz-adv-x="1585" d=" M872,-29 Q629,-29 455.5,71 Q282,171 189,349.5 Q96,528 96,763 Q96,999 189.5,1177.5 Q283,1356 456.5,1456 Q630,1556 871,1556 Q1084,1556 1242.5,1479 Q1401,1402 1490.5,1261.5 Q1580,1121 1585,932 L1128,932 Q1114,1050 1048.5,1117 Q983,1184 878,1184 Q793,1184 729,1136.5 Q665,1089 629.5,996.5 Q594,904 594,768 Q594,632 629.5,538.5 Q665,445 729,397.5 Q793,350 878,350 Q946,350 998.5,379 Q1051,408 1085,464.5 Q1119,521 1128,602 L1585,602 Q1578,412 1490.5,270 Q1403,128 1245.5,49.5 Q1088,-29 872,-29"/> 
            <glyph glyph-name="d" unicode="&#x64;" horiz-adv-x="1647" d=" M716,-22 Q546,-22 407,66 Q268,154 185,330 Q102,506 102,767 Q102,1038 188,1213 Q274,1388 413.5,1472 Q553,1556 714,1556 Q835,1556 921,1514.5 Q1007,1473 1063,1408 Q1119,1343 1148,1273 L1158,1273 L1158,2048 L1647,2048 L1647,0 L1163,0 L1163,249 L1148,249 Q1117,178 1060,116 Q1003,54 917.5,16 Q832,-22 716,-22 M886,359 Q975,359 1038,409.5 Q1101,460 1135,552 Q1169,644 1169,768 Q1169,894 1135.5,985 Q1102,1076 1038.5,1125 Q975,1174 886,1174 Q795,1174 732,1124 Q669,1074 636.5,983 Q604,892 604,768 Q604,644 637,552 Q670,460 732.5,409.5 Q795,359 886,359"/> 
            <glyph glyph-name="e" unicode="&#x65;" horiz-adv-x="1602" d=" M873,-29 Q632,-29 457.5,66.5 Q283,162 189.5,339.5 Q96,517 96,762 Q96,1000 190,1178.5 Q284,1357 455,1456.5 Q626,1556 858,1556 Q1022,1556 1158,1505 Q1294,1454 1393,1354 Q1492,1254 1547,1107.5 Q1602,961 1602,772 L1602,650 L267,650 L267,934 L1147,934 Q1146,1012 1110,1073 Q1074,1134 1011.5,1168.5 Q949,1203 868,1203 Q786,1203 721,1166.5 Q656,1130 618,1067.5 Q580,1005 578,926 L578,637 Q578,543 615,472.5 Q652,402 720,363 Q788,324 882,324 Q947,324 1000,342 Q1053,360 1091,395 Q1129,430 1148,481 L1597,468 Q1569,317 1474.5,205.5 Q1380,94 1227,32.5 Q1074,-29 873,-29"/> 
            <glyph glyph-name="f" unicode="&#x66;" horiz-adv-x="1101" d=" M1028,1536 L1028,1176 L40,1176 L40,1536 M246,0 L246,1614 Q246,1792 313,1909.5 Q380,2027 499,2085.5 Q618,2144 774,2144 Q876,2144 966.5,2128.5 Q1057,2113 1101,2101 L1023,1743 Q996,1752 957.5,1758 Q919,1764 885,1764 Q799,1764 767,1726 Q735,1688 735,1622 L735,0"/> 
            <glyph glyph-name="g" unicode="&#x67;" horiz-adv-x="1650" d=" M871,-608 Q652,-608 496,-547 Q340,-486 251,-380 Q162,-274 144,-140 L607,-114 Q620,-161 655.5,-196 Q691,-231 748.5,-250 Q806,-269 884,-269 Q1007,-269 1087.5,-209.5 Q1168,-150 1168,-2 L1168,268 L1151,268 Q1122,197 1063,141 Q1004,85 916.5,53 Q829,21 716,21 Q548,21 408.5,99.5 Q269,178 185.5,343.5 Q102,509 102,770 Q102,1039 188,1213.5 Q274,1388 413.5,1472 Q553,1556 714,1556 Q835,1556 921.5,1514.5 Q1008,1473 1064,1408 Q1120,1343 1149,1273 L1163,1273 L1163,1536 L1650,1536 L1650,-6 Q1650,-201 1552,-335 Q1454,-469 1278,-538.5 Q1102,-608 871,-608 M886,377 Q975,377 1038,424 Q1101,471 1135,559 Q1169,647 1169,770 Q1169,895 1135.5,985.5 Q1102,1076 1038.5,1125 Q975,1174 886,1174 Q795,1174 732,1124 Q669,1074 636.5,983.5 Q604,893 604,770 Q604,647 637,559 Q670,471 732.5,424 Q795,377 886,377"/> 
            <glyph glyph-name="h" unicode="&#x68;" horiz-adv-x="1641" d=" M644,876 L644,0 L155,0 L155,2048 L628,2048 L628,1254 L645,1254 Q697,1396 815.5,1476 Q934,1556 1106,1556 Q1268,1556 1388,1484.5 Q1508,1413 1574.5,1283 Q1641,1153 1640,979 L1640,0 L1151,0 L1151,883 Q1152,1011 1087,1083 Q1022,1155 904,1155 Q827,1155 768.5,1121.5 Q710,1088 677.5,1026 Q645,964 644,876"/> 
            <glyph glyph-name="i" unicode="&#x69;" horiz-adv-x="651" d=" M155,0 L155,1536 L644,1536 L644,0 M400,1715 Q297,1715 223,1783.5 Q149,1852 149,1949 Q149,2045 223,2113.5 Q297,2182 400,2182 Q504,2182 577.5,2113.5 Q651,2045 651,1949 Q651,1852 577.5,1783.5 Q504,1715 400,1715"/> 
            <glyph glyph-name="j" unicode="&#x6A;" horiz-adv-x="650" d=" M155,1536 L644,1536 L644,-64 Q644,-254 566.5,-366 Q489,-478 348,-527 Q207,-576 15,-576 Q-11,-576 -34,-575 Q-57,-574 -84,-573 L-84,-202 Q-66,-204 -52,-205 Q-38,-206 -24,-206 Q77,-206 116,-168.5 Q155,-131 155,-54 M399,1715 Q296,1715 222,1783.5 Q148,1852 148,1949 Q148,2045 222,2113.5 Q296,2182 399,2182 Q503,2182 576.5,2113.5 Q650,2045 650,1949 Q650,1852 576.5,1783.5 Q503,1715 399,1715"/> 
            <glyph glyph-name="k" unicode="&#x6B;" horiz-adv-x="1674" d=" M596,403 L598,986 L666,986 L1098,1536 L1652,1536 L1010,748 L881,748 M155,0 L155,2048 L644,2048 L644,0 M1109,0 L707,638 L1029,985 L1674,0"/> 
            <glyph glyph-name="l" unicode="&#x6C;" horiz-adv-x="644" d=" M644,2048 L644,0 L155,0 L155,2048"/> 
            <glyph glyph-name="m" unicode="&#x6D;" horiz-adv-x="2459" d=" M155,0 L155,1536 L620,1536 L620,1254 L637,1254 Q685,1394 799,1475 Q913,1556 1071,1556 Q1231,1556 1345,1474 Q1459,1392 1490,1254 L1506,1254 Q1549,1391 1674,1473.5 Q1799,1556 1969,1556 Q2187,1556 2323,1416.5 Q2459,1277 2459,1034 L2459,0 L1970,0 L1970,922 Q1970,1037 1911,1097.5 Q1852,1158 1758,1158 Q1657,1158 1599.5,1092.5 Q1542,1027 1542,917 L1542,0 L1072,0 L1072,927 Q1072,1034 1014,1096 Q956,1158 861,1158 Q797,1158 748,1127.5 Q699,1097 671.5,1041 Q644,985 644,909 L644,0"/> 
            <glyph glyph-name="n" unicode="&#x6E;" horiz-adv-x="1638" d=" M644,876 L644,0 L155,0 L155,1536 L620,1536 L620,1254 L637,1254 Q688,1395 811,1475.5 Q934,1556 1104,1556 Q1266,1556 1385.5,1483.5 Q1505,1411 1571.5,1281.5 Q1638,1152 1637,979 L1637,0 L1148,0 L1148,883 Q1149,1011 1083.5,1083 Q1018,1155 902,1155 Q825,1155 766.5,1121.5 Q708,1088 676.5,1026 Q645,964 644,876"/> 
            <glyph glyph-name="o" unicode="&#x6F;" horiz-adv-x="1648" d=" M872,-29 Q630,-29 456.5,70.5 Q283,170 189.5,348.5 Q96,527 96,763 Q96,1000 189.5,1178.5 Q283,1357 456.5,1456.5 Q630,1556 872,1556 Q1114,1556 1287.5,1456.5 Q1461,1357 1554.5,1178.5 Q1648,1000 1648,763 Q1648,527 1554.5,348.5 Q1461,170 1287.5,70.5 Q1114,-29 872,-29 M875,340 Q963,340 1024,394 Q1085,448 1117.5,544 Q1150,640 1150,766 Q1150,894 1117.5,990 Q1085,1086 1024,1140 Q963,1194 875,1194 Q784,1194 721.5,1140 Q659,1086 626.5,990 Q594,894 594,766 Q594,640 626.5,544 Q659,448 721.5,394 Q784,340 875,340"/> 
            <glyph glyph-name="p" unicode="&#x70;" horiz-adv-x="1700" d=" M155,-576 L155,1536 L639,1536 L639,1273 L654,1273 Q684,1343 739.5,1408 Q795,1473 881.5,1514.5 Q968,1556 1089,1556 Q1249,1556 1388.5,1472 Q1528,1388 1614,1213 Q1700,1038 1700,767 Q1700,506 1617.5,330 Q1535,154 1395.5,66 Q1256,-22 1086,-22 Q970,-22 885,16 Q800,54 742.5,116 Q685,178 654,249 L644,249 L644,-576 M634,768 Q634,644 667.5,552 Q701,460 764.5,409.5 Q828,359 917,359 Q1007,359 1070,409.5 Q1133,460 1165.5,552 Q1198,644 1198,768 Q1198,892 1165.5,983 Q1133,1074 1070.5,1124 Q1008,1174 917,1174 Q827,1174 764,1125 Q701,1076 667.5,985 Q634,894 634,768"/> 
            <glyph glyph-name="q" unicode="&#x71;" horiz-adv-x="1647" d=" M1158,-576 L1158,249 L1148,249 Q1117,178 1060,116 Q1003,54 917.5,16 Q832,-22 716,-22 Q546,-22 407,66 Q268,154 185,330 Q102,506 102,767 Q102,1038 188,1213 Q274,1388 413.5,1472 Q553,1556 714,1556 Q835,1556 921,1514.5 Q1007,1473 1063,1408 Q1119,1343 1148,1273 L1163,1273 L1163,1536 L1647,1536 L1647,-576 M886,359 Q975,359 1038,409.5 Q1101,460 1135,552 Q1169,644 1169,768 Q1169,894 1135.5,985 Q1102,1076 1038.5,1125 Q975,1174 886,1174 Q795,1174 732,1124 Q669,1074 636.5,983 Q604,892 604,768 Q604,644 637,552 Q670,460 732.5,409.5 Q795,359 886,359"/> 
            <glyph glyph-name="r" unicode="&#x72;" horiz-adv-x="1141" d=" M155,0 L155,1536 L630,1536 L630,1256 L646,1256 Q688,1408 783,1482.5 Q878,1557 1004,1557 Q1038,1557 1074,1552.5 Q1110,1548 1141,1539 L1141,1114 Q1106,1126 1049.5,1133 Q993,1140 949,1140 Q862,1140 792.5,1101.5 Q723,1063 683.5,994.5 Q644,926 644,834 L644,0"/> 
            <glyph glyph-name="s" unicode="&#x73;" horiz-adv-x="1534" d=" M1496,1067 L1047,1055 Q1040,1103 1009,1140.5 Q978,1178 928.5,1199.5 Q879,1221 814,1221 Q729,1221 669.5,1187 Q610,1153 611,1095 Q610,1050 647.5,1017 Q685,984 782,964 L1078,908 Q1308,864 1420.5,762 Q1533,660 1534,492 Q1533,334 1440.5,217 Q1348,100 1188,35.5 Q1028,-29 822,-29 Q493,-29 303.5,106.5 Q114,242 87,470 L570,482 Q586,398 653,354 Q720,310 824,310 Q918,310 977,345 Q1036,380 1037,438 Q1036,490 991,521.5 Q946,553 850,571 L582,622 Q351,664 238,777.5 Q125,891 126,1067 Q125,1221 208,1330.5 Q291,1440 444,1498 Q597,1556 805,1556 Q1117,1556 1297,1425.5 Q1477,1295 1496,1067"/> 
            <glyph glyph-name="t" unicode="&#x74;" horiz-adv-x="1050" d=" M1022,1536 L1022,1176 L53,1176 L53,1536 M256,1904 L745,1904 L745,483 Q745,438 759.5,410.5 Q774,383 802,371.5 Q830,360 869,360 Q897,360 928.5,365.5 Q960,371 976,375 L1050,22 Q1015,12 951.5,-3 Q888,-18 800,-22 Q628,-30 505.5,18.5 Q383,67 318.5,170 Q254,273 256,429"/> 
            <glyph glyph-name="u" unicode="&#x75;" horiz-adv-x="1634" d=" M1146,663 L1146,1536 L1634,1536 L1634,0 L1168,0 L1168,286 L1152,286 Q1101,145 978.5,62.5 Q856,-20 683,-20 Q526,-20 407,52 Q288,124 222,253.5 Q156,383 155,557 L155,1536 L644,1536 L644,653 Q645,528 710,456 Q775,384 887,384 Q960,384 1018.5,416.5 Q1077,449 1111.5,511.5 Q1146,574 1146,663"/> 
            <glyph glyph-name="v" unicode="&#x76;" horiz-adv-x="1645" d=" M1645,1536 L1118,0 L558,0 L32,1536 L547,1536 L830,478 L846,478 L1130,1536"/> 
            <glyph glyph-name="w" unicode="&#x77;" horiz-adv-x="2387" d=" M442,0 L42,1536 L533,1536 L740,552 L753,552 L975,1536 L1454,1536 L1682,559 L1695,559 L1896,1536 L2387,1536 L1986,0 L1463,0 L1223,895 L1206,895 L966,0"/> 
            <glyph glyph-name="x" unicode="&#x78;" horiz-adv-x="1595" d=" M571,1536 L824,1030 L1086,1536 L1579,1536 L1150,768 L1595,0 L1106,0 L824,510 L549,0 L53,0 L499,768 L75,1536"/> 
            <glyph glyph-name="y" unicode="&#x79;" horiz-adv-x="1645" d=" M454,-576 Q366,-576 288,-562.5 Q210,-549 154,-527 L262,-172 Q334,-196 392.5,-200 Q451,-204 493.5,-181.5 Q536,-159 559,-102 L578,-56 L32,1536 L544,1536 L827,440 L843,440 L1130,1536 L1645,1536 L1066,-147 Q1024,-273 947.5,-369.5 Q871,-466 750.5,-521 Q630,-576 454,-576"/> 
            <glyph glyph-name="z" unicode="&#x7A;" horiz-adv-x="1478" d=" M159,0 L159,279 L871,1146 L871,1156 L184,1156 L184,1536 L1454,1536 L1454,1230 L794,390 L794,380 L1478,380 L1478,0"/> 
            <glyph glyph-name="{" unicode="&#x7B;" horiz-adv-x="1142" d=" M82,796 L82,1022 Q256,1022 323.5,1091 Q391,1160 391,1310 L391,1499 Q391,1700 450.5,1815 Q510,1930 613.5,1984 Q717,2038 853,2052.5 Q989,2067 1142,2067 L1142,1708 Q1022,1708 962.5,1679 Q903,1650 883,1591 Q863,1532 863,1442 L863,1186 Q863,1110 832,1040 Q801,970 718,915 Q635,860 481.5,828 Q328,796 82,796 M1142,-454 Q989,-454 853,-439.5 Q717,-425 613.5,-371 Q510,-317 450.5,-202 Q391,-87 391,114 L391,302 Q391,453 323.5,521.5 Q256,590 82,590 L82,817 Q328,817 481.5,784.5 Q635,752 718,697.5 Q801,643 832,573 Q863,503 863,427 L863,171 Q863,81 883,22 Q903,-37 962.5,-66 Q1022,-95 1142,-95 M82,590 L82,1022 L481,1022 L481,590"/> 
            <glyph glyph-name="|" unicode="&#x7C;" horiz-adv-x="784" d=" M784,2708 L784,-660 L312,-660 L312,2708"/> 
            <glyph glyph-name="}" unicode="&#x7D;" horiz-adv-x="1114" d=" M1114,817 L1114,590 Q941,590 873,521.5 Q805,453 805,302 L805,114 Q805,-87 745.5,-202 Q686,-317 582.5,-371 Q479,-425 343.5,-439.5 Q208,-454 54,-454 L54,-95 Q174,-95 233.5,-66 Q293,-37 313,22 Q333,81 333,171 L333,427 Q333,503 364,573 Q395,643 478,697.5 Q561,752 714.5,784.5 Q868,817 1114,817 M54,2067 Q208,2067 343.5,2052.5 Q479,2038 582.5,1984 Q686,1930 745.5,1815 Q805,1700 805,1499 L805,1310 Q805,1160 873,1091 Q941,1022 1114,1022 L1114,796 Q868,796 714.5,828 Q561,860 478,915 Q395,970 364,1040 Q333,1110 333,1186 L333,1442 Q333,1532 313,1591 Q293,1650 233.5,1679 Q174,1708 54,1708 M1114,1022 L1114,590 L715,590 L715,1022"/> 
            <glyph glyph-name="~" unicode="&#x7E;" horiz-adv-x="1731" d=" M210,534 Q203,732 253,873 Q303,1014 405,1089 Q507,1164 654,1164 Q745,1164 831,1127 Q917,1090 1027,993 Q1080,947 1118,920 Q1156,893 1208,893 Q1274,893 1319,946.5 Q1364,1000 1360,1121 L1723,1121 Q1731,924 1679,783 Q1627,642 1524.5,566.5 Q1422,491 1279,491 Q1181,491 1093.5,531 Q1006,571 902,662 Q844,714 809.5,738 Q775,762 725,762 Q658,762 614,709.5 Q570,657 573,534"/> 
            <glyph glyph-name="¡" unicode="&#xA1;" horiz-adv-x="738" d=" M730,-517 L227,-517 L273,904 L684,904 M478,1560 Q581,1560 659.5,1484 Q738,1408 738,1300 Q738,1194 659.5,1118.5 Q581,1043 478,1043 Q371,1043 294.5,1118.5 Q218,1194 218,1300 Q218,1372 253,1431 Q288,1490 347.5,1525 Q407,1560 478,1560"/> 
            <glyph glyph-name="¢" unicode="&#xA2;" horiz-adv-x="1585" d=" M792,0 L792,2048 L956,2048 L956,0 M872,232 Q629,232 455.5,332 Q282,432 189,610.5 Q96,789 96,1024 Q96,1259 189.5,1438 Q283,1617 456.5,1716.5 Q630,1816 871,1816 Q1084,1816 1242.5,1739 Q1401,1662 1490.5,1521.5 Q1580,1381 1585,1192 L1128,1192 Q1114,1310 1048.5,1377 Q983,1444 878,1444 Q793,1444 729,1396.5 Q665,1349 629.5,1256.5 Q594,1164 594,1028 Q594,892 629.5,799 Q665,706 729,658 Q793,610 878,610 Q946,610 998.5,639 Q1051,668 1085,724.5 Q1119,781 1128,862 L1585,862 Q1578,672 1490.5,530 Q1403,388 1245.5,310 Q1088,232 872,232"/> 
            <glyph glyph-name="£" unicode="&#xA3;" horiz-adv-x="1735" d=" M1735,0 L203,0 L203,402 L1735,402 M1351,822 L198,822 L198,1200 L1351,1200 M900,1482 L932,637 Q937,496 867,409.5 Q797,323 630,257 L350,402 Q389,415 408.5,443.5 Q428,472 434.5,513 Q441,554 440,605 L409,1482 Q402,1670 483.5,1803 Q565,1936 715,2006 Q865,2076 1062,2076 Q1223,2076 1347,2035.5 Q1471,1995 1556.5,1918 Q1642,1841 1686.5,1733 Q1731,1625 1733,1490 L1270,1484 Q1269,1562 1241.5,1606.5 Q1214,1651 1168.5,1668.5 Q1123,1686 1067,1686 Q1015,1686 977.5,1663.5 Q940,1641 919.5,1595.5 Q899,1550 900,1482"/> 
            <glyph glyph-name="¤" unicode="&#xA4;" horiz-adv-x="2006" d=" M1098,-28 Q922,-28 767.5,37.5 Q613,103 496,221 Q379,339 312.5,496 Q246,653 247,836 Q246,1019 312.5,1175.5 Q379,1332 496,1449 Q613,1566 767.5,1631 Q922,1696 1098,1696 Q1272,1696 1425.5,1631 Q1579,1566 1696,1449 Q1813,1332 1879.5,1175.5 Q1946,1019 1947,836 Q1946,653 1879.5,496 Q1813,339 1696,221 Q1579,103 1425.5,37.5 Q1272,-28 1098,-28 M1098,246 Q1218,246 1323.5,291 Q1429,336 1509,416.5 Q1589,497 1634.5,604 Q1680,711 1681,836 Q1680,1004 1601.5,1137.5 Q1523,1271 1390.5,1348.5 Q1258,1426 1098,1426 Q934,1426 801.5,1348.5 Q669,1271 591.5,1137.5 Q514,1004 515,836 Q514,670 591.5,536 Q669,402 801.5,324 Q934,246 1098,246 M1717,1253 L1515,1459 L1801,1743 L2006,1537 M1801,-39 L1515,245 L1717,447 L2006,167 M398,-39 L196,167 L482,447 L687,245 M482,1253 L196,1537 L398,1743 L687,1459"/> 
            <glyph glyph-name="¥" unicode="&#xA5;" horiz-adv-x="1594" d=" M540,2048 L930,1052 L603,783 L40,2048 M710,1065 L1094,2048 L1594,2048 L1027,783 M1053,1079 L1053,0 L565,0 L565,1079 M1443,1068 L1443,798 L133,798 L133,1068 M1443,672 L1443,402 L133,402 L133,672"/> 
            <glyph glyph-name="¦" unicode="&#xA6;" horiz-adv-x="740" d=" M306,578 L740,578 L740,-384 L306,-384 M740,2048 L740,1090 L306,1090 L306,2048"/> 
            <glyph glyph-name="§" unicode="&#xA7;" horiz-adv-x="1558" d=" M1448,1532 L1025,1532 Q1024,1591 976,1631.5 Q928,1672 836,1672 Q796,1672 754.5,1662 Q713,1652 686,1627 Q659,1602 659,1555 Q659,1511 688.5,1476 Q718,1441 760.5,1417.5 Q803,1394 840,1382 L1222,1221 Q1261,1204 1321,1171.5 Q1381,1139 1437,1084.5 Q1493,1030 1525.5,948.5 Q1558,867 1546,752 Q1536,665 1490.5,613.5 Q1445,562 1391.5,536 Q1338,510 1304,501 L1298,497 Q1386,419 1432,324 Q1478,229 1479,109 Q1479,-52 1398.5,-169 Q1318,-286 1178.5,-349.5 Q1039,-413 859,-413 Q666,-413 519.5,-343 Q373,-273 291.5,-147.5 Q210,-22 210,148 L634,148 Q633,71 693.5,29 Q754,-13 866,-6 Q930,-3 989.5,22.5 Q1049,48 1050,109 Q1050,153 1020,186.5 Q990,220 949.5,243.5 Q909,267 875,282 L494,439 Q452,456 392,488.5 Q332,521 276,576.5 Q220,632 187,714.5 Q154,797 166,912 Q176,1000 219,1051 Q262,1102 316.5,1127.5 Q371,1153 411,1164 L411,1166 Q331,1243 281.5,1338 Q232,1433 233,1555 Q233,1705 309.5,1822.5 Q386,1940 522.5,2008 Q659,2076 836,2076 Q1019,2076 1156,2005.5 Q1293,1935 1370.5,1811.5 Q1448,1688 1448,1532 M1153,723 Q1159,749 1145.5,776 Q1132,803 1096.5,828.5 Q1061,854 1000,878 L685,1003 Q652,1016 625,1011 Q598,1006 580,987.5 Q562,969 556,941 Q546,902 584,860.5 Q622,819 710,786 L1030,659 Q1058,648 1083,653 Q1108,658 1127,676 Q1146,694 1153,723"/> 
            <glyph glyph-name="¨" unicode="&#xA8;" horiz-adv-x="1264" d=" M416,1731 Q322,1731 255.5,1795 Q189,1859 189,1949 Q189,2039 255.5,2102.5 Q322,2166 416,2166 Q509,2166 574.5,2102.5 Q640,2039 640,1949 Q640,1859 574.5,1795 Q509,1731 416,1731 M1040,1731 Q946,1731 879.5,1795 Q813,1859 813,1949 Q813,2039 879.5,2102.5 Q946,2166 1040,2166 Q1133,2166 1198.5,2102.5 Q1264,2039 1264,1949 Q1264,1859 1198.5,1795 Q1133,1731 1040,1731"/> 
            <glyph glyph-name="©" unicode="&#xA9;" horiz-adv-x="2345" d=" M741,1024 Q741,1177 815.5,1302.5 Q890,1428 1016,1503 Q1142,1578 1295,1578 Q1429,1578 1543.5,1518.5 Q1658,1459 1731.5,1357 Q1805,1255 1820,1126 L1504,1126 Q1490,1193 1431,1234.5 Q1372,1276 1295,1276 Q1226,1276 1169,1242.5 Q1112,1209 1077.5,1152 Q1043,1095 1043,1025 Q1043,956 1077.5,898.5 Q1112,841 1169,806.5 Q1226,772 1295,772 Q1372,772 1429,813.5 Q1486,855 1500,922 L1816,922 Q1801,793 1728.5,691 Q1656,589 1543,529.5 Q1430,470 1295,470 Q1142,470 1016,545 Q890,620 815.5,745.5 Q741,871 741,1024 M1288,-32 Q1070,-32 878.5,50 Q687,132 541.5,277.5 Q396,423 313.5,614 Q231,805 232,1024 Q233,1243 315.5,1434 Q398,1625 543,1770.5 Q688,1916 879,1998 Q1070,2080 1288,2080 Q1507,2080 1698.5,1998 Q1890,1916 2034.5,1770.5 Q2179,1625 2261,1434 Q2343,1243 2344,1024 Q2345,805 2263,614 Q2181,423 2036,277.5 Q1891,132 1699,50 Q1507,-32 1288,-32 M1288,334 Q1432,334 1557.5,388 Q1683,442 1777,536.5 Q1871,631 1924.5,755.5 Q1978,880 1978,1023 Q1977,1167 1923.5,1292.5 Q1870,1418 1775.5,1512 Q1681,1606 1556,1660 Q1431,1714 1288,1714 Q1146,1714 1021.5,1660 Q897,1606 802,1511 Q707,1416 653,1291 Q599,1166 598,1023 Q598,881 651.5,756.5 Q705,632 800,537 Q895,442 1020,388 Q1145,334 1288,334"/> 
            <glyph glyph-name="ª" unicode="&#xAA;" horiz-adv-x="1166" d=" M877,1184 L877,1652 Q877,1734 836.5,1781 Q796,1828 710,1828 Q618,1828 566.5,1793 Q515,1758 515,1692 L266,1709 Q266,1849 388.5,1940.5 Q511,2032 710,2032 Q898,2032 1012,1936.5 Q1126,1841 1126,1652 L1126,1220 Q1126,1164 1133,1100 Q1140,1036 1166,969 L912,969 Q897,1014 887,1069.5 Q877,1125 877,1184 M940,1581 L940,1421 L734,1421 Q611,1421 553.5,1375 Q496,1329 496,1269 Q496,1214 536,1181.5 Q576,1149 662,1149 Q720,1149 779.5,1174.5 Q839,1200 879.5,1237 Q920,1274 920,1308 L944,1145 Q912,1076 828.5,1014 Q745,952 599,952 Q429,952 337.5,1037.5 Q246,1123 246,1264 Q246,1417 366.5,1499 Q487,1581 734,1581"/> 
            <glyph glyph-name="«" unicode="&#xAB;" horiz-adv-x="1712" d=" M1005,220 L560,220 L156,820 L156,840 L621,840 M1005,1448 L621,828 L156,828 L156,848 L560,1448 M1712,220 L1267,220 L863,820 L863,840 L1328,840 M1712,1448 L1328,828 L863,828 L863,848 L1267,1448"/> 
            <glyph glyph-name="¬" unicode="&#xAC;" horiz-adv-x="1435" d=" M1435,1108 L1435,872 L242,872 L242,1108 M1435,1000 L1435,516 L1150,516 L1150,1000"/> 
            <glyph glyph-name="­" unicode="&#xAD;" horiz-adv-x="1138" d=" M1138,1017 L1138,640 L190,640 L190,1017"/> 
            <glyph glyph-name="®" unicode="&#xAE;" horiz-adv-x="1731" d=" M638,916 L638,1654 L995,1654 Q1073,1654 1133.5,1624 Q1194,1594 1227.5,1539 Q1261,1484 1261,1407 Q1261,1329 1226,1274.5 Q1191,1220 1129.5,1191.5 Q1068,1163 988,1163 L748,1163 L748,1308 L950,1308 Q995,1308 1023,1333 Q1051,1358 1051,1407 Q1051,1458 1023,1481.5 Q995,1505 951,1505 L840,1505 L840,916 M1118,1254 L1281,916 L1060,916 L910,1254 M931,476 Q765,476 620,538 Q475,600 365,710 Q255,820 193,965 Q131,1110 131,1276 Q131,1442 193,1587 Q255,1732 365,1842 Q475,1952 620,2014 Q765,2076 931,2076 Q1097,2076 1242,2014 Q1387,1952 1497,1842 Q1607,1732 1669,1587 Q1731,1442 1731,1276 Q1731,1110 1669,965 Q1607,820 1497,710 Q1387,600 1242,538 Q1097,476 931,476 M931,694 Q1093,694 1225,772.5 Q1357,851 1435.5,983 Q1514,1115 1514,1276 Q1514,1437 1435.5,1569 Q1357,1701 1224.5,1779.5 Q1092,1858 931,1858 Q770,1858 638,1779.5 Q506,1701 427.5,1569 Q349,1437 349,1276 Q349,1115 427.5,983 Q506,851 638,772.5 Q770,694 931,694"/> 
            <glyph glyph-name="¯" unicode="&#xAF;" horiz-adv-x="1343" d=" M1343,2048 L1343,1806 L356,1806 L356,2048"/> 
            <glyph glyph-name="°" unicode="&#xB0;" horiz-adv-x="1151" d=" M650,1058 Q511,1058 397,1125.5 Q283,1193 215.5,1307 Q148,1421 148,1559 Q148,1698 215.5,1812 Q283,1926 397,1993.5 Q511,2061 650,2061 Q789,2061 902.5,1993.5 Q1016,1926 1083.5,1812 Q1151,1698 1151,1559 Q1151,1421 1083.5,1307 Q1016,1193 902.5,1125.5 Q789,1058 650,1058 M650,1370 Q702,1370 745,1395.5 Q788,1421 813.5,1464 Q839,1507 839,1559 Q839,1612 813.5,1655 Q788,1698 745,1723.5 Q702,1749 650,1749 Q597,1749 554,1723.5 Q511,1698 485.5,1655 Q460,1612 460,1560 Q460,1507 485.5,1463.5 Q511,1420 554.5,1395 Q598,1370 650,1370"/> 
            <glyph glyph-name="±" unicode="&#xB1;" horiz-adv-x="1690" d=" M242,70 L242,448 L1690,448 L1690,70 M242,910 L242,1275 L1690,1275 L1690,910 M765,586 L765,1600 L1168,1600 L1168,586"/> 
            <glyph glyph-name="²" unicode="&#xB2;" horiz-adv-x="1112" d=" M118,1024 L118,1266 L611,1647 Q662,1687 701,1720.5 Q740,1754 762.5,1789 Q785,1824 785,1868 Q785,1934 729.5,1968.5 Q674,2003 596,2003 Q512,2003 461,1964 Q410,1925 410,1846 L87,1846 Q87,2046 231.5,2157 Q376,2268 600,2268 Q754,2268 867.5,2215 Q981,2162 1043,2072 Q1105,1982 1105,1872 Q1105,1782 1067.5,1705 Q1030,1628 952.5,1556 Q875,1484 754,1410 L602,1310 L602,1299 L1112,1299 L1112,1024"/> 
            <glyph glyph-name="³" unicode="&#xB3;" horiz-adv-x="1173" d=" M623,1008 Q468,1008 347,1055 Q226,1102 155.5,1187 Q85,1272 82,1384 L426,1384 Q432,1337 487.5,1312 Q543,1287 623,1287 Q704,1287 762.5,1316 Q821,1345 821,1402 Q821,1455 763,1489.5 Q705,1524 602,1524 L447,1524 L447,1774 L602,1774 Q689,1774 740,1807 Q791,1840 791,1890 Q791,1942 745.5,1972.5 Q700,2003 627,2003 Q547,2003 491.5,1974 Q436,1945 433,1899 L110,1899 Q112,2008 181.5,2091.5 Q251,2175 368,2221.5 Q485,2268 630,2268 Q778,2268 888,2220 Q998,2172 1058,2091 Q1118,2010 1118,1912 Q1118,1804 1043.5,1740.5 Q969,1677 866,1664 L866,1653 Q1010,1641 1091.5,1569.5 Q1173,1498 1173,1380 Q1173,1270 1101.5,1186.5 Q1030,1103 906,1055.5 Q782,1008 623,1008"/> 
            <glyph glyph-name="´" unicode="&#xB4;" horiz-adv-x="1160" d=" M525,1731 L727,2182 L1160,2182 L858,1731"/> 
            <glyph glyph-name="µ" unicode="&#xB5;" horiz-adv-x="1763" d=" M155,-550 L155,1536 L644,1536 L644,663 Q645,581 684.5,518 Q724,455 795,419.5 Q866,384 960,384 Q1053,384 1124,419.5 Q1195,455 1235,518.5 Q1275,582 1274,663 L1274,1536 L1763,1536 L1763,0 L1297,0 L1297,215 L1285,215 Q1244,123 1157,70.5 Q1070,18 960,18 Q849,18 761.5,70.5 Q674,123 634,215 L622,215 L622,-550"/> 
            <glyph glyph-name="¶" unicode="&#xB6;" horiz-adv-x="1571" d=" M1322,1684 L954,1684 L954,760 L834,760 Q607,760 450.5,843.5 Q294,927 213.5,1072.5 Q133,1218 133,1404 Q133,1588 213.5,1733.5 Q294,1879 450.5,1963.5 Q607,2048 834,2048 L1322,2048 M1202,0 L1202,2048 L1571,2048 L1571,0"/> 
            <glyph glyph-name="·" unicode="&#xB7;" horiz-adv-x="690" d=" M430,637 Q322,637 245.5,713 Q169,789 170,897 Q169,1003 245.5,1078.5 Q322,1154 430,1154 Q532,1154 610.5,1078.5 Q689,1003 690,897 Q689,825 652.5,766 Q616,707 557.5,672 Q499,637 430,637"/> 
            <glyph glyph-name="¸" unicode="&#xB8;" horiz-adv-x="906" d=" M482,8 L678,8 L662,-82 Q772,-98 838,-161.5 Q904,-225 905,-327 Q906,-483 756.5,-573.5 Q607,-664 341,-664 L339,-463 Q476,-463 551,-432 Q626,-401 629,-338 Q632,-280 584,-245.5 Q536,-211 435,-198"/> 
            <glyph glyph-name="¹" unicode="&#xB9;" horiz-adv-x="713" d=" M393,1024 L393,1952 L386,1952 L99,1776 L99,2055 L416,2252 L713,2252 L713,1024"/> 
            <glyph glyph-name="º" unicode="&#xBA;" horiz-adv-x="1194" d=" M204,1436 L204,1541 Q204,1684 265,1795 Q326,1906 437,1969 Q548,2032 699,2032 Q928,2032 1061,1894 Q1194,1756 1194,1541 L1194,1436 Q1194,1294 1135,1184 Q1076,1074 966,1011.5 Q856,949 703,949 Q472,949 338,1086 Q204,1223 204,1436 M454,1541 L454,1436 Q454,1313 516,1232.5 Q578,1152 703,1152 Q825,1152 885,1232.5 Q945,1313 945,1436 L945,1541 Q945,1661 884.5,1744.5 Q824,1828 699,1828 Q577,1828 515.5,1744.5 Q454,1661 454,1541"/> 
            <glyph glyph-name="»" unicode="&#xBB;" horiz-adv-x="1696" d=" M127,220 L511,840 L976,840 L976,820 L572,220 M127,1448 L572,1448 L976,848 L976,828 L511,828 M847,220 L1231,840 L1696,840 L1696,820 L1292,220 M847,1448 L1292,1448 L1696,848 L1696,828 L1231,828"/> 
            <glyph glyph-name="¼" unicode="&#xBC;" horiz-adv-x="2410" d=" M323,0 L1731,2048 L2004,2048 L596,0 M347,1216 L347,2025 L340,2025 L80,1865 L80,2126 L368,2304 L644,2304 L644,1216 M1366,167 L1366,408 L1867,1088 L2072,1088 L2072,767 L1955,767 L1671,422 L1671,412 L2410,412 L2410,167 M1962,0 L1962,238 L1966,349 L1966,1088 L2249,1088 L2249,0"/> 
            <glyph glyph-name="½" unicode="&#xBD;" horiz-adv-x="2495" d=" M323,0 L1731,2048 L2004,2048 L596,0 M347,1216 L347,2025 L340,2025 L80,1865 L80,2126 L368,2304 L644,2304 L644,1216 M1607,0 L1607,216 L2055,554 Q2117,601 2163.5,644 Q2210,687 2210,746 Q2210,804 2159.5,833.5 Q2109,863 2036,863 Q1961,863 1915,830 Q1869,797 1869,728 L1583,728 Q1583,905 1713,1004.5 Q1843,1104 2043,1104 Q2249,1104 2371,1001 Q2493,898 2493,750 Q2493,668 2458.5,599 Q2424,530 2353.5,467.5 Q2283,405 2176,343 L2039,259 L2039,248 L2495,248 L2495,0"/> 
            <glyph glyph-name="¾" unicode="&#xBE;" horiz-adv-x="2671" d=" M584,0 L1992,2048 L2265,2048 L857,0 M1627,167 L1627,408 L2128,1088 L2333,1088 L2333,767 L2216,767 L1932,422 L1932,412 L2671,412 L2671,167 M2223,0 L2223,238 L2227,349 L2227,1088 L2510,1088 L2510,0 M564,1200 Q417,1200 308.5,1244 Q200,1288 139,1363 Q78,1438 75,1532 L383,1532 Q388,1492 436,1469.5 Q484,1447 554,1447 Q634,1447 689,1474 Q744,1501 744,1549 Q744,1594 693.5,1624 Q643,1654 546,1654 L400,1654 L400,1882 L546,1882 Q621,1882 667.5,1910 Q714,1938 714,1984 Q714,2028 673.5,2056 Q633,2084 561,2084 Q496,2084 445,2060 Q394,2036 390,1996 L99,1996 Q103,2092 166.5,2165 Q230,2238 335.5,2279 Q441,2320 570,2320 Q702,2320 800,2277 Q898,2234 952.5,2162 Q1007,2090 1007,2003 Q1007,1915 946,1856 Q885,1797 786,1784 L786,1773 Q919,1762 988,1696.5 Q1057,1631 1057,1530 Q1057,1433 992,1358.5 Q927,1284 815.5,1242 Q704,1200 564,1200"/> 
            <glyph glyph-name="¿" unicode="&#xBF;" horiz-adv-x="1530" d=" M1096,882 L1096,842 Q1096,672 1067.5,570.5 Q1039,469 984.5,408 Q930,347 850,296 Q788,255 738,214 Q688,173 659,125 Q630,77 630,16 Q630,-44 658,-88.5 Q686,-133 734.5,-157.5 Q783,-182 842,-182 Q901,-182 952.5,-155.5 Q1004,-129 1036.5,-78.5 Q1069,-28 1070,41 L1530,41 Q1527,-169 1432.5,-303.5 Q1338,-438 1182.5,-502 Q1027,-566 838,-566 Q633,-566 472,-502 Q311,-438 219,-313.5 Q127,-189 127,-7 Q127,113 167,203.5 Q207,294 278.5,363.5 Q350,433 446,489 Q522,535 571,582 Q620,629 645,691.5 Q670,754 670,842 L670,882 M875,1538 Q983,1538 1060,1462.5 Q1137,1387 1135,1278 Q1137,1172 1060,1097 Q983,1022 875,1022 Q772,1022 694.5,1097 Q617,1172 615,1278 Q616,1351 652.5,1410 Q689,1469 748,1503.5 Q807,1538 875,1538"/> 
            <glyph glyph-name="À" unicode="&#xC0;" horiz-adv-x="2107" d=" M598,0 L66,0 L757,2048 L1416,2048 L2107,0 L1575,0 L1094,1532 L1078,1532 M527,806 L1639,806 L1639,430 L527,430 M923,2243 L620,2694 L1053,2694 L1256,2243"/> 
            <glyph glyph-name="Á" unicode="&#xC1;" horiz-adv-x="2107" d=" M598,0 L66,0 L757,2048 L1416,2048 L2107,0 L1575,0 L1094,1532 L1078,1532 M527,806 L1639,806 L1639,430 L527,430 M918,2243 L1120,2694 L1553,2694 L1251,2243"/> 
            <glyph glyph-name="Â" unicode="&#xC2;" horiz-adv-x="2107" d=" M598,0 L66,0 L757,2048 L1416,2048 L2107,0 L1575,0 L1094,1532 L1078,1532 M527,806 L1639,806 L1639,430 L527,430 M1285,2232 L1086,2464 L888,2232 L478,2232 L478,2245 L911,2693 L1262,2693 L1694,2245 L1694,2232"/> 
            <glyph glyph-name="Ã" unicode="&#xC3;" horiz-adv-x="2107" d=" M598,0 L66,0 L757,2048 L1416,2048 L2107,0 L1575,0 L1094,1532 L1078,1532 M527,806 L1639,806 L1639,430 L527,430 M807,2249 L553,2250 Q553,2454 649.5,2558 Q746,2662 886,2662 Q959,2662 1011.5,2638.5 Q1064,2615 1105,2584 Q1146,2553 1181,2529.5 Q1216,2506 1256,2506 Q1314,2506 1341.5,2548 Q1369,2590 1370,2661 L1620,2658 Q1618,2457 1521.5,2351.5 Q1425,2246 1287,2244 Q1211,2243 1158.5,2267 Q1106,2291 1067.5,2322 Q1029,2353 994,2377 Q959,2401 917,2401 Q867,2401 837,2361 Q807,2321 807,2249"/> 
            <glyph glyph-name="Ä" unicode="&#xC4;" horiz-adv-x="2107" d=" M598,0 L66,0 L757,2048 L1416,2048 L2107,0 L1575,0 L1094,1532 L1078,1532 M527,806 L1639,806 L1639,430 L527,430 M776,2243 Q682,2243 615.5,2307 Q549,2371 549,2461 Q549,2551 615.5,2614.5 Q682,2678 776,2678 Q869,2678 934.5,2614.5 Q1000,2551 1000,2461 Q1000,2371 934.5,2307 Q869,2243 776,2243 M1400,2243 Q1306,2243 1239.5,2307 Q1173,2371 1173,2461 Q1173,2551 1239.5,2614.5 Q1306,2678 1400,2678 Q1493,2678 1558.5,2614.5 Q1624,2551 1624,2461 Q1624,2371 1558.5,2307 Q1493,2243 1400,2243"/> 
            <glyph glyph-name="Å" unicode="&#xC5;" horiz-adv-x="2107" d=" M598,0 L66,0 L757,2048 L1416,2048 L2107,0 L1575,0 L1094,1532 L1078,1532 M527,806 L1639,806 L1639,430 L527,430 M1087,2159 Q956,2159 864,2248.5 Q772,2338 772,2464 Q772,2548 814.5,2617 Q857,2686 928.5,2727 Q1000,2768 1086,2768 Q1174,2768 1245,2727 Q1316,2686 1358,2617 Q1400,2548 1400,2464 Q1400,2380 1358,2310.5 Q1316,2241 1245,2200 Q1174,2159 1087,2159 M1086,2338 Q1140,2339 1179,2375.5 Q1218,2412 1218,2464 Q1218,2516 1179.5,2553 Q1141,2590 1086,2589 Q1032,2588 993.5,2552 Q955,2516 955,2464 Q955,2412 993.5,2375 Q1032,2338 1086,2338"/> 
            <glyph glyph-name="Æ" unicode="&#xC6;" horiz-adv-x="2783" d=" M66,0 L904,2048 L2783,2048 L2783,1646 L1850,1646 L1850,1226 L2710,1226 L2710,823 L1850,823 L1850,402 L2783,402 L2783,0 L1355,0 L1355,1553 L1214,1553 L610,0 M546,430 L546,806 L1642,806 L1642,430"/> 
            <glyph glyph-name="Ç" unicode="&#xC7;" horiz-adv-x="2014" d=" M2014,1306 L1514,1306 Q1504,1383 1473,1445 Q1442,1507 1391,1551 Q1340,1595 1270.5,1618.5 Q1201,1642 1117,1642 Q968,1642 860.5,1569 Q753,1496 695.5,1358 Q638,1220 638,1024 Q638,820 696.5,682.5 Q755,545 861.5,475.5 Q968,406 1114,406 Q1196,406 1263.5,427 Q1331,448 1382.5,488.5 Q1434,529 1467.5,587.5 Q1501,646 1514,720 L2014,717 Q2001,581 1935.5,449 Q1870,317 1756,208.5 Q1642,100 1478.5,36 Q1315,-28 1104,-28 Q826,-28 606.5,94.5 Q387,217 260,452 Q133,687 133,1024 Q133,1362 262,1597 Q391,1832 611,1954 Q831,2076 1104,2076 Q1290,2076 1448,2024.5 Q1606,1973 1726,1874.5 Q1846,1776 1921,1633 Q1996,1490 2014,1306 M997,11 L1193,11 L1177,-79 Q1287,-95 1353,-158.5 Q1419,-222 1420,-324 Q1421,-480 1271.5,-570.5 Q1122,-661 856,-661 L854,-460 Q991,-460 1066,-429 Q1141,-398 1144,-335 Q1147,-277 1099,-242.5 Q1051,-208 950,-195"/> 
            <glyph glyph-name="È" unicode="&#xC8;" horiz-adv-x="1583" d=" M155,0 L155,2048 L1583,2048 L1583,1646 L650,1646 L650,1226 L1510,1226 L1510,823 L650,823 L650,402 L1583,402 L1583,0 M710,2243 L407,2694 L840,2694 L1043,2243"/> 
            <glyph glyph-name="É" unicode="&#xC9;" horiz-adv-x="1583" d=" M155,0 L155,2048 L1583,2048 L1583,1646 L650,1646 L650,1226 L1510,1226 L1510,823 L650,823 L650,402 L1583,402 L1583,0 M705,2243 L907,2694 L1340,2694 L1038,2243"/> 
            <glyph glyph-name="Ê" unicode="&#xCA;" horiz-adv-x="1583" d=" M155,0 L155,2048 L1583,2048 L1583,1646 L650,1646 L650,1226 L1510,1226 L1510,823 L650,823 L650,402 L1583,402 L1583,0 M1072,2232 L873,2464 L675,2232 L265,2232 L265,2245 L698,2693 L1049,2693 L1481,2245 L1481,2232"/> 
            <glyph glyph-name="Ë" unicode="&#xCB;" horiz-adv-x="1583" d=" M155,0 L155,2048 L1583,2048 L1583,1646 L650,1646 L650,1226 L1510,1226 L1510,823 L650,823 L650,402 L1583,402 L1583,0 M563,2243 Q469,2243 402.5,2307 Q336,2371 336,2461 Q336,2551 402.5,2614.5 Q469,2678 563,2678 Q656,2678 721.5,2614.5 Q787,2551 787,2461 Q787,2371 721.5,2307 Q656,2243 563,2243 M1187,2243 Q1093,2243 1026.5,2307 Q960,2371 960,2461 Q960,2551 1026.5,2614.5 Q1093,2678 1187,2678 Q1280,2678 1345.5,2614.5 Q1411,2551 1411,2461 Q1411,2371 1345.5,2307 Q1280,2243 1187,2243"/> 
            <glyph glyph-name="Ì" unicode="&#xCC;" horiz-adv-x="650" d=" M650,2048 L650,0 L155,0 L155,2048 M65776,2243 L65473,2694 L65906,2694 L66109,2243"/> 
            <glyph glyph-name="Í" unicode="&#xCD;" horiz-adv-x="870" d=" M650,2048 L650,0 L155,0 L155,2048 M65771,2243 L65973,2694 L66406,2694 L66104,2243"/> 
            <glyph glyph-name="Î" unicode="&#xCE;" horiz-adv-x="1012" d=" M650,2048 L650,0 L155,0 L155,2048 M66139,2232 L65940,2464 L65742,2232 L65332,2232 L65332,2245 L65765,2693 L66116,2693 L66548,2245 L66548,2232"/> 
            <glyph glyph-name="Ï" unicode="&#xCF;" horiz-adv-x="942" d=" M650,2048 L650,0 L155,0 L155,2048 M94,2243 Q-1,2243 -67.5,2307 Q-134,2371 -134,2461 Q-134,2551 -67.5,2614.5 Q-1,2678 94,2678 Q187,2678 252.5,2614.5 Q318,2551 318,2461 Q318,2371 252.5,2307 Q187,2243 94,2243 M718,2243 Q623,2243 556.5,2307 Q490,2371 490,2461 Q490,2551 556.5,2614.5 Q623,2678 718,2678 Q811,2678 876.5,2614.5 Q942,2551 942,2461 Q942,2371 876.5,2307 Q811,2243 718,2243"/> 
            <glyph glyph-name="Ð" unicode="&#xD0;" horiz-adv-x="1923" d=" M912,0 L366,0 L366,422 L893,422 Q1065,422 1184.5,480.5 Q1304,539 1365.5,671.5 Q1427,804 1427,1025 Q1427,1246 1365,1377.5 Q1303,1509 1182.5,1567.5 Q1062,1626 886,1626 L357,1626 L357,2048 L911,2048 Q1224,2048 1450.5,1925.5 Q1677,1803 1800,1573.5 Q1923,1344 1923,1025 Q1923,705 1800.5,475 Q1678,245 1451,122.5 Q1224,0 912,0 M650,2048 L650,0 L155,0 L155,2048 M-119,951 L-119,1225 L918,1225 L918,951"/> 
            <glyph glyph-name="Ñ" unicode="&#xD1;" horiz-adv-x="1898" d=" M1898,2048 L1898,0 L1478,0 L663,1182 L650,1182 L650,0 L155,0 L155,2048 L581,2048 L1387,868 L1404,868 L1404,2048 M749,2238 L494,2240 Q494,2443 591,2547 Q688,2651 827,2652 Q901,2652 953.5,2628.5 Q1006,2605 1046.5,2573.5 Q1087,2542 1122.5,2518.5 Q1158,2495 1198,2495 Q1255,2496 1282.5,2537.5 Q1310,2579 1311,2650 L1562,2647 Q1559,2446 1463,2340.5 Q1367,2235 1229,2234 Q1153,2233 1100,2257 Q1047,2281 1008.5,2312 Q970,2343 935,2366.5 Q900,2390 858,2390 Q809,2390 779,2350.5 Q749,2311 749,2238"/> 
            <glyph glyph-name="Ò" unicode="&#xD2;" horiz-adv-x="2088" d=" M2088,1024 Q2088,686 1958,451 Q1828,216 1606.5,94 Q1385,-28 1110,-28 Q834,-28 613,95 Q392,218 262.5,452.5 Q133,687 133,1024 Q133,1362 262.5,1597 Q392,1832 613,1954 Q834,2076 1110,2076 Q1385,2076 1606.5,1954 Q1828,1832 1958,1597 Q2088,1362 2088,1024 M1582,1024 Q1582,1224 1525.5,1362 Q1469,1500 1363.5,1571 Q1258,1642 1110,1642 Q963,1642 857,1571 Q751,1500 694.5,1362 Q638,1224 638,1024 Q638,824 694.5,686 Q751,548 857,477 Q963,406 1110,406 Q1258,406 1363.5,477 Q1469,548 1525.5,686 Q1582,824 1582,1024 M947,2243 L644,2694 L1077,2694 L1280,2243"/> 
            <glyph glyph-name="Ó" unicode="&#xD3;" horiz-adv-x="2088" d=" M2088,1024 Q2088,686 1958,451 Q1828,216 1606.5,94 Q1385,-28 1110,-28 Q834,-28 613,95 Q392,218 262.5,452.5 Q133,687 133,1024 Q133,1362 262.5,1597 Q392,1832 613,1954 Q834,2076 1110,2076 Q1385,2076 1606.5,1954 Q1828,1832 1958,1597 Q2088,1362 2088,1024 M1582,1024 Q1582,1224 1525.5,1362 Q1469,1500 1363.5,1571 Q1258,1642 1110,1642 Q963,1642 857,1571 Q751,1500 694.5,1362 Q638,1224 638,1024 Q638,824 694.5,686 Q751,548 857,477 Q963,406 1110,406 Q1258,406 1363.5,477 Q1469,548 1525.5,686 Q1582,824 1582,1024 M942,2243 L1144,2694 L1577,2694 L1275,2243"/> 
            <glyph glyph-name="Ô" unicode="&#xD4;" horiz-adv-x="2088" d=" M2088,1024 Q2088,686 1958,451 Q1828,216 1606.5,94 Q1385,-28 1110,-28 Q834,-28 613,95 Q392,218 262.5,452.5 Q133,687 133,1024 Q133,1362 262.5,1597 Q392,1832 613,1954 Q834,2076 1110,2076 Q1385,2076 1606.5,1954 Q1828,1832 1958,1597 Q2088,1362 2088,1024 M1582,1024 Q1582,1224 1525.5,1362 Q1469,1500 1363.5,1571 Q1258,1642 1110,1642 Q963,1642 857,1571 Q751,1500 694.5,1362 Q638,1224 638,1024 Q638,824 694.5,686 Q751,548 857,477 Q963,406 1110,406 Q1258,406 1363.5,477 Q1469,548 1525.5,686 Q1582,824 1582,1024 M1309,2232 L1110,2464 L912,2232 L502,2232 L502,2245 L935,2693 L1286,2693 L1718,2245 L1718,2232"/> 
            <glyph glyph-name="Õ" unicode="&#xD5;" horiz-adv-x="2088" d=" M2088,1024 Q2088,686 1958,451 Q1828,216 1606.5,94 Q1385,-28 1110,-28 Q834,-28 613,95 Q392,218 262.5,452.5 Q133,687 133,1024 Q133,1362 262.5,1597 Q392,1832 613,1954 Q834,2076 1110,2076 Q1385,2076 1606.5,1954 Q1828,1832 1958,1597 Q2088,1362 2088,1024 M1582,1024 Q1582,1224 1525.5,1362 Q1469,1500 1363.5,1571 Q1258,1642 1110,1642 Q963,1642 857,1571 Q751,1500 694.5,1362 Q638,1224 638,1024 Q638,824 694.5,686 Q751,548 857,477 Q963,406 1110,406 Q1258,406 1363.5,477 Q1469,548 1525.5,686 Q1582,824 1582,1024 M831,2249 L577,2250 Q577,2454 673.5,2558 Q770,2662 910,2662 Q983,2662 1035.5,2638.5 Q1088,2615 1129,2584 Q1170,2553 1205,2529.5 Q1240,2506 1280,2506 Q1338,2506 1365.5,2548 Q1393,2590 1394,2661 L1644,2658 Q1642,2457 1545.5,2351.5 Q1449,2246 1311,2244 Q1235,2243 1182.5,2267 Q1130,2291 1091.5,2322 Q1053,2353 1018,2377 Q983,2401 941,2401 Q891,2401 861,2361 Q831,2321 831,2249"/> 
            <glyph glyph-name="Ö" unicode="&#xD6;" horiz-adv-x="2088" d=" M2088,1024 Q2088,686 1958,451 Q1828,216 1606.5,94 Q1385,-28 1110,-28 Q834,-28 613,95 Q392,218 262.5,452.5 Q133,687 133,1024 Q133,1362 262.5,1597 Q392,1832 613,1954 Q834,2076 1110,2076 Q1385,2076 1606.5,1954 Q1828,1832 1958,1597 Q2088,1362 2088,1024 M1582,1024 Q1582,1224 1525.5,1362 Q1469,1500 1363.5,1571 Q1258,1642 1110,1642 Q963,1642 857,1571 Q751,1500 694.5,1362 Q638,1224 638,1024 Q638,824 694.5,686 Q751,548 857,477 Q963,406 1110,406 Q1258,406 1363.5,477 Q1469,548 1525.5,686 Q1582,824 1582,1024 M800,2243 Q706,2243 639.5,2307 Q573,2371 573,2461 Q573,2551 639.5,2614.5 Q706,2678 800,2678 Q893,2678 958.5,2614.5 Q1024,2551 1024,2461 Q1024,2371 958.5,2307 Q893,2243 800,2243 M1424,2243 Q1330,2243 1263.5,2307 Q1197,2371 1197,2461 Q1197,2551 1263.5,2614.5 Q1330,2678 1424,2678 Q1517,2678 1582.5,2614.5 Q1648,2551 1648,2461 Q1648,2371 1582.5,2307 Q1517,2243 1424,2243"/> 
            <glyph glyph-name="×" unicode="&#xD7;" horiz-adv-x="1725" d=" M1426,67 L208,1282 L507,1584 L1725,366 M507,67 L208,366 L1426,1584 L1725,1282"/> 
            <glyph glyph-name="Ø" unicode="&#xD8;" horiz-adv-x="2088" d=" M474,-103 L264,39 L1746,2147 L1955,2005 M2088,1024 Q2088,686 1958,451 Q1828,216 1606.5,94 Q1385,-28 1110,-28 Q834,-28 613,95 Q392,218 262.5,452.5 Q133,687 133,1024 Q133,1362 262.5,1597 Q392,1832 613,1954 Q834,2076 1110,2076 Q1385,2076 1606.5,1954 Q1828,1832 1958,1597 Q2088,1362 2088,1024 M1582,1024 Q1582,1224 1525.5,1362 Q1469,1500 1363.5,1571 Q1258,1642 1110,1642 Q963,1642 857,1571 Q751,1500 694.5,1362 Q638,1224 638,1024 Q638,824 694.5,686 Q751,548 857,477 Q963,406 1110,406 Q1258,406 1363.5,477 Q1469,548 1525.5,686 Q1582,824 1582,1024"/> 
            <glyph glyph-name="Ù" unicode="&#xD9;" horiz-adv-x="1888" d=" M1394,2048 L1888,2048 L1888,727 Q1888,498 1779,328.5 Q1670,159 1475,66.5 Q1280,-26 1022,-26 Q761,-26 566,66.5 Q371,159 263,328.5 Q155,498 155,727 L155,2048 L650,2048 L650,770 Q650,664 696.5,581 Q743,498 827,451 Q911,404 1022,404 Q1133,404 1216.5,451 Q1300,498 1347,581 Q1394,664 1394,770 M858,2243 L555,2694 L988,2694 L1191,2243"/> 
            <glyph glyph-name="Ú" unicode="&#xDA;" horiz-adv-x="1888" d=" M1394,2048 L1888,2048 L1888,727 Q1888,498 1779,328.5 Q1670,159 1475,66.5 Q1280,-26 1022,-26 Q761,-26 566,66.5 Q371,159 263,328.5 Q155,498 155,727 L155,2048 L650,2048 L650,770 Q650,664 696.5,581 Q743,498 827,451 Q911,404 1022,404 Q1133,404 1216.5,451 Q1300,498 1347,581 Q1394,664 1394,770 M853,2243 L1055,2694 L1488,2694 L1186,2243"/> 
            <glyph glyph-name="Û" unicode="&#xDB;" horiz-adv-x="1888" d=" M1394,2048 L1888,2048 L1888,727 Q1888,498 1779,328.5 Q1670,159 1475,66.5 Q1280,-26 1022,-26 Q761,-26 566,66.5 Q371,159 263,328.5 Q155,498 155,727 L155,2048 L650,2048 L650,770 Q650,664 696.5,581 Q743,498 827,451 Q911,404 1022,404 Q1133,404 1216.5,451 Q1300,498 1347,581 Q1394,664 1394,770 M1220,2232 L1021,2464 L823,2232 L413,2232 L413,2245 L846,2693 L1197,2693 L1629,2245 L1629,2232"/> 
            <glyph glyph-name="Ü" unicode="&#xDC;" horiz-adv-x="1888" d=" M1394,2048 L1888,2048 L1888,727 Q1888,498 1779,328.5 Q1670,159 1475,66.5 Q1280,-26 1022,-26 Q761,-26 566,66.5 Q371,159 263,328.5 Q155,498 155,727 L155,2048 L650,2048 L650,770 Q650,664 696.5,581 Q743,498 827,451 Q911,404 1022,404 Q1133,404 1216.5,451 Q1300,498 1347,581 Q1394,664 1394,770 M711,2243 Q617,2243 550.5,2307 Q484,2371 484,2461 Q484,2551 550.5,2614.5 Q617,2678 711,2678 Q804,2678 869.5,2614.5 Q935,2551 935,2461 Q935,2371 869.5,2307 Q804,2243 711,2243 M1335,2243 Q1241,2243 1174.5,2307 Q1108,2371 1108,2461 Q1108,2551 1174.5,2614.5 Q1241,2678 1335,2678 Q1428,2678 1493.5,2614.5 Q1559,2551 1559,2461 Q1559,2371 1493.5,2307 Q1428,2243 1335,2243"/> 
            <glyph glyph-name="Ý" unicode="&#xDD;" horiz-adv-x="2043" d=" M53,2048 L606,2048 L1039,1191 L1057,1191 L1490,2048 L2043,2048 L1294,684 L1294,0 L802,0 L802,684 M879,2243 L1081,2694 L1514,2694 L1212,2243"/> 
            <glyph glyph-name="Þ" unicode="&#xDE;" horiz-adv-x="1712" d=" M155,2048 L650,2048 L650,0 L155,0 M383,1688 L918,1688 Q1174,1688 1351.5,1605.5 Q1529,1523 1620.5,1379 Q1712,1235 1712,1049 Q1712,863 1620.5,719.5 Q1529,576 1351.5,494.5 Q1174,413 918,413 L383,413 L383,783 L918,783 Q1034,783 1105,821 Q1176,859 1207.5,918.5 Q1239,978 1239,1045 Q1239,1113 1207.5,1175 Q1176,1237 1105,1275.5 Q1034,1314 918,1314 L383,1314"/> 
            <glyph glyph-name="ß" unicode="&#xDF;" horiz-adv-x="1820" d=" M155,0 L155,1502 Q155,1681 246,1809.5 Q337,1938 504.5,2007 Q672,2076 898,2076 Q1107,2076 1283,2013.5 Q1459,1951 1566,1826.5 Q1673,1702 1673,1513 Q1673,1359 1597.5,1249 Q1522,1139 1387,1103 L1387,1080 Q1589,1068 1704.5,924 Q1820,780 1818,564 Q1818,379 1731,253.5 Q1644,128 1491,64 Q1338,0 1139,0 L854,0 L854,390 L1047,390 Q1131,390 1193.5,418 Q1256,446 1290,497.5 Q1324,549 1323,618 Q1322,726 1239,788.5 Q1156,851 1014,851 L862,851 L862,1219 L962,1219 Q1025,1219 1071.5,1249 Q1118,1279 1144,1329.5 Q1170,1380 1171,1442 Q1173,1544 1104.5,1609 Q1036,1674 914,1674 Q791,1674 717.5,1605 Q644,1536 644,1418 L644,0"/> 
            <glyph glyph-name="à" unicode="&#xE0;" horiz-adv-x="1506" d=" M588,-26 Q441,-26 327.5,23.5 Q214,73 148.5,173.5 Q83,274 83,426 Q83,554 128,642 Q173,730 252,785 Q331,840 434,868.5 Q537,897 654,907 Q785,919 865,932.5 Q945,946 981.5,971.5 Q1018,997 1018,1044 L1018,1049 Q1018,1126 965,1168 Q912,1210 822,1210 Q725,1210 666,1168 Q607,1126 591,1052 L140,1068 Q160,1208 243.5,1318.5 Q327,1429 473.5,1492.5 Q620,1556 826,1556 Q973,1556 1097,1521.5 Q1221,1487 1313,1421.5 Q1405,1356 1455.5,1261 Q1506,1166 1506,1044 L1506,0 L1046,0 L1046,214 L1034,214 Q993,136 929.5,82 Q866,28 780.5,1 Q695,-26 588,-26 M739,294 Q818,294 881.5,326 Q945,358 983,414.5 Q1021,471 1021,546 L1021,692 Q1000,681 970.5,672 Q941,663 906,655 Q871,647 834,641 Q797,635 763,630 Q694,619 645.5,596 Q597,573 571.5,536.5 Q546,500 546,450 Q546,374 600.5,334 Q655,294 739,294 M935,1731 L632,2182 L1065,2182 L1268,1731"/> 
            <glyph glyph-name="á" unicode="&#xE1;" horiz-adv-x="1506" d=" M588,-26 Q441,-26 327.5,23.5 Q214,73 148.5,173.5 Q83,274 83,426 Q83,554 128,642 Q173,730 252,785 Q331,840 434,868.5 Q537,897 654,907 Q785,919 865,932.5 Q945,946 981.5,971.5 Q1018,997 1018,1044 L1018,1049 Q1018,1126 965,1168 Q912,1210 822,1210 Q725,1210 666,1168 Q607,1126 591,1052 L140,1068 Q160,1208 243.5,1318.5 Q327,1429 473.5,1492.5 Q620,1556 826,1556 Q973,1556 1097,1521.5 Q1221,1487 1313,1421.5 Q1405,1356 1455.5,1261 Q1506,1166 1506,1044 L1506,0 L1046,0 L1046,214 L1034,214 Q993,136 929.5,82 Q866,28 780.5,1 Q695,-26 588,-26 M739,294 Q818,294 881.5,326 Q945,358 983,414.5 Q1021,471 1021,546 L1021,692 Q1000,681 970.5,672 Q941,663 906,655 Q871,647 834,641 Q797,635 763,630 Q694,619 645.5,596 Q597,573 571.5,536.5 Q546,500 546,450 Q546,374 600.5,334 Q655,294 739,294 M674,1731 L876,2182 L1309,2182 L1007,1731"/> 
            <glyph glyph-name="â" unicode="&#xE2;" horiz-adv-x="1506" d=" M588,-26 Q441,-26 327.5,23.5 Q214,73 148.5,173.5 Q83,274 83,426 Q83,554 128,642 Q173,730 252,785 Q331,840 434,868.5 Q537,897 654,907 Q785,919 865,932.5 Q945,946 981.5,971.5 Q1018,997 1018,1044 L1018,1049 Q1018,1126 965,1168 Q912,1210 822,1210 Q725,1210 666,1168 Q607,1126 591,1052 L140,1068 Q160,1208 243.5,1318.5 Q327,1429 473.5,1492.5 Q620,1556 826,1556 Q973,1556 1097,1521.5 Q1221,1487 1313,1421.5 Q1405,1356 1455.5,1261 Q1506,1166 1506,1044 L1506,0 L1046,0 L1046,214 L1034,214 Q993,136 929.5,82 Q866,28 780.5,1 Q695,-26 588,-26 M739,294 Q818,294 881.5,326 Q945,358 983,414.5 Q1021,471 1021,546 L1021,692 Q1000,681 970.5,672 Q941,663 906,655 Q871,647 834,641 Q797,635 763,630 Q694,619 645.5,596 Q597,573 571.5,536.5 Q546,500 546,450 Q546,374 600.5,334 Q655,294 739,294 M1041,1720 L842,1952 L644,1720 L234,1720 L234,1733 L667,2181 L1018,2181 L1450,1733 L1450,1720"/> 
            <glyph glyph-name="ã" unicode="&#xE3;" horiz-adv-x="1506" d=" M588,-26 Q441,-26 327.5,23.5 Q214,73 148.5,173.5 Q83,274 83,426 Q83,554 128,642 Q173,730 252,785 Q331,840 434,868.5 Q537,897 654,907 Q785,919 865,932.5 Q945,946 981.5,971.5 Q1018,997 1018,1044 L1018,1049 Q1018,1126 965,1168 Q912,1210 822,1210 Q725,1210 666,1168 Q607,1126 591,1052 L140,1068 Q160,1208 243.5,1318.5 Q327,1429 473.5,1492.5 Q620,1556 826,1556 Q973,1556 1097,1521.5 Q1221,1487 1313,1421.5 Q1405,1356 1455.5,1261 Q1506,1166 1506,1044 L1506,0 L1046,0 L1046,214 L1034,214 Q993,136 929.5,82 Q866,28 780.5,1 Q695,-26 588,-26 M739,294 Q818,294 881.5,326 Q945,358 983,414.5 Q1021,471 1021,546 L1021,692 Q1000,681 970.5,672 Q941,663 906,655 Q871,647 834,641 Q797,635 763,630 Q694,619 645.5,596 Q597,573 571.5,536.5 Q546,500 546,450 Q546,374 600.5,334 Q655,294 739,294 M563,1726 L308,1728 Q308,1931 405,2035 Q502,2139 641,2140 Q715,2140 767.5,2116.5 Q820,2093 860.5,2061.5 Q901,2030 936.5,2006.5 Q972,1983 1012,1983 Q1069,1984 1096.5,2025.5 Q1124,2067 1125,2138 L1376,2135 Q1373,1934 1277,1828.5 Q1181,1723 1043,1722 Q967,1721 914,1745 Q861,1769 822.5,1800 Q784,1831 749,1854.5 Q714,1878 672,1878 Q623,1878 593,1838.5 Q563,1799 563,1726"/> 
            <glyph glyph-name="ä" unicode="&#xE4;" horiz-adv-x="1506" d=" M588,-26 Q441,-26 327.5,23.5 Q214,73 148.5,173.5 Q83,274 83,426 Q83,554 128,642 Q173,730 252,785 Q331,840 434,868.5 Q537,897 654,907 Q785,919 865,932.5 Q945,946 981.5,971.5 Q1018,997 1018,1044 L1018,1049 Q1018,1126 965,1168 Q912,1210 822,1210 Q725,1210 666,1168 Q607,1126 591,1052 L140,1068 Q160,1208 243.5,1318.5 Q327,1429 473.5,1492.5 Q620,1556 826,1556 Q973,1556 1097,1521.5 Q1221,1487 1313,1421.5 Q1405,1356 1455.5,1261 Q1506,1166 1506,1044 L1506,0 L1046,0 L1046,214 L1034,214 Q993,136 929.5,82 Q866,28 780.5,1 Q695,-26 588,-26 M739,294 Q818,294 881.5,326 Q945,358 983,414.5 Q1021,471 1021,546 L1021,692 Q1000,681 970.5,672 Q941,663 906,655 Q871,647 834,641 Q797,635 763,630 Q694,619 645.5,596 Q597,573 571.5,536.5 Q546,500 546,450 Q546,374 600.5,334 Q655,294 739,294 M532,1731 Q438,1731 371.5,1795 Q305,1859 305,1949 Q305,2039 371.5,2102.5 Q438,2166 532,2166 Q625,2166 690.5,2102.5 Q756,2039 756,1949 Q756,1859 690.5,1795 Q625,1731 532,1731 M1156,1731 Q1062,1731 995.5,1795 Q929,1859 929,1949 Q929,2039 995.5,2102.5 Q1062,2166 1156,2166 Q1249,2166 1314.5,2102.5 Q1380,2039 1380,1949 Q1380,1859 1314.5,1795 Q1249,1731 1156,1731"/> 
            <glyph glyph-name="å" unicode="&#xE5;" horiz-adv-x="1506" d=" M588,-26 Q441,-26 327.5,23.5 Q214,73 148.5,173.5 Q83,274 83,426 Q83,554 128,642 Q173,730 252,785 Q331,840 434,868.5 Q537,897 654,907 Q785,919 865,932.5 Q945,946 981.5,971.5 Q1018,997 1018,1044 L1018,1049 Q1018,1126 965,1168 Q912,1210 822,1210 Q725,1210 666,1168 Q607,1126 591,1052 L140,1068 Q160,1208 243.5,1318.5 Q327,1429 473.5,1492.5 Q620,1556 826,1556 Q973,1556 1097,1521.5 Q1221,1487 1313,1421.5 Q1405,1356 1455.5,1261 Q1506,1166 1506,1044 L1506,0 L1046,0 L1046,214 L1034,214 Q993,136 929.5,82 Q866,28 780.5,1 Q695,-26 588,-26 M739,294 Q818,294 881.5,326 Q945,358 983,414.5 Q1021,471 1021,546 L1021,692 Q1000,681 970.5,672 Q941,663 906,655 Q871,647 834,641 Q797,635 763,630 Q694,619 645.5,596 Q597,573 571.5,536.5 Q546,500 546,450 Q546,374 600.5,334 Q655,294 739,294 M842,1698 Q750,1698 674,1742 Q598,1786 552.5,1859.5 Q507,1933 507,2022 Q507,2112 552.5,2186 Q598,2260 674,2304.5 Q750,2349 842,2349 Q935,2349 1011,2304.5 Q1087,2260 1132,2186 Q1177,2112 1177,2022 Q1177,1933 1132,1859.5 Q1087,1786 1011,1742 Q935,1698 842,1698 M842,1886 Q903,1886 944.5,1926.5 Q986,1967 986,2022 Q986,2078 944.5,2120 Q903,2162 842,2161 Q782,2160 740,2119 Q698,2078 698,2022 Q698,1967 740,1926 Q782,1885 842,1886"/> 
            <glyph glyph-name="æ" unicode="&#xE6;" horiz-adv-x="2466" d=" M1773,-29 Q1572,-29 1414.5,53.5 Q1257,136 1192,298 L1159,1248 Q1261,1412 1401.5,1484 Q1542,1556 1723,1556 Q1886,1556 2022.5,1505 Q2159,1454 2258,1354 Q2357,1254 2411.5,1107.5 Q2466,961 2466,772 L2466,650 L1174,650 L1174,934 L2012,934 Q2010,1012 1974,1073 Q1938,1134 1875.5,1168.5 Q1813,1203 1733,1203 Q1650,1203 1585,1166.5 Q1520,1130 1482.5,1067 Q1445,1004 1443,926 L1443,637 Q1443,543 1480,472.5 Q1517,402 1585,363 Q1653,324 1747,324 Q1811,324 1864.5,342 Q1918,360 1956,395 Q1994,430 2013,481 L2462,468 Q2434,317 2339,205.5 Q2244,94 2099,32.5 Q1954,-29 1773,-29 M739,294 Q818,294 881.5,326 Q945,358 983,414.5 Q1021,471 1021,546 L1021,692 Q1000,681 970.5,672 Q941,663 906,655 Q871,647 834,641 Q797,635 763,630 Q694,619 645.5,596 Q597,573 571.5,536.5 Q546,500 546,450 Q546,374 600.5,334 Q655,294 739,294 M620,-26 Q457,-26 336,23.5 Q215,73 149,174 Q83,275 83,426 Q83,554 128,641.5 Q173,729 252.5,784 Q332,839 435,868 Q538,897 654,907 Q786,919 865.5,933 Q945,947 981.5,972.5 Q1018,998 1018,1044 L1018,1049 Q1018,1127 965,1168.5 Q912,1210 822,1210 Q726,1210 666,1168 Q606,1126 591,1052 L140,1068 Q160,1208 243.5,1318.5 Q327,1429 474.5,1492.5 Q622,1556 836,1556 Q910,1556 977,1542.5 Q1044,1529 1102.5,1501.5 Q1161,1474 1205.5,1430 Q1250,1386 1277,1326 L1239,242 L1210,242 Q1165,156 1075.5,96 Q986,36 868,5 Q750,-26 620,-26"/> 
            <glyph glyph-name="ç" unicode="&#xE7;" horiz-adv-x="1585" d=" M872,-29 Q629,-29 455.5,71 Q282,171 189,349.5 Q96,528 96,763 Q96,999 189.5,1177.5 Q283,1356 456.5,1456 Q630,1556 871,1556 Q1084,1556 1242.5,1479 Q1401,1402 1490.5,1261.5 Q1580,1121 1585,932 L1128,932 Q1114,1050 1048.5,1117 Q983,1184 878,1184 Q793,1184 729,1136.5 Q665,1089 629.5,996.5 Q594,904 594,768 Q594,632 629.5,538.5 Q665,445 729,397.5 Q793,350 878,350 Q946,350 998.5,379 Q1051,408 1085,464.5 Q1119,521 1128,602 L1585,602 Q1578,412 1490.5,270 Q1403,128 1245.5,49.5 Q1088,-29 872,-29 M776,8 L972,8 L956,-82 Q1066,-98 1132,-161.5 Q1198,-225 1199,-327 Q1200,-483 1050.5,-573.5 Q901,-664 635,-664 L633,-463 Q770,-463 845,-432 Q920,-401 923,-338 Q926,-280 878,-245.5 Q830,-211 729,-198"/> 
            <glyph glyph-name="è" unicode="&#xE8;" horiz-adv-x="1602" d=" M873,-29 Q632,-29 457.5,66.5 Q283,162 189.5,339.5 Q96,517 96,762 Q96,1000 190,1178.5 Q284,1357 455,1456.5 Q626,1556 858,1556 Q1022,1556 1158,1505 Q1294,1454 1393,1354 Q1492,1254 1547,1107.5 Q1602,961 1602,772 L1602,650 L267,650 L267,934 L1147,934 Q1146,1012 1110,1073 Q1074,1134 1011.5,1168.5 Q949,1203 868,1203 Q786,1203 721,1166.5 Q656,1130 618,1067.5 Q580,1005 578,926 L578,637 Q578,543 615,472.5 Q652,402 720,363 Q788,324 882,324 Q947,324 1000,342 Q1053,360 1091,395 Q1129,430 1148,481 L1597,468 Q1569,317 1474.5,205.5 Q1380,94 1227,32.5 Q1074,-29 873,-29 M686,1731 L383,2182 L816,2182 L1019,1731"/> 
            <glyph glyph-name="é" unicode="&#xE9;" horiz-adv-x="1602" d=" M873,-29 Q632,-29 457.5,66.5 Q283,162 189.5,339.5 Q96,517 96,762 Q96,1000 190,1178.5 Q284,1357 455,1456.5 Q626,1556 858,1556 Q1022,1556 1158,1505 Q1294,1454 1393,1354 Q1492,1254 1547,1107.5 Q1602,961 1602,772 L1602,650 L267,650 L267,934 L1147,934 Q1146,1012 1110,1073 Q1074,1134 1011.5,1168.5 Q949,1203 868,1203 Q786,1203 721,1166.5 Q656,1130 618,1067.5 Q580,1005 578,926 L578,637 Q578,543 615,472.5 Q652,402 720,363 Q788,324 882,324 Q947,324 1000,342 Q1053,360 1091,395 Q1129,430 1148,481 L1597,468 Q1569,317 1474.5,205.5 Q1380,94 1227,32.5 Q1074,-29 873,-29 M681,1731 L883,2182 L1316,2182 L1014,1731"/> 
            <glyph glyph-name="ê" unicode="&#xEA;" horiz-adv-x="1602" d=" M873,-29 Q632,-29 457.5,66.5 Q283,162 189.5,339.5 Q96,517 96,762 Q96,1000 190,1178.5 Q284,1357 455,1456.5 Q626,1556 858,1556 Q1022,1556 1158,1505 Q1294,1454 1393,1354 Q1492,1254 1547,1107.5 Q1602,961 1602,772 L1602,650 L267,650 L267,934 L1147,934 Q1146,1012 1110,1073 Q1074,1134 1011.5,1168.5 Q949,1203 868,1203 Q786,1203 721,1166.5 Q656,1130 618,1067.5 Q580,1005 578,926 L578,637 Q578,543 615,472.5 Q652,402 720,363 Q788,324 882,324 Q947,324 1000,342 Q1053,360 1091,395 Q1129,430 1148,481 L1597,468 Q1569,317 1474.5,205.5 Q1380,94 1227,32.5 Q1074,-29 873,-29 M1048,1720 L849,1952 L651,1720 L241,1720 L241,1733 L674,2181 L1025,2181 L1457,1733 L1457,1720"/> 
            <glyph glyph-name="ë" unicode="&#xEB;" horiz-adv-x="1602" d=" M873,-29 Q632,-29 457.5,66.5 Q283,162 189.5,339.5 Q96,517 96,762 Q96,1000 190,1178.5 Q284,1357 455,1456.5 Q626,1556 858,1556 Q1022,1556 1158,1505 Q1294,1454 1393,1354 Q1492,1254 1547,1107.5 Q1602,961 1602,772 L1602,650 L267,650 L267,934 L1147,934 Q1146,1012 1110,1073 Q1074,1134 1011.5,1168.5 Q949,1203 868,1203 Q786,1203 721,1166.5 Q656,1130 618,1067.5 Q580,1005 578,926 L578,637 Q578,543 615,472.5 Q652,402 720,363 Q788,324 882,324 Q947,324 1000,342 Q1053,360 1091,395 Q1129,430 1148,481 L1597,468 Q1569,317 1474.5,205.5 Q1380,94 1227,32.5 Q1074,-29 873,-29 M539,1731 Q445,1731 378.5,1795 Q312,1859 312,1949 Q312,2039 378.5,2102.5 Q445,2166 539,2166 Q632,2166 697.5,2102.5 Q763,2039 763,1949 Q763,1859 697.5,1795 Q632,1731 539,1731 M1163,1731 Q1069,1731 1002.5,1795 Q936,1859 936,1949 Q936,2039 1002.5,2102.5 Q1069,2166 1163,2166 Q1256,2166 1321.5,2102.5 Q1387,2039 1387,1949 Q1387,1859 1321.5,1795 Q1256,1731 1163,1731"/> 
            <glyph glyph-name="ì" unicode="&#xEC;" horiz-adv-x="644" d=" M155,0 L155,1536 L644,1536 L644,0 M65772,1731 L65469,2182 L65902,2182 L66105,1731"/> 
            <glyph glyph-name="í" unicode="&#xED;" horiz-adv-x="866" d=" M155,0 L155,1536 L644,1536 L644,0 M65767,1731 L65969,2182 L66402,2182 L66100,1731"/> 
            <glyph glyph-name="î" unicode="&#xEE;" horiz-adv-x="1008" d=" M155,0 L155,1536 L644,1536 L644,0 M66135,1720 L65936,1952 L65738,1720 L65328,1720 L65328,1733 L65761,2181 L66112,2181 L66544,1733 L66544,1720"/> 
            <glyph glyph-name="ï" unicode="&#xEF;" horiz-adv-x="938" d=" M155,0 L155,1536 L644,1536 L644,0 M90,1731 Q-5,1731 -71.5,1795 Q-138,1859 -138,1949 Q-138,2039 -71.5,2102.5 Q-5,2166 90,2166 Q183,2166 248.5,2102.5 Q314,2039 314,1949 Q314,1859 248.5,1795 Q183,1731 90,1731 M714,1731 Q619,1731 552.5,1795 Q486,1859 486,1949 Q486,2039 552.5,2102.5 Q619,2166 714,2166 Q807,2166 872.5,2102.5 Q938,2039 938,1949 Q938,1859 872.5,1795 Q807,1731 714,1731"/> 
            <glyph glyph-name="ð" unicode="&#xF0;" horiz-adv-x="1611" d=" M1302,1922 L326,1418 L312,1626 L1289,2131 M845,-32 Q620,-32 451.5,60 Q283,152 189.5,318 Q96,484 96,704 Q96,903 173.5,1064.5 Q251,1226 392.5,1321 Q534,1416 724,1416 Q810,1416 881,1395 Q952,1374 1009,1339 Q1066,1304 1107,1260 L1129,1260 Q1057,1408 925.5,1534 Q794,1660 634,1756 Q474,1852 315,1909 L336,2155 Q585,2110 814,1997 Q1043,1884 1222.5,1709.5 Q1402,1535 1506.5,1306 Q1611,1077 1611,800 Q1611,550 1518.5,362.5 Q1426,175 1254.5,71.5 Q1083,-32 845,-32 M859,332 Q952,332 1020,381 Q1088,430 1124.5,520.5 Q1161,611 1161,734 Q1161,849 1128,937.5 Q1095,1026 1027.5,1076 Q960,1126 859,1126 Q760,1126 693,1077.5 Q626,1029 592.5,942 Q559,855 559,738 Q559,616 594.5,525 Q630,434 697,383 Q764,332 859,332"/> 
            <glyph glyph-name="ñ" unicode="&#xF1;" horiz-adv-x="1638" d=" M644,876 L644,0 L155,0 L155,1536 L620,1536 L620,1254 L637,1254 Q688,1395 811,1475.5 Q934,1556 1104,1556 Q1266,1556 1385.5,1483.5 Q1505,1411 1571.5,1281.5 Q1638,1152 1637,979 L1637,0 L1148,0 L1148,883 Q1149,1011 1083.5,1083 Q1018,1155 902,1155 Q825,1155 766.5,1121.5 Q708,1088 676.5,1026 Q645,964 644,876 M615,1726 L360,1728 Q360,1931 457,2035 Q554,2139 693,2140 Q767,2140 819.5,2116.5 Q872,2093 912.5,2061.5 Q953,2030 988.5,2006.5 Q1024,1983 1064,1983 Q1121,1984 1148.5,2025.5 Q1176,2067 1177,2138 L1428,2135 Q1425,1934 1329,1828.5 Q1233,1723 1095,1722 Q1019,1721 966,1745 Q913,1769 874.5,1800 Q836,1831 801,1854.5 Q766,1878 724,1878 Q675,1878 645,1838.5 Q615,1799 615,1726"/> 
            <glyph glyph-name="ò" unicode="&#xF2;" horiz-adv-x="1648" d=" M872,-29 Q630,-29 456.5,70.5 Q283,170 189.5,348.5 Q96,527 96,763 Q96,1000 189.5,1178.5 Q283,1357 456.5,1456.5 Q630,1556 872,1556 Q1114,1556 1287.5,1456.5 Q1461,1357 1554.5,1178.5 Q1648,1000 1648,763 Q1648,527 1554.5,348.5 Q1461,170 1287.5,70.5 Q1114,-29 872,-29 M875,340 Q963,340 1024,394 Q1085,448 1117.5,544 Q1150,640 1150,766 Q1150,894 1117.5,990 Q1085,1086 1024,1140 Q963,1194 875,1194 Q784,1194 721.5,1140 Q659,1086 626.5,990 Q594,894 594,766 Q594,640 626.5,544 Q659,448 721.5,394 Q784,340 875,340 M708,1731 L405,2182 L838,2182 L1041,1731"/> 
            <glyph glyph-name="ó" unicode="&#xF3;" horiz-adv-x="1648" d=" M872,-29 Q630,-29 456.5,70.5 Q283,170 189.5,348.5 Q96,527 96,763 Q96,1000 189.5,1178.5 Q283,1357 456.5,1456.5 Q630,1556 872,1556 Q1114,1556 1287.5,1456.5 Q1461,1357 1554.5,1178.5 Q1648,1000 1648,763 Q1648,527 1554.5,348.5 Q1461,170 1287.5,70.5 Q1114,-29 872,-29 M875,340 Q963,340 1024,394 Q1085,448 1117.5,544 Q1150,640 1150,766 Q1150,894 1117.5,990 Q1085,1086 1024,1140 Q963,1194 875,1194 Q784,1194 721.5,1140 Q659,1086 626.5,990 Q594,894 594,766 Q594,640 626.5,544 Q659,448 721.5,394 Q784,340 875,340 M703,1731 L905,2182 L1338,2182 L1036,1731"/> 
            <glyph glyph-name="ô" unicode="&#xF4;" horiz-adv-x="1648" d=" M872,-29 Q630,-29 456.5,70.5 Q283,170 189.5,348.5 Q96,527 96,763 Q96,1000 189.5,1178.5 Q283,1357 456.5,1456.5 Q630,1556 872,1556 Q1114,1556 1287.5,1456.5 Q1461,1357 1554.5,1178.5 Q1648,1000 1648,763 Q1648,527 1554.5,348.5 Q1461,170 1287.5,70.5 Q1114,-29 872,-29 M875,340 Q963,340 1024,394 Q1085,448 1117.5,544 Q1150,640 1150,766 Q1150,894 1117.5,990 Q1085,1086 1024,1140 Q963,1194 875,1194 Q784,1194 721.5,1140 Q659,1086 626.5,990 Q594,894 594,766 Q594,640 626.5,544 Q659,448 721.5,394 Q784,340 875,340 M1071,1720 L872,1952 L674,1720 L264,1720 L264,1733 L697,2181 L1048,2181 L1480,1733 L1480,1720"/> 
            <glyph glyph-name="õ" unicode="&#xF5;" horiz-adv-x="1648" d=" M872,-29 Q630,-29 456.5,70.5 Q283,170 189.5,348.5 Q96,527 96,763 Q96,1000 189.5,1178.5 Q283,1357 456.5,1456.5 Q630,1556 872,1556 Q1114,1556 1287.5,1456.5 Q1461,1357 1554.5,1178.5 Q1648,1000 1648,763 Q1648,527 1554.5,348.5 Q1461,170 1287.5,70.5 Q1114,-29 872,-29 M875,340 Q963,340 1024,394 Q1085,448 1117.5,544 Q1150,640 1150,766 Q1150,894 1117.5,990 Q1085,1086 1024,1140 Q963,1194 875,1194 Q784,1194 721.5,1140 Q659,1086 626.5,990 Q594,894 594,766 Q594,640 626.5,544 Q659,448 721.5,394 Q784,340 875,340 M593,1726 L338,1728 Q338,1931 435,2035 Q532,2139 671,2140 Q745,2140 797.5,2116.5 Q850,2093 890.5,2061.5 Q931,2030 966.5,2006.5 Q1002,1983 1042,1983 Q1099,1984 1126.5,2025.5 Q1154,2067 1155,2138 L1406,2135 Q1403,1934 1307,1828.5 Q1211,1723 1073,1722 Q997,1721 944,1745 Q891,1769 852.5,1800 Q814,1831 779,1854.5 Q744,1878 702,1878 Q653,1878 623,1838.5 Q593,1799 593,1726"/> 
            <glyph glyph-name="ö" unicode="&#xF6;" horiz-adv-x="1648" d=" M872,-29 Q630,-29 456.5,70.5 Q283,170 189.5,348.5 Q96,527 96,763 Q96,1000 189.5,1178.5 Q283,1357 456.5,1456.5 Q630,1556 872,1556 Q1114,1556 1287.5,1456.5 Q1461,1357 1554.5,1178.5 Q1648,1000 1648,763 Q1648,527 1554.5,348.5 Q1461,170 1287.5,70.5 Q1114,-29 872,-29 M875,340 Q963,340 1024,394 Q1085,448 1117.5,544 Q1150,640 1150,766 Q1150,894 1117.5,990 Q1085,1086 1024,1140 Q963,1194 875,1194 Q784,1194 721.5,1140 Q659,1086 626.5,990 Q594,894 594,766 Q594,640 626.5,544 Q659,448 721.5,394 Q784,340 875,340 M562,1731 Q467,1731 400.5,1795 Q334,1859 334,1949 Q334,2039 400.5,2102.5 Q467,2166 562,2166 Q655,2166 720.5,2102.5 Q786,2039 786,1949 Q786,1859 720.5,1795 Q655,1731 562,1731 M1186,1731 Q1091,1731 1024.5,1795 Q958,1859 958,1949 Q958,2039 1024.5,2102.5 Q1091,2166 1186,2166 Q1279,2166 1344.5,2102.5 Q1410,2039 1410,1949 Q1410,1859 1344.5,1795 Q1279,1731 1186,1731"/> 
            <glyph glyph-name="÷" unicode="&#xF7;" horiz-adv-x="1686" d=" M1686,1014 L1686,637 L246,637 L246,1014 M966,-5 Q857,-5 780,72 Q703,149 703,258 Q703,366 780,442 Q857,518 966,518 Q1074,518 1150,442 Q1226,366 1226,258 Q1226,149 1150,72 Q1074,-5 966,-5 M966,1134 Q894,1134 834,1169.5 Q774,1205 738.5,1264.5 Q703,1324 703,1397 Q703,1505 780.5,1580.5 Q858,1656 966,1656 Q1074,1656 1150,1580.5 Q1226,1505 1226,1397 Q1226,1288 1150,1211 Q1074,1134 966,1134"/> 
            <glyph glyph-name="ø" unicode="&#xF8;" horiz-adv-x="1648" d=" M418,-103 L209,39 L1322,1627 L1535,1485 M872,-32 Q630,-32 456.5,67.5 Q283,167 189.5,345.5 Q96,524 96,760 Q96,997 189.5,1175.5 Q283,1354 456.5,1453.5 Q630,1553 872,1553 Q1114,1553 1287.5,1453.5 Q1461,1354 1554.5,1175.5 Q1648,997 1648,760 Q1648,524 1554.5,345.5 Q1461,167 1287.5,67.5 Q1114,-32 872,-32 M875,337 Q963,337 1024,390.5 Q1085,444 1117.5,540 Q1150,636 1150,763 Q1150,891 1117.5,986.5 Q1085,1082 1024,1136 Q963,1190 875,1190 Q784,1190 721.5,1136 Q659,1082 626.5,986.5 Q594,891 594,763 Q594,636 626.5,540 Q659,444 721.5,390.5 Q784,337 875,337"/> 
            <glyph glyph-name="ù" unicode="&#xF9;" horiz-adv-x="1634" d=" M1146,663 L1146,1536 L1634,1536 L1634,0 L1168,0 L1168,286 L1152,286 Q1101,145 978.5,62.5 Q856,-20 683,-20 Q526,-20 407,52 Q288,124 222,253.5 Q156,383 155,557 L155,1536 L644,1536 L644,653 Q645,528 710,456 Q775,384 887,384 Q960,384 1018.5,416.5 Q1077,449 1111.5,511.5 Q1146,574 1146,663 M733,1731 L430,2182 L863,2182 L1066,1731"/> 
            <glyph glyph-name="ú" unicode="&#xFA;" horiz-adv-x="1634" d=" M1146,663 L1146,1536 L1634,1536 L1634,0 L1168,0 L1168,286 L1152,286 Q1101,145 978.5,62.5 Q856,-20 683,-20 Q526,-20 407,52 Q288,124 222,253.5 Q156,383 155,557 L155,1536 L644,1536 L644,653 Q645,528 710,456 Q775,384 887,384 Q960,384 1018.5,416.5 Q1077,449 1111.5,511.5 Q1146,574 1146,663 M728,1731 L930,2182 L1363,2182 L1061,1731"/> 
            <glyph glyph-name="û" unicode="&#xFB;" horiz-adv-x="1634" d=" M1146,663 L1146,1536 L1634,1536 L1634,0 L1168,0 L1168,286 L1152,286 Q1101,145 978.5,62.5 Q856,-20 683,-20 Q526,-20 407,52 Q288,124 222,253.5 Q156,383 155,557 L155,1536 L644,1536 L644,653 Q645,528 710,456 Q775,384 887,384 Q960,384 1018.5,416.5 Q1077,449 1111.5,511.5 Q1146,574 1146,663 M1095,1720 L896,1952 L698,1720 L288,1720 L288,1733 L721,2181 L1072,2181 L1504,1733 L1504,1720"/> 
            <glyph glyph-name="ü" unicode="&#xFC;" horiz-adv-x="1634" d=" M1146,663 L1146,1536 L1634,1536 L1634,0 L1168,0 L1168,286 L1152,286 Q1101,145 978.5,62.5 Q856,-20 683,-20 Q526,-20 407,52 Q288,124 222,253.5 Q156,383 155,557 L155,1536 L644,1536 L644,653 Q645,528 710,456 Q775,384 887,384 Q960,384 1018.5,416.5 Q1077,449 1111.5,511.5 Q1146,574 1146,663 M586,1731 Q492,1731 425.5,1795 Q359,1859 359,1949 Q359,2039 425.5,2102.5 Q492,2166 586,2166 Q679,2166 744.5,2102.5 Q810,2039 810,1949 Q810,1859 744.5,1795 Q679,1731 586,1731 M1210,1731 Q1116,1731 1049.5,1795 Q983,1859 983,1949 Q983,2039 1049.5,2102.5 Q1116,2166 1210,2166 Q1303,2166 1368.5,2102.5 Q1434,2039 1434,1949 Q1434,1859 1368.5,1795 Q1303,1731 1210,1731"/> 
            <glyph glyph-name="ý" unicode="&#xFD;" horiz-adv-x="1645" d=" M454,-576 Q366,-576 288,-562.5 Q210,-549 154,-527 L262,-172 Q334,-196 392.5,-200 Q451,-204 493.5,-181.5 Q536,-159 559,-102 L578,-56 L32,1536 L544,1536 L827,440 L843,440 L1130,1536 L1645,1536 L1066,-147 Q1024,-273 947.5,-369.5 Q871,-466 750.5,-521 Q630,-576 454,-576 M667,1731 L869,2182 L1302,2182 L1000,1731"/> 
            <glyph glyph-name="þ" unicode="&#xFE;" horiz-adv-x="1627" d=" M155,2048 L644,2048 L644,1284 L466,739 L644,307 L644,-576 L155,-576 M449,1382 L661,1382 Q688,1439 738.5,1478 Q789,1517 859.5,1536.5 Q930,1556 1015,1556 Q1173,1556 1312.5,1472 Q1452,1388 1539.5,1213 Q1627,1038 1626,767 Q1627,504 1543,328.5 Q1459,153 1319.5,65.5 Q1180,-22 1013,-22 Q933,-22 863,-4.5 Q793,13 741,50 Q689,87 661,146 L449,146 M1166,768 Q1167,898 1133.5,989 Q1100,1080 1033.5,1127 Q967,1174 866,1174 Q759,1174 698.5,1119 Q638,1064 614,971.5 Q590,879 589,768 Q590,660 613,566.5 Q636,473 696,416 Q756,359 866,359 Q966,359 1033,407 Q1100,455 1133.5,546.5 Q1167,638 1166,768"/> 
            <glyph glyph-name="ÿ" unicode="&#xFF;" horiz-adv-x="1645" d=" M454,-576 Q366,-576 288,-562.5 Q210,-549 154,-527 L262,-172 Q334,-196 392.5,-200 Q451,-204 493.5,-181.5 Q536,-159 559,-102 L578,-56 L32,1536 L544,1536 L827,440 L843,440 L1130,1536 L1645,1536 L1066,-147 Q1024,-273 947.5,-369.5 Q871,-466 750.5,-521 Q630,-576 454,-576 M525,1731 Q431,1731 364.5,1795 Q298,1859 298,1949 Q298,2039 364.5,2102.5 Q431,2166 525,2166 Q618,2166 683.5,2102.5 Q749,2039 749,1949 Q749,1859 683.5,1795 Q618,1731 525,1731 M1149,1731 Q1055,1731 988.5,1795 Q922,1859 922,1949 Q922,2039 988.5,2102.5 Q1055,2166 1149,2166 Q1242,2166 1307.5,2102.5 Q1373,2039 1373,1949 Q1373,1859 1307.5,1795 Q1242,1731 1149,1731"/> 
            <glyph glyph-name="Ā" unicode="&#x100;" horiz-adv-x="2107" d=" M598,0 L66,0 L757,2048 L1416,2048 L2107,0 L1575,0 L1094,1532 L1078,1532 M527,806 L1639,806 L1639,430 L527,430 M1580,2560 L1580,2318 L593,2318 L593,2560"/> 
            <glyph glyph-name="ā" unicode="&#x101;" horiz-adv-x="1506" d=" M588,-26 Q441,-26 327.5,23.5 Q214,73 148.5,173.5 Q83,274 83,426 Q83,554 128,642 Q173,730 252,785 Q331,840 434,868.5 Q537,897 654,907 Q785,919 865,932.5 Q945,946 981.5,971.5 Q1018,997 1018,1044 L1018,1049 Q1018,1126 965,1168 Q912,1210 822,1210 Q725,1210 666,1168 Q607,1126 591,1052 L140,1068 Q160,1208 243.5,1318.5 Q327,1429 473.5,1492.5 Q620,1556 826,1556 Q973,1556 1097,1521.5 Q1221,1487 1313,1421.5 Q1405,1356 1455.5,1261 Q1506,1166 1506,1044 L1506,0 L1046,0 L1046,214 L1034,214 Q993,136 929.5,82 Q866,28 780.5,1 Q695,-26 588,-26 M739,294 Q818,294 881.5,326 Q945,358 983,414.5 Q1021,471 1021,546 L1021,692 Q1000,681 970.5,672 Q941,663 906,655 Q871,647 834,641 Q797,635 763,630 Q694,619 645.5,596 Q597,573 571.5,536.5 Q546,500 546,450 Q546,374 600.5,334 Q655,294 739,294 M1592,2048 L1592,1806 L605,1806 L605,2048"/> 
            <glyph glyph-name="Ă" unicode="&#x102;" horiz-adv-x="2107" d=" M598,0 L66,0 L757,2048 L1416,2048 L2107,0 L1575,0 L1094,1532 L1078,1532 M527,806 L1639,806 L1639,430 L527,430 M1286,2592 L1608,2592 Q1607,2404 1466.5,2290 Q1326,2176 1086,2176 Q846,2176 705.5,2290 Q565,2404 566,2592 L885,2592 Q884,2526 930,2472 Q976,2418 1086,2418 Q1193,2418 1239,2471 Q1285,2524 1286,2592"/> 
            <glyph glyph-name="ă" unicode="&#x103;" horiz-adv-x="1506" d=" M588,-26 Q441,-26 327.5,23.5 Q214,73 148.5,173.5 Q83,274 83,426 Q83,554 128,642 Q173,730 252,785 Q331,840 434,868.5 Q537,897 654,907 Q785,919 865,932.5 Q945,946 981.5,971.5 Q1018,997 1018,1044 L1018,1049 Q1018,1126 965,1168 Q912,1210 822,1210 Q725,1210 666,1168 Q607,1126 591,1052 L140,1068 Q160,1208 243.5,1318.5 Q327,1429 473.5,1492.5 Q620,1556 826,1556 Q973,1556 1097,1521.5 Q1221,1487 1313,1421.5 Q1405,1356 1455.5,1261 Q1506,1166 1506,1044 L1506,0 L1046,0 L1046,214 L1034,214 Q993,136 929.5,82 Q866,28 780.5,1 Q695,-26 588,-26 M739,294 Q818,294 881.5,326 Q945,358 983,414.5 Q1021,471 1021,546 L1021,692 Q1000,681 970.5,672 Q941,663 906,655 Q871,647 834,641 Q797,635 763,630 Q694,619 645.5,596 Q597,573 571.5,536.5 Q546,500 546,450 Q546,374 600.5,334 Q655,294 739,294 M1042,2080 L1364,2080 Q1363,1892 1222.5,1778 Q1082,1664 842,1664 Q602,1664 461.5,1778 Q321,1892 322,2080 L641,2080 Q640,2014 686,1960 Q732,1906 842,1906 Q949,1906 995,1959 Q1041,2012 1042,2080"/> 
            <glyph glyph-name="Ą" unicode="&#x104;" horiz-adv-x="2144" d=" M598,0 L66,0 L757,2048 L1416,2048 L2107,0 L1575,0 L1094,1532 L1078,1532 M527,806 L1639,806 L1639,430 L527,430 M1910,-565 Q1774,-565 1681.5,-496 Q1589,-427 1559,-301 Q1538,-217 1549.5,-131 Q1561,-45 1604.5,24 Q1648,93 1721,126 L2107,0 Q2012,-37 1956,-80 Q1900,-123 1901,-189 Q1900,-239 1925.5,-265 Q1951,-291 1995,-291 Q2025,-291 2047.5,-283.5 Q2070,-276 2090,-271 L2144,-505 Q2106,-526 2047,-545.5 Q1988,-565 1910,-565"/> 
            <glyph glyph-name="ą" unicode="&#x105;" horiz-adv-x="1543" d=" M588,-26 Q441,-26 327.5,23.5 Q214,73 148.5,173.5 Q83,274 83,426 Q83,554 128,642 Q173,730 252,785 Q331,840 434,868.5 Q537,897 654,907 Q785,919 865,932.5 Q945,946 981.5,971.5 Q1018,997 1018,1044 L1018,1049 Q1018,1126 965,1168 Q912,1210 822,1210 Q725,1210 666,1168 Q607,1126 591,1052 L140,1068 Q160,1208 243.5,1318.5 Q327,1429 473.5,1492.5 Q620,1556 826,1556 Q973,1556 1097,1521.5 Q1221,1487 1313,1421.5 Q1405,1356 1455.5,1261 Q1506,1166 1506,1044 L1506,0 L1046,0 L1046,214 L1034,214 Q993,136 929.5,82 Q866,28 780.5,1 Q695,-26 588,-26 M739,294 Q818,294 881.5,326 Q945,358 983,414.5 Q1021,471 1021,546 L1021,692 Q1000,681 970.5,672 Q941,663 906,655 Q871,647 834,641 Q797,635 763,630 Q694,619 645.5,596 Q597,573 571.5,536.5 Q546,500 546,450 Q546,374 600.5,334 Q655,294 739,294 M1309,-565 Q1173,-565 1080.5,-496 Q988,-427 958,-301 Q937,-217 948.5,-131 Q960,-45 1003.5,24 Q1047,93 1120,126 L1506,0 Q1411,-37 1355,-80 Q1299,-123 1300,-189 Q1299,-239 1324.5,-265 Q1350,-291 1394,-291 Q1424,-291 1446.5,-283.5 Q1469,-276 1489,-271 L1543,-505 Q1505,-526 1446,-545.5 Q1387,-565 1309,-565"/> 
            <glyph glyph-name="Ć" unicode="&#x106;" horiz-adv-x="2014" d=" M2014,1306 L1514,1306 Q1504,1383 1473,1445 Q1442,1507 1391,1551 Q1340,1595 1270.5,1618.5 Q1201,1642 1117,1642 Q968,1642 860.5,1569 Q753,1496 695.5,1358 Q638,1220 638,1024 Q638,820 696.5,682.5 Q755,545 861.5,475.5 Q968,406 1114,406 Q1196,406 1263.5,427 Q1331,448 1382.5,488.5 Q1434,529 1467.5,587.5 Q1501,646 1514,720 L2014,717 Q2001,581 1935.5,449 Q1870,317 1756,208.5 Q1642,100 1478.5,36 Q1315,-28 1104,-28 Q826,-28 606.5,94.5 Q387,217 260,452 Q133,687 133,1024 Q133,1362 262,1597 Q391,1832 611,1954 Q831,2076 1104,2076 Q1290,2076 1448,2024.5 Q1606,1973 1726,1874.5 Q1846,1776 1921,1633 Q1996,1490 2014,1306 M935,2243 L1137,2694 L1570,2694 L1268,2243"/> 
            <glyph glyph-name="ć" unicode="&#x107;" horiz-adv-x="1585" d=" M872,-29 Q629,-29 455.5,71 Q282,171 189,349.5 Q96,528 96,763 Q96,999 189.5,1177.5 Q283,1356 456.5,1456 Q630,1556 871,1556 Q1084,1556 1242.5,1479 Q1401,1402 1490.5,1261.5 Q1580,1121 1585,932 L1128,932 Q1114,1050 1048.5,1117 Q983,1184 878,1184 Q793,1184 729,1136.5 Q665,1089 629.5,996.5 Q594,904 594,768 Q594,632 629.5,538.5 Q665,445 729,397.5 Q793,350 878,350 Q946,350 998.5,379 Q1051,408 1085,464.5 Q1119,521 1128,602 L1585,602 Q1578,412 1490.5,270 Q1403,128 1245.5,49.5 Q1088,-29 872,-29 M705,1731 L907,2182 L1340,2182 L1038,1731"/> 
            <glyph glyph-name="Ĉ" unicode="&#x108;" horiz-adv-x="2014" d=" M2014,1306 L1514,1306 Q1504,1383 1473,1445 Q1442,1507 1391,1551 Q1340,1595 1270.5,1618.5 Q1201,1642 1117,1642 Q968,1642 860.5,1569 Q753,1496 695.5,1358 Q638,1220 638,1024 Q638,820 696.5,682.5 Q755,545 861.5,475.5 Q968,406 1114,406 Q1196,406 1263.5,427 Q1331,448 1382.5,488.5 Q1434,529 1467.5,587.5 Q1501,646 1514,720 L2014,717 Q2001,581 1935.5,449 Q1870,317 1756,208.5 Q1642,100 1478.5,36 Q1315,-28 1104,-28 Q826,-28 606.5,94.5 Q387,217 260,452 Q133,687 133,1024 Q133,1362 262,1597 Q391,1832 611,1954 Q831,2076 1104,2076 Q1290,2076 1448,2024.5 Q1606,1973 1726,1874.5 Q1846,1776 1921,1633 Q1996,1490 2014,1306 M1303,2232 L1104,2464 L906,2232 L496,2232 L496,2245 L929,2693 L1280,2693 L1712,2245 L1712,2232"/> 
            <glyph glyph-name="ĉ" unicode="&#x109;" horiz-adv-x="1585" d=" M872,-29 Q629,-29 455.5,71 Q282,171 189,349.5 Q96,528 96,763 Q96,999 189.5,1177.5 Q283,1356 456.5,1456 Q630,1556 871,1556 Q1084,1556 1242.5,1479 Q1401,1402 1490.5,1261.5 Q1580,1121 1585,932 L1128,932 Q1114,1050 1048.5,1117 Q983,1184 878,1184 Q793,1184 729,1136.5 Q665,1089 629.5,996.5 Q594,904 594,768 Q594,632 629.5,538.5 Q665,445 729,397.5 Q793,350 878,350 Q946,350 998.5,379 Q1051,408 1085,464.5 Q1119,521 1128,602 L1585,602 Q1578,412 1490.5,270 Q1403,128 1245.5,49.5 Q1088,-29 872,-29 M1072,1720 L873,1952 L675,1720 L265,1720 L265,1733 L698,2181 L1049,2181 L1481,1733 L1481,1720"/> 
            <glyph glyph-name="Ċ" unicode="&#x10A;" horiz-adv-x="2014" d=" M2014,1306 L1514,1306 Q1504,1383 1473,1445 Q1442,1507 1391,1551 Q1340,1595 1270.5,1618.5 Q1201,1642 1117,1642 Q968,1642 860.5,1569 Q753,1496 695.5,1358 Q638,1220 638,1024 Q638,820 696.5,682.5 Q755,545 861.5,475.5 Q968,406 1114,406 Q1196,406 1263.5,427 Q1331,448 1382.5,488.5 Q1434,529 1467.5,587.5 Q1501,646 1514,720 L2014,717 Q2001,581 1935.5,449 Q1870,317 1756,208.5 Q1642,100 1478.5,36 Q1315,-28 1104,-28 Q826,-28 606.5,94.5 Q387,217 260,452 Q133,687 133,1024 Q133,1362 262,1597 Q391,1832 611,1954 Q831,2076 1104,2076 Q1290,2076 1448,2024.5 Q1606,1973 1726,1874.5 Q1846,1776 1921,1633 Q1996,1490 2014,1306 M1105,2227 Q1001,2227 927,2295.5 Q853,2364 853,2461 Q853,2557 927,2625.5 Q1001,2694 1104,2694 Q1208,2694 1281.5,2625.5 Q1355,2557 1355,2461 Q1355,2364 1281.5,2295.5 Q1208,2227 1105,2227"/> 
            </font>
</defs>
</svg>
