<?xml version="1.0" standalone="no"?>
<!DOCTYPE svg PUBLIC "-//W3C//DTD SVG 1.1//EN" "http://www.w3.org/Graphics/SVG/1.1/DTD/svg11.dtd" >
<svg xmlns="http://www.w3.org/2000/svg">
    <defs>
        <font id="Inter-Bold">
            <font-face font-family="Inter-Bold"
                       units-per-em="2816"
                       ascent="2728"
                       descent="-680"
                       bbox="-2379 -900 7274 3135"
                    />
            <missing-glyph horiz-adv-x="0" />
            
            <glyph glyph-name="!" unicode="&#x21;" horiz-adv-x="697" d=" M679,2048 L640,614 L274,614 L234,2048 M457,-26 Q358,-26 287,44.5 Q216,115 217,214 Q216,312 287,382 Q358,452 457,452 Q552,452 624,382 Q696,312 697,214 Q696,148 662.5,93.5 Q629,39 575,6.5 Q521,-26 457,-26"/> 
            <glyph glyph-name="&quot;" unicode="&#x22;" horiz-adv-x="961" d=" M444,2048 L444,1270 L140,1270 L140,2048 M961,2048 L961,1270 L657,1270 L657,2048"/> 
            <glyph glyph-name="#" unicode="&#x23;" horiz-adv-x="1800" d=" M946,0 L1282,2048 L1602,2048 L1266,0 M29,508 L82,828 L1682,828 L1629,508 M226,0 L562,2048 L882,2048 L546,0 M146,1220 L200,1540 L1800,1540 L1746,1220"/> 
            <glyph glyph-name="$" unicode="&#x24;" horiz-adv-x="1732" d=" M854,-256 L854,2304 L1018,2304 L1018,-256 M1289,1459 Q1277,1580 1186,1647 Q1095,1714 939,1714 Q833,1714 760,1684.5 Q687,1655 648.5,1603 Q610,1551 610,1485 Q608,1430 633.5,1389 Q659,1348 704,1318.5 Q749,1289 808,1267.5 Q867,1246 934,1231 L1118,1187 Q1252,1157 1364,1107 Q1476,1057 1558,984 Q1640,911 1685.5,812 Q1731,713 1732,585 Q1731,397 1636.5,259.5 Q1542,122 1364.5,46.5 Q1187,-29 937,-29 Q689,-29 505.5,47 Q322,123 219.5,272.5 Q117,422 112,643 L531,643 Q538,540 590.5,471.5 Q643,403 731.5,368.5 Q820,334 932,334 Q1042,334 1123.5,366 Q1205,398 1250,455 Q1295,512 1295,586 Q1295,655 1254.5,702 Q1214,749 1136.5,782 Q1059,815 947,842 L724,898 Q465,961 315,1095 Q165,1229 166,1456 Q165,1642 265.5,1781 Q366,1920 542,1998 Q718,2076 942,2076 Q1170,2076 1340.5,1998 Q1511,1920 1606,1781 Q1701,1642 1704,1459"/> 
            <glyph glyph-name="%" unicode="&#x25;" horiz-adv-x="2189" d=" M1287,384 L1287,492 Q1287,615 1339.5,718.5 Q1392,822 1492.5,884.5 Q1593,947 1738,947 Q1885,947 1985.5,885 Q2086,823 2137.5,719.5 Q2189,616 2189,492 L2189,384 Q2189,261 2137,157.5 Q2085,54 1984,-8.5 Q1883,-71 1738,-71 Q1591,-71 1491,-8.5 Q1391,54 1339,157.5 Q1287,261 1287,384 M1578,492 L1578,384 Q1578,313 1612.5,250 Q1647,187 1738,187 Q1829,187 1862.5,249 Q1896,311 1896,384 L1896,492 Q1896,565 1864,628 Q1832,691 1738,691 Q1648,691 1613,628 Q1578,565 1578,492 M236,1556 L236,1664 Q236,1788 289,1891.5 Q342,1995 442.5,2057 Q543,2119 686,2119 Q834,2119 934,2057 Q1034,1995 1086,1891.5 Q1138,1788 1138,1664 L1138,1556 Q1138,1432 1085.5,1329 Q1033,1226 932.5,1164.5 Q832,1103 686,1103 Q540,1103 439.5,1165.5 Q339,1228 287.5,1330.5 Q236,1433 236,1556 M529,1664 L529,1556 Q529,1483 563.5,1421 Q598,1359 686,1359 Q778,1359 811.5,1421 Q845,1483 845,1556 L845,1664 Q845,1737 813,1800 Q781,1863 686,1863 Q597,1863 563,1799 Q529,1735 529,1664 M368,0 L1776,2048 L2038,2048 L630,0"/> 
            <glyph glyph-name="&amp;" unicode="&#x26;" horiz-adv-x="1890" d=" M798,-30 Q586,-30 432,46 Q278,122 195.5,252.5 Q113,383 113,544 Q113,664 161,757 Q209,850 295,928.5 Q381,1007 495,1085 L892,1346 Q969,1395 1005,1449.5 Q1041,1504 1041,1568 Q1041,1629 992,1681 Q943,1733 853,1732 Q793,1732 749,1705.5 Q705,1679 680.5,1636.5 Q656,1594 656,1542 Q656,1478 692,1412 Q728,1346 788,1272.5 Q848,1199 919,1114 L1890,0 L1446,0 L636,902 Q556,993 476.5,1092.5 Q397,1192 344,1304.5 Q291,1417 291,1549 Q291,1698 360.5,1817 Q430,1936 556,2005.5 Q682,2075 850,2075 Q1014,2075 1133.5,2008.5 Q1253,1942 1317.5,1832.5 Q1382,1723 1382,1592 Q1382,1447 1310.5,1329.5 Q1239,1212 1110,1119 L692,818 Q607,756 566.5,691.5 Q526,627 526,568 Q526,495 562,437 Q598,379 664,345.5 Q730,312 819,312 Q927,312 1032.5,361.5 Q1138,411 1224.5,502.5 Q1311,594 1363,720 Q1415,846 1415,999 L1768,999 Q1768,811 1727,660.5 Q1686,510 1613,398.5 Q1540,287 1446,216 Q1416,197 1388,180 Q1360,163 1330,144 Q1216,52 1075.5,11 Q935,-30 798,-30"/> 
            <glyph glyph-name="'" unicode="&#x27;" horiz-adv-x="444" d=" M444,2048 L444,1270 L140,1270 L140,2048"/> 
            <glyph glyph-name="(" unicode="&#x28;" horiz-adv-x="1075" d=" M264,821 Q264,1193 363.5,1506 Q463,1819 668,2086 L1075,2086 Q997,1987 930,1844.5 Q863,1702 813,1532 Q763,1362 735,1180.5 Q707,999 707,821 Q707,584 755.5,342.5 Q804,101 887.5,-106 Q971,-313 1075,-445 L668,-445 Q463,-178 363.5,135 Q264,448 264,821"/> 
            <glyph glyph-name=")" unicode="&#x29;" horiz-adv-x="888" d=" M888,821 Q888,448 788.5,135 Q689,-178 484,-445 L77,-445 Q155,-346 222,-203 Q289,-60 339,109.5 Q389,279 417,461 Q445,643 445,821 Q445,1058 396.5,1299.5 Q348,1541 264.5,1747.5 Q181,1954 77,2086 L484,2086 Q689,1819 788.5,1506 Q888,1193 888,821"/> 
            <glyph glyph-name="*" unicode="&#x2A;" horiz-adv-x="1362" d=" M661,896 L686,1283 L362,1066 L228,1302 L577,1472 L228,1642 L362,1878 L686,1661 L661,2048 L930,2048 L904,1661 L1228,1878 L1362,1642 L1014,1472 L1362,1302 L1228,1066 L904,1283 L930,896"/> 
            <glyph glyph-name="+" unicode="&#x2B;" horiz-adv-x="1665" d=" M778,111 L778,1527 L1136,1527 L1136,111 M249,640 L249,998 L1665,998 L1665,640"/> 
            <glyph glyph-name="," unicode="&#x2C;" horiz-adv-x="633" d=" M633,280 L622,170 Q609,38 572.5,-93.5 Q536,-225 496.5,-332 Q457,-439 433,-500 L157,-500 Q172,-441 198,-335.5 Q224,-230 247,-99 Q270,32 276,168 L281,280"/> 
            <glyph glyph-name="-" unicode="&#x2D;" horiz-adv-x="1127" d=" M1127,1010 L1127,672 L193,672 L193,1010"/> 
            <glyph glyph-name="." unicode="&#x2E;" horiz-adv-x="659" d=" M419,-26 Q320,-26 249.5,44.5 Q179,115 179,214 Q179,312 249.5,382 Q320,452 419,452 Q515,452 587,382 Q659,312 659,214 Q659,148 625.5,93.5 Q592,39 538,6.5 Q484,-26 419,-26"/> 
            <glyph glyph-name="/" unicode="&#x2F;" horiz-adv-x="1062" d=" M1062,2144 L402,-308 L35,-308 L695,2144"/> 
            <glyph glyph-name="0" unicode="&#x30;" horiz-adv-x="1797" d=" M969,-45 Q711,-44 525.5,82 Q340,208 240.5,447 Q141,686 142,1022 Q142,1357 241.5,1593 Q341,1829 526.5,1952.5 Q712,2076 969,2076 Q1226,2076 1411.5,1952 Q1597,1828 1697,1592.5 Q1797,1357 1796,1022 Q1796,685 1696.5,446 Q1597,207 1412,81 Q1227,-45 969,-45 M969,314 Q1145,314 1250,491 Q1355,668 1354,1022 Q1354,1255 1306.5,1410 Q1259,1565 1172.5,1643 Q1086,1721 969,1721 Q794,1721 689,1546 Q584,1371 583,1022 Q583,786 630.5,628.5 Q678,471 765,392.5 Q852,314 969,314"/> 
            <glyph glyph-name="1" unicode="&#x31;" horiz-adv-x="1057" d=" M1057,2048 L1057,0 L624,0 L624,1637 L612,1637 L143,1343 L143,1727 L650,2048"/> 
            <glyph glyph-name="2" unicode="&#x32;" horiz-adv-x="1626" d=" M166,0 L166,312 L895,987 Q988,1077 1051.5,1149 Q1115,1221 1148,1290.5 Q1181,1360 1181,1441 Q1181,1531 1140,1596.5 Q1099,1662 1028,1697.5 Q957,1733 867,1733 Q773,1733 703,1695 Q633,1657 595,1586 Q557,1515 557,1417 L146,1417 Q146,1618 237,1766 Q328,1914 492,1995 Q656,2076 870,2076 Q1090,2076 1253.5,1998.5 Q1417,1921 1508,1784 Q1599,1647 1599,1470 Q1599,1354 1553.5,1241 Q1508,1128 1392,990.5 Q1276,853 1065,661 L766,368 L766,354 L1626,354 L1626,0"/> 
            <glyph glyph-name="3" unicode="&#x33;" horiz-adv-x="1712" d=" M923,-28 Q699,-28 524.5,49.5 Q350,127 249.5,263.5 Q149,400 146,579 L582,579 Q586,504 631.5,447.5 Q677,391 753,360 Q829,329 924,329 Q1023,329 1099,364 Q1175,399 1218,461 Q1261,523 1261,604 Q1261,686 1215.5,749.5 Q1170,813 1085.5,849 Q1001,885 885,885 L694,885 L694,1203 L885,1203 Q983,1203 1058.5,1237 Q1134,1271 1176,1331.5 Q1218,1392 1218,1473 Q1218,1550 1181.5,1608.5 Q1145,1667 1079.5,1700 Q1014,1733 927,1733 Q839,1733 766,1701.5 Q693,1670 649,1612 Q605,1554 602,1476 L187,1476 Q190,1653 288,1788 Q386,1923 552.5,1999.5 Q719,2076 929,2076 Q1141,2076 1300,1999 Q1459,1922 1547.5,1791.5 Q1636,1661 1635,1499 Q1636,1327 1528.5,1212 Q1421,1097 1249,1066 L1249,1050 Q1475,1021 1593.5,893.5 Q1712,766 1711,575 Q1712,400 1610.5,264 Q1509,128 1331,50 Q1153,-28 923,-28"/> 
            <glyph glyph-name="4" unicode="&#x34;" horiz-adv-x="1786" d=" M135,360 L135,701 L990,2048 L1284,2048 L1284,1576 L1110,1576 L571,723 L571,707 L1786,707 L1786,360 M1118,0 L1118,464 L1126,615 L1126,2048 L1532,2048 L1532,0"/> 
            <glyph glyph-name="5" unicode="&#x35;" horiz-adv-x="1680" d=" M914,-28 Q702,-28 536.5,50 Q371,128 274,265 Q177,402 173,579 L593,579 Q600,460 693,386 Q786,312 914,312 Q1016,312 1094.5,357.5 Q1173,403 1217.5,484.5 Q1262,566 1262,672 Q1262,780 1216.5,862 Q1171,944 1091,990 Q1011,1036 908,1037 Q818,1037 733.5,1000 Q649,963 602,899 L217,968 L314,2048 L1566,2048 L1566,1694 L671,1694 L618,1181 L630,1181 Q684,1257 793,1307 Q902,1357 1037,1357 Q1222,1357 1367,1270 Q1512,1183 1596,1031.5 Q1680,880 1679,683 Q1680,476 1583.5,315.5 Q1487,155 1314.5,63.5 Q1142,-28 914,-28"/> 
            <glyph glyph-name="6" unicode="&#x36;" horiz-adv-x="1718" d=" M952,-28 Q794,-27 647.5,25 Q501,77 385,194 Q269,311 201.5,504 Q134,697 134,978 Q135,1236 193.5,1439.5 Q252,1643 361.5,1785 Q471,1927 624,2001.5 Q777,2076 967,2076 Q1172,2076 1329,1996.5 Q1486,1917 1581.5,1781 Q1677,1645 1697,1476 L1270,1476 Q1245,1583 1165,1644 Q1085,1705 967,1705 Q767,1705 663.5,1531 Q560,1357 558,1058 L572,1058 Q618,1149 696.5,1213.5 Q775,1278 875.5,1312.5 Q976,1347 1088,1347 Q1270,1347 1412,1261.5 Q1554,1176 1636,1027 Q1718,878 1718,686 Q1718,478 1621.5,316 Q1525,154 1352.5,62.5 Q1180,-29 952,-28 M950,312 Q1050,312 1129,360 Q1208,408 1253,490 Q1298,572 1298,674 Q1298,776 1253.5,857 Q1209,938 1131,986 Q1053,1034 953,1034 Q878,1034 814.5,1006 Q751,978 703.5,928 Q656,878 629,812.5 Q602,747 602,673 Q602,574 647.5,492 Q693,410 771.5,361 Q850,312 950,312"/> 
            <glyph glyph-name="7" unicode="&#x37;" horiz-adv-x="1544" d=" M247,0 L1096,1680 L1096,1694 L107,1694 L107,2048 L1544,2048 L1544,1689 L694,0"/> 
            <glyph glyph-name="8" unicode="&#x38;" horiz-adv-x="1725" d=" M930,-28 Q699,-28 519.5,47.5 Q340,123 238,254 Q136,385 136,551 Q136,679 194.5,786.5 Q253,894 354,965.5 Q455,1037 580,1057 L580,1071 Q416,1104 314,1230.5 Q212,1357 212,1525 Q212,1684 305,1808.5 Q398,1933 560.5,2004.5 Q723,2076 930,2076 Q1137,2076 1299.5,2004 Q1462,1932 1555,1807.5 Q1648,1683 1649,1525 Q1648,1356 1545,1230 Q1442,1104 1281,1071 L1281,1057 Q1404,1037 1504.5,965.5 Q1605,894 1664.5,786.5 Q1724,679 1725,551 Q1724,385 1622,254 Q1520,123 1340.5,47.5 Q1161,-28 930,-28 M930,290 Q1033,290 1110,327.5 Q1187,365 1230.5,431.5 Q1274,498 1274,585 Q1274,674 1229,742.5 Q1184,811 1107,850.5 Q1030,890 930,890 Q831,890 753,850.5 Q675,811 630.5,742.5 Q586,674 586,585 Q586,498 629,431.5 Q672,365 750,327.5 Q828,290 930,290 M930,1205 Q1016,1205 1083,1240 Q1150,1275 1188,1337 Q1226,1399 1226,1480 Q1226,1560 1188,1620.5 Q1150,1681 1084,1715.5 Q1018,1750 930,1750 Q843,1750 776,1715.5 Q709,1681 671.5,1620.5 Q634,1560 634,1480 Q634,1399 672,1337 Q710,1275 777,1240 Q844,1205 930,1205"/> 
            <glyph glyph-name="9" unicode="&#x39;" horiz-adv-x="1725" d=" M907,2076 Q1065,2076 1211.5,2023 Q1358,1970 1473.5,1854 Q1589,1738 1656.5,1546.5 Q1724,1355 1725,1077 Q1725,816 1666.5,611.5 Q1608,407 1499,264 Q1390,121 1236,46.5 Q1082,-28 892,-28 Q687,-28 530,51.5 Q373,131 277.5,268.5 Q182,406 162,578 L589,578 Q614,466 694,404.5 Q774,343 892,343 Q1092,343 1196,517.5 Q1300,692 1301,996 L1287,996 Q1241,906 1163,841.5 Q1085,777 984.5,742 Q884,707 771,707 Q590,707 448,792 Q306,877 224,1026 Q142,1175 142,1366 Q141,1572 237,1733 Q333,1894 505.5,1985.5 Q678,2077 907,2076 M910,1736 Q809,1736 730.5,1688 Q652,1640 606.5,1559 Q561,1478 562,1378 Q562,1277 606.5,1196.5 Q651,1116 728.5,1068.5 Q806,1021 906,1021 Q981,1021 1045,1049 Q1109,1077 1156.5,1126.5 Q1204,1176 1231,1241 Q1258,1306 1258,1379 Q1257,1476 1212,1557 Q1167,1638 1088,1687 Q1009,1736 910,1736"/> 
            <glyph glyph-name=":" unicode="&#x3A;" horiz-adv-x="659" d=" M419,-26 Q320,-26 249.5,44.5 Q179,115 179,214 Q179,312 249.5,382 Q320,452 419,452 Q515,452 587,382 Q659,312 659,214 Q659,148 625.5,93.5 Q592,39 538,6.5 Q484,-26 419,-26 M419,1050 Q320,1050 249.5,1120 Q179,1190 179,1290 Q179,1388 249.5,1457.5 Q320,1527 419,1527 Q515,1527 587,1457.5 Q659,1388 659,1290 Q659,1223 625.5,1168.5 Q592,1114 538,1082 Q484,1050 419,1050"/> 
            <glyph glyph-name=";" unicode="&#x3B;" horiz-adv-x="695" d=" M633,280 L622,170 Q609,38 572.5,-93.5 Q536,-225 496.5,-332 Q457,-439 433,-500 L157,-500 Q172,-441 198,-335.5 Q224,-230 247,-99 Q270,32 276,168 L281,280 M455,1050 Q356,1050 285.5,1120 Q215,1190 215,1290 Q215,1388 285.5,1457.5 Q356,1527 455,1527 Q551,1527 623,1457.5 Q695,1388 695,1290 Q695,1223 661.5,1168.5 Q628,1114 574,1082 Q520,1050 455,1050"/> 
            <glyph glyph-name="&lt;" unicode="&#x3C;" horiz-adv-x="1661" d=" M253,643 L253,995 L1661,1615 L1661,1210 L697,823 L710,844 L710,794 L697,815 L1661,428 L1661,23"/> 
            <glyph glyph-name="=" unicode="&#x3D;" horiz-adv-x="1647" d=" M266,974 L266,1329 L1647,1329 L1647,974 M266,310 L266,665 L1647,665 L1647,310"/> 
            <glyph glyph-name="&gt;" unicode="&#x3E;" horiz-adv-x="1661" d=" M1661,643 L253,23 L253,428 L1217,815 L1204,794 L1204,844 L1217,823 L253,1210 L253,1615 L1661,995"/> 
            <glyph glyph-name="?" unicode="&#x3F;" horiz-adv-x="1454" d=" M536,614 L536,648 Q537,823 567.5,927 Q598,1031 657,1095 Q716,1159 799,1211 Q861,1251 910,1294 Q959,1337 988,1389.5 Q1017,1442 1017,1507 Q1017,1576 984,1628 Q951,1680 895.5,1708 Q840,1736 773,1736 Q708,1736 650,1707.5 Q592,1679 555,1623.5 Q518,1568 515,1486 L107,1486 Q112,1686 203,1816.5 Q294,1947 444,2011.5 Q594,2076 775,2076 Q974,2076 1127,2010.5 Q1280,1945 1367,1821 Q1454,1697 1454,1522 Q1454,1405 1415.5,1314.5 Q1377,1224 1308,1154.5 Q1239,1085 1145,1029 Q1066,982 1015.5,931 Q965,880 940.5,813 Q916,746 915,648 L915,614 M734,-26 Q634,-26 563.5,44.5 Q493,115 494,214 Q493,312 563.5,382 Q634,452 734,452 Q829,452 901,382 Q973,312 974,214 Q973,148 939.5,93.5 Q906,39 852,6.5 Q798,-26 734,-26"/> 
            <glyph glyph-name="@" unicode="&#x40;" horiz-adv-x="2789" d=" M1511,-590 Q1192,-590 943,-503.5 Q694,-417 522,-250.5 Q350,-84 260,156 Q170,396 170,702 Q170,1004 260.5,1250 Q351,1496 525,1672.5 Q699,1849 950.5,1944 Q1202,2039 1524,2039 Q1822,2039 2056.5,1952 Q2291,1865 2454.5,1704.5 Q2618,1544 2703.5,1323.5 Q2789,1103 2788,836 Q2789,652 2756,498 Q2723,344 2652.5,229.5 Q2582,115 2468,48.5 Q2354,-18 2192,-27 Q2076,-36 2004,-10 Q1932,16 1894.5,67.5 Q1857,119 1846,188 L1834,188 Q1810,128 1740,79.5 Q1670,31 1569.5,4.5 Q1469,-22 1356,-15 Q1238,-8 1132.5,40 Q1027,88 945.5,179 Q864,270 817.5,404 Q771,538 770,714 Q771,888 819.5,1017 Q868,1146 948.5,1234 Q1029,1322 1128,1372 Q1227,1422 1327,1436 Q1440,1453 1541,1436 Q1642,1419 1711.5,1381 Q1781,1343 1798,1299 L1812,1299 L1812,1411 L2125,1411 L2125,435 Q2126,366 2156,328 Q2186,290 2237,290 Q2306,290 2352.5,351 Q2399,412 2422.5,538 Q2446,664 2446,859 Q2446,1047 2396.5,1189.5 Q2347,1332 2258.5,1432.5 Q2170,1533 2053,1596 Q1936,1659 1799.5,1688 Q1663,1717 1519,1717 Q1270,1717 1084,1641.5 Q898,1566 774,1430 Q650,1294 588.5,1111.5 Q527,929 526,714 Q527,477 592.5,294.5 Q658,112 786,-12 Q914,-136 1102,-200 Q1290,-264 1534,-264 Q1649,-264 1759,-247.5 Q1869,-231 1958,-207.5 Q2047,-184 2101,-162 L2200,-452 Q2137,-488 2029.5,-519.5 Q1922,-551 1787.5,-570.5 Q1653,-590 1511,-590 M1465,314 Q1587,314 1659.5,361 Q1732,408 1763.5,500.5 Q1795,593 1793,729 Q1792,849 1762.5,932.5 Q1733,1016 1661.5,1059.5 Q1590,1103 1463,1103 Q1352,1103 1274.5,1056 Q1197,1009 1156.5,924.5 Q1116,840 1115,726 Q1116,620 1149,525.5 Q1182,431 1258,372.5 Q1334,314 1465,314"/> 
            <glyph glyph-name="A" unicode="&#x41;" horiz-adv-x="2038" d=" M531,0 L67,0 L774,2048 L1332,2048 L2038,0 L1574,0 L1061,1580 L1045,1580 M502,805 L1598,805 L1598,467 L502,467"/> 
            <glyph glyph-name="B" unicode="&#x42;" horiz-adv-x="1758" d=" M178,0 L178,2048 L998,2048 Q1224,2048 1375,1981 Q1526,1914 1602,1795.5 Q1678,1677 1678,1523 Q1678,1403 1630,1312.5 Q1582,1222 1498.5,1164.5 Q1415,1107 1308,1083 L1308,1063 Q1425,1058 1527.5,997 Q1630,936 1694,826.5 Q1758,717 1758,566 Q1758,403 1677.5,275.5 Q1597,148 1440,74 Q1283,0 1053,0 M611,354 L964,354 Q1145,354 1228,423.5 Q1311,493 1311,609 Q1311,694 1270,759 Q1229,824 1153.5,861 Q1078,898 974,898 L611,898 M611,1191 L932,1191 Q1021,1191 1090.5,1222.5 Q1160,1254 1200.5,1312 Q1241,1370 1241,1451 Q1241,1562 1162.5,1630 Q1084,1698 940,1698 L611,1698"/> 
            <glyph glyph-name="C" unicode="&#x43;" horiz-adv-x="1985" d=" M1985,1331 L1547,1331 Q1535,1416 1498,1482.5 Q1461,1549 1403,1596 Q1345,1643 1269.5,1668 Q1194,1693 1106,1693 Q947,1693 829,1614.5 Q711,1536 646,1386.5 Q581,1237 581,1024 Q581,805 646.5,656 Q712,507 830,431 Q948,355 1103,355 Q1190,355 1264.5,378 Q1339,401 1397,445.5 Q1455,490 1493.5,554 Q1532,618 1547,700 L1985,698 Q1968,557 1900.5,426.5 Q1833,296 1719.5,193.5 Q1606,91 1449.5,31.5 Q1293,-28 1096,-28 Q822,-28 606.5,96 Q391,220 266.5,455 Q142,690 142,1024 Q142,1359 268,1594 Q394,1829 610,1952.5 Q826,2076 1096,2076 Q1274,2076 1426.5,2026 Q1579,1976 1697,1880.5 Q1815,1785 1889.5,1647 Q1964,1509 1985,1331"/> 
            <glyph glyph-name="D" unicode="&#x44;" horiz-adv-x="1906" d=" M904,0 L178,0 L178,2048 L910,2048 Q1219,2048 1442,1925.5 Q1665,1803 1785.5,1574 Q1906,1345 1906,1026 Q1906,706 1785.5,476 Q1665,246 1440.5,123 Q1216,0 904,0 M611,371 L886,371 Q1078,371 1209.5,439.5 Q1341,508 1407.5,652.5 Q1474,797 1474,1026 Q1474,1253 1407.5,1397 Q1341,1541 1210,1609 Q1079,1677 887,1677 L611,1677"/> 
            <glyph glyph-name="E" unicode="&#x45;" horiz-adv-x="1562" d=" M178,0 L178,2048 L1558,2048 L1558,1691 L611,1691 L611,1203 L1487,1203 L1487,846 L611,846 L611,357 L1562,357 L1562,0"/> 
            <glyph glyph-name="F" unicode="&#x46;" horiz-adv-x="1534" d=" M178,0 L178,2048 L1534,2048 L1534,1691 L611,1691 L611,1203 L1444,1203 L1444,846 L611,846 L611,0"/> 
            <glyph glyph-name="G" unicode="&#x47;" horiz-adv-x="1995" d=" M1536,1386 Q1515,1459 1477,1515.5 Q1439,1572 1384.5,1611.5 Q1330,1651 1260.5,1672 Q1191,1693 1107,1693 Q950,1693 831.5,1615 Q713,1537 647,1388.5 Q581,1240 581,1026 Q581,812 646,662 Q711,512 830,433.5 Q949,355 1111,355 Q1258,355 1362.5,407.5 Q1467,460 1522.5,556 Q1578,652 1578,783 L1666,770 L1138,770 L1138,1096 L1995,1096 L1995,838 Q1995,568 1881,374.5 Q1767,181 1567,76.5 Q1367,-28 1109,-28 Q821,-28 603,99.5 Q385,227 263.5,462.5 Q142,698 142,1022 Q142,1271 214.5,1466.5 Q287,1662 418,1798 Q549,1934 723,2005 Q897,2076 1100,2076 Q1274,2076 1424,2025.5 Q1574,1975 1690.5,1883 Q1807,1791 1881,1664.5 Q1955,1538 1976,1386"/> 
            <glyph glyph-name="H" unicode="&#x48;" horiz-adv-x="1922" d=" M178,0 L178,2048 L611,2048 L611,1203 L1490,1203 L1490,2048 L1922,2048 L1922,0 L1490,0 L1490,846 L611,846 L611,0"/> 
            <glyph glyph-name="I" unicode="&#x49;" horiz-adv-x="611" d=" M611,2048 L611,0 L178,0 L178,2048"/> 
            <glyph glyph-name="J" unicode="&#x4A;" horiz-adv-x="1426" d=" M998,2048 L1426,2048 L1426,620 Q1426,422 1337.5,276 Q1249,130 1092,51 Q935,-28 727,-28 Q542,-28 391.5,37.5 Q241,103 153,237.5 Q65,372 66,576 L497,576 Q499,495 530.5,437.5 Q562,380 617.5,349.5 Q673,319 749,319 Q829,319 884.5,353.5 Q940,388 969,455 Q998,522 998,620"/> 
            <glyph glyph-name="K" unicode="&#x4B;" horiz-adv-x="1903" d=" M178,0 L178,2048 L611,2048 L611,1145 L638,1145 L1375,2048 L1894,2048 L1134,1131 L1903,0 L1385,0 L824,842 L611,582 L611,0"/> 
            <glyph glyph-name="L" unicode="&#x4C;" horiz-adv-x="1489" d=" M178,0 L178,2048 L611,2048 L611,357 L1489,357 L1489,0"/> 
            <glyph glyph-name="M" unicode="&#x4D;" horiz-adv-x="2398" d=" M178,2048 L712,2048 L1276,672 L1300,672 L1864,2048 L2398,2048 L2398,0 L1978,0 L1978,1333 L1961,1333 L1431,10 L1145,10 L615,1338 L598,1338 L598,0 L178,0"/> 
            <glyph glyph-name="N" unicode="&#x4E;" horiz-adv-x="1891" d=" M1891,2048 L1891,0 L1517,0 L626,1289 L611,1289 L611,0 L178,0 L178,2048 L558,2048 L1442,760 L1460,760 L1460,2048"/> 
            <glyph glyph-name="O" unicode="&#x4F;" horiz-adv-x="2060" d=" M2060,1024 Q2060,689 1933.5,454 Q1807,219 1589.5,95.5 Q1372,-28 1101,-28 Q828,-28 611,96 Q394,220 268,455 Q142,690 142,1024 Q142,1359 268,1594 Q394,1829 611,1952.5 Q828,2076 1101,2076 Q1372,2076 1589.5,1952.5 Q1807,1829 1933.5,1594 Q2060,1359 2060,1024 M1621,1024 Q1621,1241 1556.5,1390 Q1492,1539 1375,1616 Q1258,1693 1101,1693 Q944,1693 827,1616 Q710,1539 645.5,1390 Q581,1241 581,1024 Q581,807 645.5,658 Q710,509 827,432 Q944,355 1101,355 Q1258,355 1375,432 Q1492,509 1556.5,658 Q1621,807 1621,1024"/> 
            <glyph glyph-name="P" unicode="&#x50;" horiz-adv-x="1720" d=" M178,0 L178,2048 L986,2048 Q1219,2048 1383,1959.5 Q1547,1871 1633.5,1714.5 Q1720,1558 1720,1354 Q1720,1150 1632,994 Q1544,838 1377.5,751 Q1211,664 975,664 L460,664 L460,1011 L905,1011 Q1030,1011 1111.5,1054.5 Q1193,1098 1233.5,1175.5 Q1274,1253 1274,1354 Q1274,1456 1233.5,1532.5 Q1193,1609 1111,1651.5 Q1029,1694 903,1694 L611,1694 L611,0"/> 
            <glyph glyph-name="Q" unicode="&#x51;" horiz-adv-x="2060" d=" M951,712 L1319,712 L1504,474 L1686,262 L2029,-168 L1625,-168 L1389,122 L1268,294 M2060,1024 Q2060,689 1933.5,454 Q1807,219 1589.5,95.5 Q1372,-28 1101,-28 Q828,-28 611,96 Q394,220 268,455 Q142,690 142,1024 Q142,1359 268,1594 Q394,1829 611,1952.5 Q828,2076 1101,2076 Q1372,2076 1589.5,1952.5 Q1807,1829 1933.5,1594 Q2060,1359 2060,1024 M1621,1024 Q1621,1241 1556.5,1390 Q1492,1539 1375,1616 Q1258,1693 1101,1693 Q944,1693 827,1616 Q710,1539 645.5,1390 Q581,1241 581,1024 Q581,807 645.5,658 Q710,509 827,432 Q944,355 1101,355 Q1258,355 1375,432 Q1492,509 1556.5,658 Q1621,807 1621,1024"/> 
            <glyph glyph-name="R" unicode="&#x52;" horiz-adv-x="1793" d=" M178,0 L178,2048 L986,2048 Q1218,2048 1382.5,1965.5 Q1547,1883 1633.5,1732.5 Q1720,1582 1720,1379 Q1720,1175 1632,1028.5 Q1544,882 1377.5,804 Q1211,726 975,726 L434,726 L434,1074 L905,1074 Q1029,1074 1111,1108 Q1193,1142 1233.5,1210 Q1274,1278 1274,1379 Q1274,1481 1233.5,1551 Q1193,1621 1110.5,1657.5 Q1028,1694 903,1694 L611,1694 L611,0 M1284,932 L1793,0 L1315,0 L817,932"/> 
            <glyph glyph-name="S" unicode="&#x53;" horiz-adv-x="1732" d=" M1289,1459 Q1277,1580 1186,1647 Q1095,1714 939,1714 Q833,1714 760,1684.5 Q687,1655 648.5,1603 Q610,1551 610,1485 Q608,1430 633.5,1389 Q659,1348 704,1318.5 Q749,1289 808,1267.5 Q867,1246 934,1231 L1118,1187 Q1252,1157 1364,1107 Q1476,1057 1558,984 Q1640,911 1685.5,812 Q1731,713 1732,585 Q1731,397 1636.5,259.5 Q1542,122 1364.5,46.5 Q1187,-29 937,-29 Q689,-29 505.5,47 Q322,123 219.5,272.5 Q117,422 112,643 L531,643 Q538,540 590.5,471.5 Q643,403 731.5,368.5 Q820,334 932,334 Q1042,334 1123.5,366 Q1205,398 1250,455 Q1295,512 1295,586 Q1295,655 1254.5,702 Q1214,749 1136.5,782 Q1059,815 947,842 L724,898 Q465,961 315,1095 Q165,1229 166,1456 Q165,1642 265.5,1781 Q366,1920 542,1998 Q718,2076 942,2076 Q1170,2076 1340.5,1998 Q1511,1920 1606,1781 Q1701,1642 1704,1459"/> 
            <glyph glyph-name="T" unicode="&#x54;" horiz-adv-x="1782" d=" M100,1691 L100,2048 L1782,2048 L1782,1691 L1155,1691 L1155,0 L727,0 L727,1691"/> 
            <glyph glyph-name="U" unicode="&#x55;" horiz-adv-x="1876" d=" M1443,2048 L1876,2048 L1876,718 Q1876,494 1769.5,326 Q1663,158 1472,64.5 Q1281,-29 1027,-29 Q772,-29 581,64.5 Q390,158 284,326 Q178,494 178,718 L178,2048 L611,2048 L611,755 Q611,638 662.5,547 Q714,456 808,404 Q902,352 1027,352 Q1153,352 1246.5,404 Q1340,456 1391.5,547 Q1443,638 1443,755"/> 
            <glyph glyph-name="V" unicode="&#x56;" horiz-adv-x="2038" d=" M548,2048 L1043,492 L1062,492 L1558,2048 L2038,2048 L1332,0 L774,0 L67,2048"/> 
            <glyph glyph-name="W" unicode="&#x57;" horiz-adv-x="2864" d=" M639,0 L53,2048 L526,2048 L865,625 L882,625 L1256,2048 L1661,2048 L2034,622 L2052,622 L2391,2048 L2864,2048 L2278,0 L1856,0 L1466,1339 L1450,1339 L1061,0"/> 
            <glyph glyph-name="X" unicode="&#x58;" horiz-adv-x="1931" d=" M584,2048 L997,1350 L1013,1350 L1428,2048 L1917,2048 L1292,1024 L1931,0 L1433,0 L1013,699 L997,699 L577,0 L81,0 L722,1024 L93,2048"/> 
            <glyph glyph-name="Y" unicode="&#x59;" horiz-adv-x="1982" d=" M58,2048 L543,2048 L1010,1166 L1030,1166 L1497,2048 L1982,2048 L1235,724 L1235,0 L805,0 L805,724"/> 
            <glyph glyph-name="Z" unicode="&#x5A;" horiz-adv-x="1724" d=" M156,0 L156,257 L1178,1691 L154,1691 L154,2048 L1722,2048 L1722,1791 L699,357 L1724,357 L1724,0"/> 
            <glyph glyph-name="[" unicode="&#x5B;" horiz-adv-x="1087" d=" M298,-445 L298,2086 L1087,2086 L1087,1768 L710,1768 L710,-126 L1087,-126 L1087,-445"/> 
            <glyph glyph-name="\" unicode="&#x5C;" horiz-adv-x="1062" d=" M695,-308 L35,2144 L402,2144 L1062,-308"/> 
            <glyph glyph-name="]" unicode="&#x5D;" horiz-adv-x="854" d=" M854,2086 L854,-445 L65,-445 L65,-126 L442,-126 L442,1768 L65,1768 L65,2086"/> 
            <glyph glyph-name="^" unicode="&#x5E;" horiz-adv-x="1280" d=" M650,1826 L722,1826 L722,1717 L650,1717 M93,1120 L514,2003 L858,2003 L1280,1120 L958,1120 L677,1757 L696,1757 L417,1120"/> 
            <glyph glyph-name="_" unicode="&#x5F;" horiz-adv-x="1343" d=" M1343,0 L1343,-323 L-2,-323 L-2,0"/> 
            <glyph glyph-name="`" unicode="&#x60;" horiz-adv-x="1003" d=" M702,1734 L397,2189 L790,2189 L1003,1734"/> 
            <glyph glyph-name="a" unicode="&#x61;" horiz-adv-x="1473" d=" M608,-29 Q461,-29 346,22.5 Q231,74 164.5,175.5 Q98,277 98,429 Q98,557 145,644 Q192,731 273,784 Q354,837 457.5,864 Q561,891 675,902 Q809,916 891,928.5 Q973,941 1010,966 Q1047,991 1047,1040 L1047,1046 Q1047,1141 987.5,1193 Q928,1245 819,1245 Q704,1245 636,1194.5 Q568,1144 546,1068 L152,1100 Q182,1240 270,1342.5 Q358,1445 497.5,1500.5 Q637,1556 821,1556 Q949,1556 1066.5,1526 Q1184,1496 1275.5,1433 Q1367,1370 1420,1271.5 Q1473,1173 1473,1036 L1473,0 L1069,0 L1069,213 L1057,213 Q1020,141 958,86.5 Q896,32 809,1.5 Q722,-29 608,-29 M730,265 Q824,265 896,302.5 Q968,340 1009,404 Q1050,468 1050,549 L1050,712 Q1030,699 995.5,688.5 Q961,678 918,669.5 Q875,661 832,654.5 Q789,648 754,643 Q679,632 623,608 Q567,584 536,543.5 Q505,503 505,443 Q505,356 568.5,310.5 Q632,265 730,265"/> 
            <glyph glyph-name="b" unicode="&#x62;" horiz-adv-x="1676" d=" M178,0 L178,2048 L604,2048 L604,1278 L617,1278 Q645,1340 698.5,1404.5 Q752,1469 838.5,1512.5 Q925,1556 1054,1556 Q1222,1556 1364,1468.5 Q1506,1381 1591,1205.5 Q1676,1030 1676,766 Q1676,509 1593.5,332.5 Q1511,156 1369.5,65.5 Q1228,-25 1053,-25 Q929,-25 842.5,16 Q756,57 701,119.5 Q646,182 617,246 L598,246 L598,0 M595,768 Q595,631 633,529 Q671,427 743,370.5 Q815,314 918,314 Q1022,314 1094,371.5 Q1166,429 1203.5,531.5 Q1241,634 1241,768 Q1241,901 1204,1002 Q1167,1103 1095,1160 Q1023,1217 918,1217 Q814,1217 742.5,1162 Q671,1107 633,1006 Q595,905 595,768"/> 
            <glyph glyph-name="c" unicode="&#x63;" horiz-adv-x="1550" d=" M864,-30 Q628,-30 458.5,70.5 Q289,171 198.5,350 Q108,529 108,762 Q108,998 199.5,1176.5 Q291,1355 460,1455.5 Q629,1556 862,1556 Q1063,1556 1214,1483 Q1365,1410 1453,1278 Q1541,1146 1550,968 L1148,968 Q1131,1083 1058.5,1153.5 Q986,1224 869,1224 Q770,1224 696.5,1170.5 Q623,1117 582,1015 Q541,913 541,768 Q541,621 581.5,518 Q622,415 696,361 Q770,307 869,307 Q942,307 1000.5,337 Q1059,367 1097.5,424.5 Q1136,482 1148,563 L1550,563 Q1540,387 1454.5,253.5 Q1369,120 1219,45 Q1069,-30 864,-30"/> 
            <glyph glyph-name="d" unicode="&#x64;" horiz-adv-x="1610" d=" M736,-25 Q561,-25 419.5,65.5 Q278,156 195.5,332.5 Q113,509 113,766 Q113,1030 198,1205.5 Q283,1381 424.5,1468.5 Q566,1556 735,1556 Q864,1556 950.5,1512.5 Q1037,1469 1090.5,1404.5 Q1144,1340 1172,1278 L1185,1278 L1185,2048 L1610,2048 L1610,0 L1190,0 L1190,246 L1172,246 Q1142,182 1087.5,119.5 Q1033,57 946.5,16 Q860,-25 736,-25 M871,314 Q974,314 1045.5,370.5 Q1117,427 1155.5,529 Q1194,631 1194,768 Q1194,905 1156,1006 Q1118,1107 1046,1162 Q974,1217 871,1217 Q766,1217 694,1160 Q622,1103 585,1002 Q548,901 548,768 Q548,634 585.5,531.5 Q623,429 694.5,371.5 Q766,314 871,314"/> 
            <glyph glyph-name="e" unicode="&#x65;" horiz-adv-x="1575" d=" M870,-30 Q633,-30 462.5,66.5 Q292,163 200,340.5 Q108,518 108,761 Q108,998 200,1177 Q292,1356 459.5,1456 Q627,1556 853,1556 Q1005,1556 1136.5,1507.5 Q1268,1459 1366.5,1362 Q1465,1265 1520,1118.5 Q1575,972 1575,776 L1575,659 L278,659 L278,923 L1174,923 Q1174,1015 1134,1086 Q1094,1157 1023.5,1197.5 Q953,1238 860,1238 Q763,1238 688.5,1193.5 Q614,1149 572,1074.5 Q530,1000 529,909 L529,658 Q529,544 571.5,461 Q614,378 692,333 Q770,288 877,288 Q948,288 1007,308 Q1066,328 1108,368 Q1150,408 1172,466 L1566,440 Q1536,298 1443.5,192.5 Q1351,87 1205.5,28.5 Q1060,-30 870,-30"/> 
            <glyph glyph-name="f" unicode="&#x66;" horiz-adv-x="1070" d=" M996,1536 L996,1216 L48,1216 L48,1536 M265,0 L265,1647 Q265,1814 330.5,1924 Q396,2034 510,2089 Q624,2144 769,2144 Q867,2144 948.5,2129 Q1030,2114 1070,2102 L994,1782 Q969,1790 932.5,1797 Q896,1804 858,1804 Q764,1804 727,1760.5 Q690,1717 690,1639 L690,0"/> 
            <glyph glyph-name="g" unicode="&#x67;" horiz-adv-x="1613" d=" M862,-608 Q655,-608 507.5,-551.5 Q360,-495 273,-398 Q186,-301 160,-180 L554,-127 Q572,-173 611,-213 Q650,-253 714.5,-277.5 Q779,-302 872,-302 Q1011,-302 1101.5,-234.5 Q1192,-167 1192,-9 L1192,272 L1174,272 Q1146,208 1090,151 Q1034,94 946,58 Q858,22 736,22 Q563,22 421.5,102.5 Q280,183 196.5,349.5 Q113,516 113,771 Q113,1032 198,1207 Q283,1382 424.5,1469 Q566,1556 735,1556 Q864,1556 951,1512.5 Q1038,1469 1091.5,1404.5 Q1145,1340 1174,1278 L1190,1278 L1190,1536 L1613,1536 L1613,-15 Q1613,-211 1517,-343 Q1421,-475 1251.5,-541.5 Q1082,-608 862,-608 M871,342 Q974,342 1045.5,393.5 Q1117,445 1155.5,541.5 Q1194,638 1194,773 Q1194,908 1156,1007.5 Q1118,1107 1046,1162 Q974,1217 871,1217 Q766,1217 694,1160.5 Q622,1104 585,1004 Q548,904 548,773 Q548,640 585.5,543.5 Q623,447 694.5,394.5 Q766,342 871,342"/> 
            <glyph glyph-name="h" unicode="&#x68;" horiz-adv-x="1593" d=" M596,888 L596,0 L170,0 L170,2048 L584,2048 L584,1265 L602,1265 Q654,1401 770,1478.5 Q886,1556 1061,1556 Q1221,1556 1340.5,1486.5 Q1460,1417 1526.5,1287.5 Q1593,1158 1592,978 L1592,0 L1166,0 L1166,902 Q1167,1044 1094.5,1123 Q1022,1202 892,1202 Q805,1202 738.5,1165 Q672,1128 634.5,1057.5 Q597,987 596,888"/> 
            <glyph glyph-name="i" unicode="&#x69;" horiz-adv-x="614" d=" M170,0 L170,1536 L596,1536 L596,0 M384,1734 Q289,1734 221.5,1797.5 Q154,1861 154,1950 Q154,2038 221.5,2101.5 Q289,2165 384,2165 Q479,2165 546.5,2101.5 Q614,2038 614,1950 Q614,1861 546.5,1797.5 Q479,1734 384,1734"/> 
            <glyph glyph-name="j" unicode="&#x6A;" horiz-adv-x="613" d=" M170,1536 L596,1536 L596,-76 Q596,-254 526,-364 Q456,-474 325.5,-525 Q195,-576 14,-576 Q-8,-576 -28.5,-575.5 Q-49,-575 -72,-574 L-72,-241 Q-55,-242 -42.5,-242.5 Q-30,-243 -16,-243 Q87,-243 128.5,-199.5 Q170,-156 170,-69 M382,1734 Q288,1734 220,1797.5 Q152,1861 152,1950 Q152,2038 220,2101.5 Q288,2165 382,2165 Q478,2165 545.5,2101.5 Q613,2038 613,1950 Q613,1861 545.5,1797.5 Q478,1734 382,1734"/> 
            <glyph glyph-name="k" unicode="&#x6B;" horiz-adv-x="1629" d=" M556,442 L557,953 L619,953 L1111,1536 L1600,1536 L939,764 L838,764 M170,0 L170,2048 L596,2048 L596,0 M1130,0 L678,669 L962,970 L1629,0"/> 
            <glyph glyph-name="l" unicode="&#x6C;" horiz-adv-x="596" d=" M596,2048 L596,0 L170,0 L170,2048"/> 
            <glyph glyph-name="m" unicode="&#x6D;" horiz-adv-x="2402" d=" M170,0 L170,1536 L576,1536 L576,1265 L594,1265 Q642,1400 754,1478 Q866,1556 1022,1556 Q1180,1556 1291,1477.5 Q1402,1399 1439,1265 L1455,1265 Q1502,1397 1625.5,1476.5 Q1749,1556 1918,1556 Q2133,1556 2267.5,1419.5 Q2402,1283 2402,1033 L2402,0 L1977,0 L1977,949 Q1977,1077 1909,1141 Q1841,1205 1739,1205 Q1623,1205 1558,1131.5 Q1493,1058 1493,938 L1493,0 L1080,0 L1080,958 Q1080,1071 1015.5,1138 Q951,1205 846,1205 Q775,1205 718.5,1169.5 Q662,1134 629,1070.5 Q596,1007 596,922 L596,0"/> 
            <glyph glyph-name="n" unicode="&#x6E;" horiz-adv-x="1586" d=" M596,888 L596,0 L170,0 L170,1536 L576,1536 L576,1265 L594,1265 Q645,1399 765,1477.5 Q885,1556 1056,1556 Q1216,1556 1335,1486 Q1454,1416 1520,1286.5 Q1586,1157 1586,978 L1586,0 L1160,0 L1160,902 Q1161,1043 1088,1122.5 Q1015,1202 887,1202 Q801,1202 735.5,1165 Q670,1128 633.5,1057.5 Q597,987 596,888"/> 
            <glyph glyph-name="o" unicode="&#x6F;" horiz-adv-x="1620" d=" M864,-30 Q631,-30 461.5,69.5 Q292,169 200,347.5 Q108,526 108,762 Q108,1000 200,1178.5 Q292,1357 461.5,1456.5 Q631,1556 864,1556 Q1097,1556 1266.5,1456.5 Q1436,1357 1528,1178.5 Q1620,1000 1620,762 Q1620,526 1528,347.5 Q1436,169 1266.5,69.5 Q1097,-30 864,-30 M866,300 Q972,300 1043,360.5 Q1114,421 1150.5,526 Q1187,631 1187,765 Q1187,899 1150.5,1004 Q1114,1109 1043,1170 Q972,1231 866,1231 Q759,1231 686.5,1170 Q614,1109 577.5,1004 Q541,899 541,765 Q541,631 577.5,526 Q614,421 686.5,360.5 Q759,300 866,300"/> 
            <glyph glyph-name="p" unicode="&#x70;" horiz-adv-x="1668" d=" M170,-576 L170,1536 L590,1536 L590,1278 L609,1278 Q637,1340 690.5,1404.5 Q744,1469 830.5,1512.5 Q917,1556 1046,1556 Q1214,1556 1356,1468.5 Q1498,1381 1583,1205.5 Q1668,1030 1668,766 Q1668,509 1585.5,332.5 Q1503,156 1361.5,65.5 Q1220,-25 1045,-25 Q921,-25 834.5,16 Q748,57 693,119.5 Q638,182 609,246 L596,246 L596,-576 M587,768 Q587,631 625,529 Q663,427 735,370.5 Q807,314 910,314 Q1014,314 1086,371.5 Q1158,429 1195.5,531.5 Q1233,634 1233,768 Q1233,901 1196,1002 Q1159,1103 1087,1160 Q1015,1217 910,1217 Q806,1217 734.5,1162 Q663,1107 625,1006 Q587,905 587,768"/> 
            <glyph glyph-name="q" unicode="&#x71;" horiz-adv-x="1610" d=" M1185,-576 L1185,246 L1172,246 Q1142,182 1087.5,119.5 Q1033,57 946.5,16 Q860,-25 736,-25 Q561,-25 419.5,65.5 Q278,156 195.5,332.5 Q113,509 113,766 Q113,1030 198,1205.5 Q283,1381 424.5,1468.5 Q566,1556 735,1556 Q864,1556 950.5,1512.5 Q1037,1469 1090.5,1404.5 Q1144,1340 1172,1278 L1190,1278 L1190,1536 L1610,1536 L1610,-576 M871,314 Q974,314 1045.5,370.5 Q1117,427 1155.5,529 Q1194,631 1194,768 Q1194,905 1156,1006 Q1118,1107 1046,1162 Q974,1217 871,1217 Q766,1217 694,1160 Q622,1103 585,1002 Q548,901 548,768 Q548,634 585.5,531.5 Q623,429 694.5,371.5 Q766,314 871,314"/> 
            <glyph glyph-name="r" unicode="&#x72;" horiz-adv-x="1102" d=" M170,0 L170,1536 L583,1536 L583,1268 L599,1268 Q641,1411 740,1484.5 Q839,1558 968,1558 Q1000,1558 1037,1554 Q1074,1550 1102,1543 L1102,1165 Q1072,1174 1019,1181 Q966,1188 922,1188 Q828,1188 754.5,1147.5 Q681,1107 638.5,1035 Q596,963 596,869 L596,0"/> 
            <glyph glyph-name="s" unicode="&#x73;" horiz-adv-x="1483" d=" M1448,1098 L1058,1074 Q1048,1124 1015,1164.5 Q982,1205 928.5,1229.5 Q875,1254 801,1254 Q702,1254 634,1212.5 Q566,1171 566,1102 Q566,1047 610,1009 Q654,971 761,948 L1039,892 Q1263,846 1373,744 Q1483,642 1483,476 Q1483,325 1394.5,211 Q1306,97 1152.5,33.5 Q999,-30 799,-30 Q494,-30 313.5,97.5 Q133,225 102,445 L521,467 Q540,374 613,325.5 Q686,277 800,277 Q912,277 980.5,320.5 Q1049,364 1050,433 Q1049,491 1001,528.5 Q953,566 853,586 L587,639 Q362,684 252.5,795 Q143,906 143,1078 Q143,1226 223.5,1333 Q304,1440 450.5,1498 Q597,1556 794,1556 Q1085,1556 1252.5,1433 Q1420,1310 1448,1098"/> 
            <glyph glyph-name="t" unicode="&#x74;" horiz-adv-x="1015" d=" M987,1536 L987,1216 L62,1216 L62,1536 M272,1904 L698,1904 L698,472 Q698,413 716,380.5 Q734,348 766.5,335 Q799,322 842,322 Q872,322 902,327.5 Q932,333 948,336 L1015,19 Q983,9 925,-4.5 Q867,-18 784,-21 Q630,-27 514.5,20 Q399,67 335,166 Q271,265 272,416"/> 
            <glyph glyph-name="u" unicode="&#x75;" horiz-adv-x="1581" d=" M1155,654 L1155,1536 L1581,1536 L1581,0 L1172,0 L1172,279 L1156,279 Q1104,144 983.5,62 Q863,-20 690,-20 Q536,-20 419,50 Q302,120 236.5,249 Q171,378 170,558 L170,1536 L596,1536 L596,634 Q597,498 669,419 Q741,340 862,340 Q939,340 1006,375.5 Q1073,411 1114.5,481 Q1156,551 1155,654"/> 
            <glyph glyph-name="v" unicode="&#x76;" horiz-adv-x="1602" d=" M1602,1536 L1065,0 L585,0 L48,1536 L498,1536 L817,437 L833,437 L1151,1536"/> 
            <glyph glyph-name="w" unicode="&#x77;" horiz-adv-x="2338" d=" M473,0 L55,1536 L486,1536 L724,504 L738,504 L986,1536 L1409,1536 L1661,510 L1674,510 L1908,1536 L2338,1536 L1921,0 L1470,0 L1206,966 L1187,966 L923,0"/> 
            <glyph glyph-name="x" unicode="&#x78;" horiz-adv-x="1546" d=" M526,1536 L808,999 L1097,1536 L1534,1536 L1089,768 L1546,0 L1111,0 L808,531 L510,0 L70,0 L526,768 L86,1536"/> 
            <glyph glyph-name="y" unicode="&#x79;" horiz-adv-x="1602" d=" M433,-576 Q352,-576 281.5,-563.5 Q211,-551 165,-532 L261,-214 Q336,-237 396.5,-239 Q457,-241 501.5,-211 Q546,-181 574,-109 L599,-44 L48,1536 L496,1536 L814,408 L830,408 L1151,1536 L1602,1536 L1005,-166 Q962,-290 888.5,-382.5 Q815,-475 703,-525.5 Q591,-576 433,-576"/> 
            <glyph glyph-name="z" unicode="&#x7A;" horiz-adv-x="1453" d=" M162,0 L162,254 L914,1185 L914,1196 L188,1196 L188,1536 L1427,1536 L1427,1259 L721,351 L721,340 L1453,340 L1453,0"/> 
            <glyph glyph-name="{" unicode="&#x7B;" horiz-adv-x="1087" d=" M87,812 L87,1013 Q260,1013 327,1082 Q394,1151 394,1305 L394,1526 Q394,1711 445.5,1822.5 Q497,1934 589.5,1991 Q682,2048 809,2067 Q936,2086 1087,2086 L1087,1768 Q969,1768 907.5,1737.5 Q846,1707 824,1643.5 Q802,1580 802,1483 L802,1191 Q802,1115 774,1046.5 Q746,978 670,925.5 Q594,873 453,842.5 Q312,812 87,812 M1087,-445 Q936,-445 809,-426 Q682,-407 589.5,-350 Q497,-293 445.5,-181.5 Q394,-70 394,115 L394,337 Q394,491 327,560 Q260,629 87,629 L87,830 Q312,830 453,799.5 Q594,769 670,716.5 Q746,664 774,595.5 Q802,527 802,450 L802,158 Q802,62 824,-1.5 Q846,-65 907.5,-95.5 Q969,-126 1087,-126 M87,629 L87,1013 L446,1013 L446,629"/> 
            <glyph glyph-name="|" unicode="&#x7C;" horiz-adv-x="728" d=" M728,2708 L728,-660 L324,-660 L324,2708"/> 
            <glyph glyph-name="}" unicode="&#x7D;" horiz-adv-x="1065" d=" M1065,830 L1065,629 Q893,629 825.5,560 Q758,491 758,337 L758,115 Q758,-70 706.5,-181.5 Q655,-293 562.5,-350 Q470,-407 343.5,-426 Q217,-445 65,-445 L65,-126 Q183,-126 244.5,-95.5 Q306,-65 328,-1.5 Q350,62 350,158 L350,450 Q350,527 378,595.5 Q406,664 482,716.5 Q558,769 699,799.5 Q840,830 1065,830 M65,2086 Q217,2086 343.5,2067 Q470,2048 562.5,1991 Q655,1934 706.5,1822.5 Q758,1711 758,1526 L758,1305 Q758,1151 825.5,1082 Q893,1013 1065,1013 L1065,812 Q840,812 699,842.5 Q558,873 482,925.5 Q406,978 378,1046.5 Q350,1115 350,1191 L350,1483 Q350,1580 328,1643.5 Q306,1707 244.5,1737.5 Q183,1768 65,1768 M1065,1013 L1065,629 L706,629 L706,1013"/> 
            <glyph glyph-name="~" unicode="&#x7E;" horiz-adv-x="1705" d=" M215,553 Q209,742 261,873 Q313,1004 412.5,1072 Q512,1140 647,1140 Q741,1140 827,1101 Q913,1062 1022,966 Q1080,915 1120,888.5 Q1160,862 1212,862 Q1283,862 1329,917.5 Q1375,973 1372,1094 L1698,1094 Q1705,904 1652,773 Q1599,642 1499,574 Q1399,506 1266,506 Q1167,506 1080.5,547.5 Q994,589 889,681 Q827,736 790,760.5 Q753,785 702,785 Q631,785 585,731.5 Q539,678 542,553"/> 
            <glyph glyph-name="¡" unicode="&#xA1;" horiz-adv-x="697" d=" M679,-518 L234,-518 L274,916 L640,916 M457,1556 Q552,1556 624,1486 Q696,1416 697,1316 Q696,1218 624,1148 Q552,1078 457,1078 Q358,1078 287,1148 Q216,1218 217,1316 Q216,1383 248.5,1437 Q281,1491 336,1523.5 Q391,1556 457,1556"/> 
            <glyph glyph-name="¢" unicode="&#xA2;" horiz-adv-x="1550" d=" M780,0 L780,2048 L944,2048 L944,0 M864,231 Q628,231 458.5,331.5 Q289,432 198.5,611 Q108,790 108,1023 Q108,1258 199.5,1437 Q291,1616 460,1716.5 Q629,1817 862,1817 Q1063,1817 1214,1744 Q1365,1671 1453,1538.5 Q1541,1406 1550,1229 L1148,1229 Q1131,1343 1058.5,1414 Q986,1485 869,1485 Q770,1485 696.5,1431.5 Q623,1378 582,1276 Q541,1174 541,1029 Q541,882 581.5,779 Q622,676 696,622 Q770,568 869,568 Q942,568 1000.5,598 Q1059,628 1097.5,685 Q1136,742 1148,824 L1550,824 Q1540,648 1454.5,514 Q1369,380 1219,305.5 Q1069,231 864,231"/> 
            <glyph glyph-name="£" unicode="&#xA3;" horiz-adv-x="1695" d=" M1686,0 L198,0 L198,357 L1686,357 M1290,815 L193,815 L193,1156 L1290,1156 M828,1469 L860,618 Q865,481 805.5,389.5 Q746,298 601,234 L329,357 Q373,366 395.5,402.5 Q418,439 425.5,490 Q433,541 432,594 L402,1469 Q394,1664 477.5,1799.5 Q561,1935 709,2005.5 Q857,2076 1043,2076 Q1200,2076 1322,2032.5 Q1444,1989 1528.5,1909.5 Q1613,1830 1654,1722 Q1695,1614 1690,1485 L1285,1496 Q1287,1581 1255,1632 Q1223,1683 1169,1706 Q1115,1729 1050,1729 Q987,1729 936.5,1700.5 Q886,1672 856.5,1614.5 Q827,1557 828,1469"/> 
            <glyph glyph-name="¤" unicode="&#xA4;" horiz-adv-x="1973" d=" M1077,-28 Q902,-28 749.5,37.5 Q597,103 481,221 Q365,339 299.5,496 Q234,653 234,836 Q234,1019 299.5,1175.5 Q365,1332 481,1449 Q597,1566 749.5,1631 Q902,1696 1077,1696 Q1250,1696 1402,1631 Q1554,1566 1670,1449 Q1786,1332 1852,1175.5 Q1918,1019 1918,836 Q1918,653 1852,496 Q1786,339 1670,221 Q1554,103 1402,37.5 Q1250,-28 1077,-28 M1077,233 Q1197,233 1303,279 Q1409,325 1489.5,407.5 Q1570,490 1615.5,599.5 Q1661,709 1662,836 Q1661,1007 1582,1143.5 Q1503,1280 1370.5,1359.5 Q1238,1439 1077,1439 Q912,1439 779,1359.5 Q646,1280 568,1143.5 Q490,1007 490,836 Q490,667 568,530 Q646,393 779,313 Q912,233 1077,233 M1686,1258 L1494,1454 L1778,1738 L1973,1542 M1778,-34 L1494,250 L1686,442 L1973,162 M379,-34 L188,162 L471,442 L666,250 M471,1258 L188,1542 L379,1738 L666,1454"/> 
            <glyph glyph-name="¥" unicode="&#xA5;" horiz-adv-x="1571" d=" M484,2048 L907,1016 L614,794 L40,2048 M709,1026 L1127,2048 L1571,2048 L994,794 M1014,1078 L1014,0 L586,0 L586,1078 M1418,1056 L1418,809 L150,809 L150,1056 M1418,660 L1418,413 L150,413 L150,660"/> 
            <glyph glyph-name="¦" unicode="&#xA6;" horiz-adv-x="676" d=" M295,571 L676,571 L676,-384 L295,-384 M676,2048 L676,1097 L295,1097 L295,2048"/> 
            <glyph glyph-name="§" unicode="&#xA7;" horiz-adv-x="1521" d=" M1404,1540 L1030,1540 Q1029,1617 976.5,1668.5 Q924,1720 820,1720 Q767,1720 722,1704.5 Q677,1689 649.5,1657.5 Q622,1626 622,1578 Q622,1530 653,1491 Q684,1452 728,1423.5 Q772,1395 812,1379 L1195,1202 Q1235,1184 1292,1150 Q1349,1116 1402.5,1062 Q1456,1008 1488.5,928.5 Q1521,849 1511,740 Q1504,656 1460,599 Q1416,542 1360.5,508.5 Q1305,475 1260,462 L1255,458 Q1339,384 1382.5,292 Q1426,200 1426,86 Q1426,-72 1348,-183.5 Q1270,-295 1136,-354.5 Q1002,-414 834,-414 Q650,-414 509.5,-346 Q369,-278 290,-154.5 Q211,-31 211,136 L587,136 Q587,41 654.5,-10 Q722,-61 839,-55 Q915,-53 981,-20.5 Q1047,12 1047,86 Q1047,138 1016,175.5 Q985,213 942.5,239.5 Q900,266 862,285 L479,458 Q438,477 380.5,510.5 Q323,544 269.5,599 Q216,654 184,734 Q152,814 161,924 Q168,1008 209.5,1065 Q251,1122 307.5,1156 Q364,1190 414,1204 L414,1207 Q338,1281 291.5,1372 Q245,1463 246,1578 Q246,1722 319,1834 Q392,1946 522,2011 Q652,2076 820,2076 Q996,2076 1126.5,2006.5 Q1257,1937 1330.5,1816 Q1404,1695 1404,1540 M1162,718 Q1166,752 1149,784.5 Q1132,817 1095,846 Q1058,875 1000,899 L666,1050 Q630,1067 595.5,1057 Q561,1047 537,1017.5 Q513,988 508,946 Q500,893 543.5,846 Q587,799 671,763 L1005,614 Q1036,600 1070,609.5 Q1104,619 1130.5,647.5 Q1157,676 1162,718"/> 
            <glyph glyph-name="¨" unicode="&#xA8;" horiz-adv-x="1268" d=" M448,1746 Q362,1746 300,1806.5 Q238,1867 238,1950 Q238,2035 300,2094 Q362,2153 448,2153 Q535,2153 595.5,2094 Q656,2035 656,1950 Q656,1867 595.5,1806.5 Q535,1746 448,1746 M1060,1746 Q974,1746 912,1806.5 Q850,1867 850,1950 Q850,2035 912,2094 Q974,2153 1060,2153 Q1147,2153 1207.5,2094 Q1268,2035 1268,1950 Q1268,1867 1207.5,1806.5 Q1147,1746 1060,1746"/> 
            <glyph glyph-name="©" unicode="&#xA9;" horiz-adv-x="2345" d=" M732,1024 Q732,1180 808,1308 Q884,1436 1012,1512 Q1140,1588 1296,1588 Q1432,1588 1548,1528 Q1664,1468 1739,1365 Q1814,1262 1829,1133 L1532,1133 Q1517,1208 1449.5,1255.5 Q1382,1303 1296,1303 Q1219,1303 1155.5,1266 Q1092,1229 1054,1165.5 Q1016,1102 1016,1025 Q1016,948 1054,884.5 Q1092,821 1155.5,783 Q1219,745 1296,745 Q1382,745 1445,792.5 Q1508,840 1524,915 L1821,915 Q1806,786 1733,683 Q1660,580 1546,520 Q1432,460 1296,460 Q1140,460 1012,536 Q884,612 808,740 Q732,868 732,1024 M1288,-32 Q1070,-32 878.5,50 Q687,132 541.5,277.5 Q396,423 313.5,614 Q231,805 232,1024 Q233,1243 315.5,1434 Q398,1625 543,1770.5 Q688,1916 879,1998 Q1070,2080 1288,2080 Q1507,2080 1698.5,1998 Q1890,1916 2034.5,1770.5 Q2179,1625 2261,1434 Q2343,1243 2344,1024 Q2345,805 2263,614 Q2181,423 2036,277.5 Q1891,132 1699,50 Q1507,-32 1288,-32 M1288,301 Q1439,301 1570.5,357 Q1702,413 1801,512.5 Q1900,612 1956,742.5 Q2012,873 2011,1023 Q2011,1174 1954.5,1305.5 Q1898,1437 1799,1536 Q1700,1635 1569,1691 Q1438,1747 1288,1747 Q1139,1747 1008.5,1691 Q878,1635 778.5,1535.5 Q679,1436 622,1304.5 Q565,1173 565,1023 Q564,874 620.5,743.5 Q677,613 776.5,513.5 Q876,414 1007,357.5 Q1138,301 1288,301"/> 
            <glyph glyph-name="ª" unicode="&#xAA;" horiz-adv-x="1143" d=" M858,1184 L858,1652 Q858,1735 817.5,1781.5 Q777,1828 693,1828 Q601,1828 549.5,1793 Q498,1758 498,1692 L253,1710 Q253,1849 373.5,1940.5 Q494,2032 693,2032 Q878,2032 991.5,1936.5 Q1105,1841 1105,1652 L1105,1220 Q1105,1161 1112,1098 Q1119,1035 1143,970 L892,970 Q877,1016 867.5,1071 Q858,1126 858,1184 M920,1582 L920,1422 L715,1422 Q593,1422 536.5,1376 Q480,1330 480,1270 Q480,1214 519.5,1182 Q559,1150 645,1150 Q702,1150 761,1175.5 Q820,1201 860,1237.5 Q900,1274 900,1308 L924,1146 Q892,1078 809.5,1015 Q727,952 582,952 Q414,952 322.5,1037.5 Q231,1123 231,1264 Q231,1417 351,1499.5 Q471,1582 715,1582"/> 
            <glyph glyph-name="«" unicode="&#xAB;" horiz-adv-x="1612" d=" M954,220 L568,220 L164,820 L164,840 L570,840 M954,1448 L570,828 L164,828 L164,848 L568,1448 M1612,220 L1226,220 L822,820 L822,840 L1228,840 M1612,1448 L1228,828 L822,828 L822,848 L1226,1448"/> 
            <glyph glyph-name="¬" unicode="&#xAC;" horiz-adv-x="1410" d=" M1410,1108 L1410,872 L229,872 L229,1108 M1410,1000 L1410,516 L1127,516 L1127,1000"/> 
            <glyph glyph-name="­" unicode="&#xAD;" horiz-adv-x="1127" d=" M1127,1010 L1127,672 L193,672 L193,1010"/> 
            <glyph glyph-name="®" unicode="&#xAE;" horiz-adv-x="1734" d=" M645,916 L645,1654 L1006,1654 Q1076,1654 1134.5,1625 Q1193,1596 1227.5,1541.5 Q1262,1487 1262,1409 Q1262,1331 1226,1276 Q1190,1221 1130,1192.5 Q1070,1164 997,1164 L750,1164 L750,1303 L957,1303 Q999,1303 1029.5,1330 Q1060,1357 1060,1410 Q1060,1465 1029.5,1488.5 Q999,1512 958,1512 L837,1512 L837,916 M1116,1257 L1284,916 L1074,916 L917,1257 M934,476 Q768,476 623,538 Q478,600 368,710 Q258,820 196,965 Q134,1110 134,1276 Q134,1442 196,1587 Q258,1732 368,1842 Q478,1952 623,2014 Q768,2076 934,2076 Q1100,2076 1245,2014 Q1390,1952 1500,1842 Q1610,1732 1672,1587 Q1734,1442 1734,1276 Q1734,1110 1672,965 Q1610,820 1500,710 Q1390,600 1245,538 Q1100,476 934,476 M934,687 Q1098,687 1231.5,766.5 Q1365,846 1444,979.5 Q1523,1113 1523,1276 Q1523,1439 1443.5,1572.5 Q1364,1706 1230.5,1785.5 Q1097,1865 934,1865 Q772,1865 638,1785.5 Q504,1706 425,1572.5 Q346,1439 346,1276 Q346,1113 425,979.5 Q504,846 638,766.5 Q772,687 934,687"/> 
            <glyph glyph-name="¯" unicode="&#xAF;" horiz-adv-x="1282" d=" M1282,2048 L1282,1817 L308,1817 L308,2048"/> 
            <glyph glyph-name="°" unicode="&#xB0;" horiz-adv-x="1138" d=" M647,1079 Q511,1079 399.5,1145.5 Q288,1212 222,1323.5 Q156,1435 156,1571 Q156,1706 222,1817.5 Q288,1929 399.5,1995.5 Q511,2062 647,2062 Q783,2062 894.5,1995.5 Q1006,1929 1072,1817.5 Q1138,1706 1138,1571 Q1138,1435 1072,1323.5 Q1006,1212 894.5,1145.5 Q783,1079 647,1079 M647,1363 Q705,1363 752,1391 Q799,1419 826.5,1466 Q854,1513 854,1571 Q854,1628 826.5,1675 Q799,1722 752,1750 Q705,1778 647,1778 Q590,1778 543,1750 Q496,1722 468,1675 Q440,1628 440,1571 Q440,1513 468,1466 Q496,1419 543,1391 Q590,1363 647,1363"/> 
            <glyph glyph-name="±" unicode="&#xB1;" horiz-adv-x="1661" d=" M253,77 L253,416 L1661,416 L1661,77 M253,909 L253,1238 L1661,1238 L1661,909 M778,563 L778,1584 L1136,1584 L1136,563"/> 
            <glyph glyph-name="²" unicode="&#xB2;" horiz-adv-x="1100" d=" M123,1024 L123,1245 L610,1634 Q666,1680 707,1717 Q748,1754 771,1792 Q794,1830 794,1876 Q794,1948 735,1987 Q676,2026 592,2026 Q502,2026 447.5,1982.5 Q393,1939 393,1857 L98,1857 Q98,2049 238,2158.5 Q378,2268 596,2268 Q745,2268 855,2216.5 Q965,2165 1025.5,2077 Q1086,1989 1086,1880 Q1086,1792 1049.5,1716.5 Q1013,1641 937.5,1568.5 Q862,1496 743,1417 L565,1285 L565,1274 L1100,1274 L1100,1024"/> 
            <glyph glyph-name="³" unicode="&#xB3;" horiz-adv-x="1154" d=" M618,1008 Q467,1008 349.5,1055 Q232,1102 163,1185.5 Q94,1269 91,1380 L405,1380 Q410,1324 470.5,1293 Q531,1262 618,1262 Q708,1262 771,1297.5 Q834,1333 834,1397 Q834,1457 770.5,1496.5 Q707,1536 595,1536 L454,1536 L454,1763 L595,1763 Q688,1763 745,1800.5 Q802,1838 802,1897 Q802,1955 752.5,1990.5 Q703,2026 622,2026 Q537,2026 477,1992 Q417,1958 414,1902 L119,1902 Q121,2011 188.5,2093.5 Q256,2176 370,2222 Q484,2268 625,2268 Q768,2268 875,2221 Q982,2174 1041.5,2094 Q1101,2014 1101,1916 Q1101,1808 1026.5,1743 Q952,1678 847,1664 L847,1654 Q992,1640 1073,1566 Q1154,1492 1154,1376 Q1154,1268 1084.5,1185 Q1015,1102 894,1055 Q773,1008 618,1008"/> 
            <glyph glyph-name="´" unicode="&#xB4;" horiz-adv-x="1140" d=" M534,1734 L746,2189 L1140,2189 L835,1734"/> 
            <glyph glyph-name="µ" unicode="&#xB5;" horiz-adv-x="1706" d=" M170,-557 L170,1536 L596,1536 L596,654 Q597,562 639.5,491 Q682,420 759.5,380 Q837,340 939,340 Q1041,340 1118,380 Q1195,420 1238,491 Q1281,562 1281,654 L1281,1536 L1706,1536 L1706,0 L1298,0 L1298,218 L1286,218 Q1240,119 1147,64 Q1054,9 939,9 Q824,9 730.5,64 Q637,119 591,218 L579,218 L579,-557"/> 
            <glyph glyph-name="¶" unicode="&#xB6;" horiz-adv-x="1538" d=" M1351,1720 L951,1720 L951,760 L833,760 Q608,760 452.5,843.5 Q297,927 217.5,1072.5 Q138,1218 138,1404 Q138,1588 217.5,1733.5 Q297,1879 452.5,1963.5 Q608,2048 833,2048 L1351,2048 M1199,0 L1199,2048 L1538,2048 L1538,0"/> 
            <glyph glyph-name="·" unicode="&#xB7;" horiz-adv-x="659" d=" M419,657 Q320,657 249.5,727.5 Q179,798 179,897 Q179,995 249.5,1065 Q320,1135 419,1135 Q515,1135 587,1065 Q659,995 659,897 Q659,831 625.5,776.5 Q592,722 538,689.5 Q484,657 419,657"/> 
            <glyph glyph-name="¸" unicode="&#xB8;" horiz-adv-x="847" d=" M431,8 L627,8 L611,-79 Q714,-95 779.5,-156 Q845,-217 846,-322 Q847,-471 708,-559.5 Q569,-648 318,-648 L314,-458 Q440,-458 511.5,-427.5 Q583,-397 586,-333 Q588,-272 539,-240 Q490,-208 386,-195"/> 
            <glyph glyph-name="¹" unicode="&#xB9;" horiz-adv-x="696" d=" M404,1024 L404,1973 L397,1973 L102,1788 L102,2050 L421,2252 L696,2252 L696,1024"/> 
            <glyph glyph-name="º" unicode="&#xBA;" horiz-adv-x="1173" d=" M192,1436 L192,1542 Q192,1685 252,1795.5 Q312,1906 422.5,1969 Q533,2032 682,2032 Q910,2032 1041.5,1894 Q1173,1756 1173,1542 L1173,1436 Q1173,1294 1114,1184.5 Q1055,1075 946,1012.5 Q837,950 686,950 Q457,950 324.5,1086.5 Q192,1223 192,1436 M439,1542 L439,1436 Q439,1313 501,1232.5 Q563,1152 686,1152 Q807,1152 866.5,1232.5 Q926,1313 926,1436 L926,1542 Q926,1662 866,1745 Q806,1828 682,1828 Q562,1828 500.5,1745 Q439,1662 439,1542"/> 
            <glyph glyph-name="»" unicode="&#xBB;" horiz-adv-x="1600" d=" M142,220 L526,840 L932,840 L932,820 L528,220 M142,1448 L528,1448 L932,848 L932,828 L526,828 M810,220 L1194,840 L1600,840 L1600,820 L1196,220 M810,1448 L1196,1448 L1600,848 L1600,828 L1194,828"/> 
            <glyph glyph-name="¼" unicode="&#xBC;" horiz-adv-x="2409" d=" M339,0 L1747,2048 L2008,2048 L600,0 M354,1216 L354,2040 L346,2040 L84,1876 L84,2125 L369,2304 L629,2304 L629,1216 M1391,174 L1391,396 L1898,1088 L2088,1088 L2088,790 L1978,790 L1674,409 L1674,400 L2409,400 L2409,174 M1985,0 L1985,241 L1989,342 L1989,1088 L2250,1088 L2250,0"/> 
            <glyph glyph-name="½" unicode="&#xBD;" horiz-adv-x="2497" d=" M339,0 L1747,2048 L2008,2048 L600,0 M354,1216 L354,2040 L346,2040 L84,1876 L84,2125 L369,2304 L629,2304 L629,1216 M1619,0 L1619,200 L2061,543 Q2132,599 2178,645.5 Q2224,692 2224,751 Q2224,815 2171,848.5 Q2118,882 2040,882 Q1961,882 1911.5,845 Q1862,808 1862,736 L1597,736 Q1597,907 1723.5,1005.5 Q1850,1104 2047,1104 Q2247,1104 2366.5,1003 Q2486,902 2486,755 Q2486,676 2453,609 Q2420,542 2351.5,478 Q2283,414 2176,346 L2019,238 L2019,228 L2497,228 L2497,0"/> 
            <glyph glyph-name="¾" unicode="&#xBE;" horiz-adv-x="2651" d=" M580,0 L1988,2048 L2249,2048 L841,0 M1633,174 L1633,396 L2140,1088 L2330,1088 L2330,790 L2220,790 L1916,409 L1916,400 L2651,400 L2651,174 M2227,0 L2227,241 L2231,342 L2231,1088 L2492,1088 L2492,0 M560,1200 Q418,1200 311.5,1243.5 Q205,1287 145,1362 Q85,1437 82,1532 L366,1532 Q370,1485 422.5,1456.5 Q475,1428 553,1428 Q637,1428 694.5,1460.5 Q752,1493 752,1546 Q752,1598 696.5,1631.5 Q641,1665 539,1665 L408,1665 L408,1873 L539,1873 Q620,1873 671.5,1904.5 Q723,1936 723,1988 Q723,2038 678.5,2070 Q634,2102 558,2102 Q486,2102 432.5,2072.5 Q379,2043 375,1996 L106,1996 Q110,2091 171,2164 Q232,2237 335,2278.5 Q438,2320 565,2320 Q693,2320 790,2278 Q887,2236 940.5,2164.5 Q994,2093 994,2006 Q994,1917 932,1857 Q870,1797 769,1784 L769,1774 Q902,1761 972,1694.5 Q1042,1628 1042,1527 Q1042,1432 979,1358 Q916,1284 807,1242 Q698,1200 560,1200"/> 
            <glyph glyph-name="¿" unicode="&#xBF;" horiz-adv-x="1477" d=" M1048,901 L1048,867 Q1048,693 1017,588.5 Q986,484 927.5,420.5 Q869,357 785,304 Q724,265 674.5,221.5 Q625,178 596,126 Q567,74 567,8 Q567,-61 600,-112.5 Q633,-164 688.5,-192.5 Q744,-221 811,-221 Q876,-221 934,-192.5 Q992,-164 1029,-108 Q1066,-52 1069,30 L1477,30 Q1473,-170 1381.5,-301 Q1290,-432 1140.5,-496.5 Q991,-561 809,-561 Q611,-561 457.5,-495.5 Q304,-430 217,-306 Q130,-182 130,-6 Q130,111 168.5,201.5 Q207,292 276.5,361.5 Q346,431 439,486 Q518,534 568.5,584.5 Q619,635 643.5,702.5 Q668,770 669,867 L669,901 M850,1541 Q950,1541 1021,1471 Q1092,1401 1090,1301 Q1092,1203 1021,1133 Q950,1063 850,1063 Q755,1063 683.5,1133 Q612,1203 610,1301 Q611,1368 644.5,1422 Q678,1476 732.5,1508.5 Q787,1541 850,1541"/> 
            <glyph glyph-name="À" unicode="&#xC0;" horiz-adv-x="2038" d=" M531,0 L67,0 L774,2048 L1332,2048 L2038,0 L1574,0 L1061,1580 L1045,1580 M502,805 L1598,805 L1598,467 L502,467 M905,2246 L600,2701 L993,2701 L1206,2246"/> 
            <glyph glyph-name="Á" unicode="&#xC1;" horiz-adv-x="2038" d=" M531,0 L67,0 L774,2048 L1332,2048 L2038,0 L1574,0 L1061,1580 L1045,1580 M502,805 L1598,805 L1598,467 L502,467 M900,2246 L1112,2701 L1506,2701 L1201,2246"/> 
            <glyph glyph-name="Â" unicode="&#xC2;" horiz-adv-x="2038" d=" M531,0 L67,0 L774,2048 L1332,2048 L2038,0 L1574,0 L1061,1580 L1045,1580 M502,805 L1598,805 L1598,467 L502,467 M1254,2232 L1053,2476 L852,2232 L489,2232 L489,2246 L894,2686 L1211,2686 L1617,2246 L1617,2232"/> 
            <glyph glyph-name="Ã" unicode="&#xC3;" horiz-adv-x="2038" d=" M531,0 L67,0 L774,2048 L1332,2048 L2038,0 L1574,0 L1061,1580 L1045,1580 M502,805 L1598,805 L1598,467 L502,467 M766,2250 L530,2253 Q530,2444 624,2546 Q718,2648 855,2649 Q925,2649 975,2626.5 Q1025,2604 1066,2574 Q1107,2544 1144,2521.5 Q1181,2499 1224,2499 Q1282,2500 1312.5,2542.5 Q1343,2585 1343,2654 L1576,2647 Q1574,2458 1480,2355.5 Q1386,2253 1250,2252 Q1176,2251 1125.5,2274 Q1075,2297 1037,2326.5 Q999,2356 963,2379 Q927,2402 882,2402 Q830,2402 798,2361 Q766,2320 766,2250"/> 
            <glyph glyph-name="Ä" unicode="&#xC4;" horiz-adv-x="2038" d=" M531,0 L67,0 L774,2048 L1332,2048 L2038,0 L1574,0 L1061,1580 L1045,1580 M502,805 L1598,805 L1598,467 L502,467 M748,2258 Q662,2258 600,2318.5 Q538,2379 538,2462 Q538,2547 600,2606 Q662,2665 748,2665 Q835,2665 895.5,2606 Q956,2547 956,2462 Q956,2379 895.5,2318.5 Q835,2258 748,2258 M1360,2258 Q1274,2258 1212,2318.5 Q1150,2379 1150,2462 Q1150,2547 1212,2606 Q1274,2665 1360,2665 Q1447,2665 1507.5,2606 Q1568,2547 1568,2462 Q1568,2379 1507.5,2318.5 Q1447,2258 1360,2258"/> 
            <glyph glyph-name="Å" unicode="&#xC5;" horiz-adv-x="2038" d=" M531,0 L67,0 L774,2048 L1332,2048 L2038,0 L1574,0 L1061,1580 L1045,1580 M502,805 L1598,805 L1598,467 L502,467 M1053,2166 Q925,2166 835,2254.5 Q745,2343 745,2467 Q745,2550 786.5,2618.5 Q828,2687 898,2727.5 Q968,2768 1053,2768 Q1138,2768 1208,2727.5 Q1278,2687 1319.5,2618.5 Q1361,2550 1361,2467 Q1361,2384 1319.5,2315.5 Q1278,2247 1208,2206.5 Q1138,2166 1053,2166 M1053,2337 Q1109,2337 1148,2375 Q1187,2413 1187,2468 Q1187,2522 1148,2560 Q1109,2598 1053,2598 Q997,2597 957.5,2559 Q918,2521 918,2467 Q918,2413 957,2374.5 Q996,2336 1053,2337"/> 
            <glyph glyph-name="Æ" unicode="&#xC6;" horiz-adv-x="2738" d=" M67,0 L944,2048 L2734,2048 L2734,1691 L1787,1691 L1787,1203 L2663,1203 L2663,846 L1787,846 L1787,357 L2738,357 L2738,0 L1354,0 L1354,1622 L1211,1622 L543,0 M537,467 L537,805 L1601,805 L1601,467"/> 
            <glyph glyph-name="Ç" unicode="&#xC7;" horiz-adv-x="1985" d=" M1985,1331 L1547,1331 Q1535,1416 1498,1482.5 Q1461,1549 1403,1596 Q1345,1643 1269.5,1668 Q1194,1693 1106,1693 Q947,1693 829,1614.5 Q711,1536 646,1386.5 Q581,1237 581,1024 Q581,805 646.5,656 Q712,507 830,431 Q948,355 1103,355 Q1190,355 1264.5,378 Q1339,401 1397,445.5 Q1455,490 1493.5,554 Q1532,618 1547,700 L1985,698 Q1968,557 1900.5,426.5 Q1833,296 1719.5,193.5 Q1606,91 1449.5,31.5 Q1293,-28 1096,-28 Q822,-28 606.5,96 Q391,220 266.5,455 Q142,690 142,1024 Q142,1359 268,1594 Q394,1829 610,1952.5 Q826,2076 1096,2076 Q1274,2076 1426.5,2026 Q1579,1976 1697,1880.5 Q1815,1785 1889.5,1647 Q1964,1509 1985,1331 M989,65542 L1185,65542 L1169,65455 Q1272,65439 1337.5,65378 Q1403,65317 1404,65212 Q1405,65063 1266,64974.5 Q1127,64886 876,64886 L872,65076 Q998,65076 1069.5,65106.5 Q1141,65137 1144,65201 Q1146,65262 1097,65294 Q1048,65326 944,65339"/> 
            <glyph glyph-name="È" unicode="&#xC8;" horiz-adv-x="1562" d=" M178,0 L178,2048 L1558,2048 L1558,1691 L611,1691 L611,1203 L1487,1203 L1487,846 L611,846 L611,357 L1562,357 L1562,0 M724,2246 L419,2701 L812,2701 L1025,2246"/> 
            <glyph glyph-name="É" unicode="&#xC9;" horiz-adv-x="1562" d=" M178,0 L178,2048 L1558,2048 L1558,1691 L611,1691 L611,1203 L1487,1203 L1487,846 L611,846 L611,357 L1562,357 L1562,0 M718,2246 L930,2701 L1324,2701 L1019,2246"/> 
            <glyph glyph-name="Ê" unicode="&#xCA;" horiz-adv-x="1562" d=" M178,0 L178,2048 L1558,2048 L1558,1691 L611,1691 L611,1203 L1487,1203 L1487,846 L611,846 L611,357 L1562,357 L1562,0 M1072,2232 L871,2476 L670,2232 L307,2232 L307,2246 L712,2686 L1029,2686 L1435,2246 L1435,2232"/> 
            <glyph glyph-name="Ë" unicode="&#xCB;" horiz-adv-x="1562" d=" M178,0 L178,2048 L1558,2048 L1558,1691 L611,1691 L611,1203 L1487,1203 L1487,846 L611,846 L611,357 L1562,357 L1562,0 M566,2258 Q480,2258 418,2318.5 Q356,2379 356,2462 Q356,2547 418,2606 Q480,2665 566,2665 Q653,2665 713.5,2606 Q774,2547 774,2462 Q774,2379 713.5,2318.5 Q653,2258 566,2258 M1178,2258 Q1092,2258 1030,2318.5 Q968,2379 968,2462 Q968,2547 1030,2606 Q1092,2665 1178,2665 Q1265,2665 1325.5,2606 Q1386,2547 1386,2462 Q1386,2379 1325.5,2318.5 Q1265,2258 1178,2258"/> 
            <glyph glyph-name="Ì" unicode="&#xCC;" horiz-adv-x="611" d=" M611,2048 L611,0 L178,0 L178,2048 M65784,2246 L65479,2701 L65872,2701 L66085,2246"/> 
            <glyph glyph-name="Í" unicode="&#xCD;" horiz-adv-x="849" d=" M611,2048 L611,0 L178,0 L178,2048 M65779,2246 L65991,2701 L66385,2701 L66080,2246"/> 
            <glyph glyph-name="Î" unicode="&#xCE;" horiz-adv-x="960" d=" M611,2048 L611,0 L178,0 L178,2048 M66133,2232 L65932,2476 L65731,2232 L65368,2232 L65368,2246 L65773,2686 L66090,2686 L66496,2246 L66496,2232"/> 
            <glyph glyph-name="Ï" unicode="&#xCF;" horiz-adv-x="911" d=" M611,2048 L611,0 L178,0 L178,2048 M91,2258 Q5,2258 -57,2318.5 Q-119,2379 -119,2462 Q-119,2547 -57,2606 Q5,2665 91,2665 Q178,2665 238.5,2606 Q299,2547 299,2462 Q299,2379 238.5,2318.5 Q178,2258 91,2258 M703,2258 Q617,2258 555,2318.5 Q493,2379 493,2462 Q493,2547 555,2606 Q617,2665 703,2665 Q790,2665 850.5,2606 Q911,2547 911,2462 Q911,2379 850.5,2318.5 Q790,2258 703,2258"/> 
            <glyph glyph-name="Ð" unicode="&#xD0;" horiz-adv-x="1906" d=" M904,0 L371,0 L371,371 L886,371 Q1078,371 1209.5,439.5 Q1341,508 1407.5,652.5 Q1474,797 1474,1026 Q1474,1253 1407.5,1397 Q1341,1541 1210,1609 Q1079,1677 887,1677 L362,1677 L362,2048 L910,2048 Q1219,2048 1442,1925.5 Q1665,1803 1785.5,1574 Q1906,1345 1906,1026 Q1906,706 1785.5,476 Q1665,246 1440.5,123 Q1216,0 904,0 M611,2048 L611,0 L178,0 L178,2048 M-106,954 L-106,1206 L891,1206 L891,954"/> 
            <glyph glyph-name="Ñ" unicode="&#xD1;" horiz-adv-x="1891" d=" M1891,2048 L1891,0 L1517,0 L626,1289 L611,1289 L611,0 L178,0 L178,2048 L558,2048 L1442,760 L1460,760 L1460,2048 M750,2237 L513,2240 Q513,2431 607.5,2533 Q702,2635 838,2636 Q908,2636 958.5,2613.5 Q1009,2591 1049.5,2561 Q1090,2531 1127,2508.5 Q1164,2486 1207,2486 Q1265,2487 1295.5,2529.5 Q1326,2572 1326,2641 L1559,2634 Q1557,2445 1463,2342.5 Q1369,2240 1234,2239 Q1159,2239 1108.5,2261.5 Q1058,2284 1020,2313.5 Q982,2343 946,2366 Q910,2389 865,2389 Q813,2389 781.5,2348 Q750,2307 750,2237"/> 
            <glyph glyph-name="Ò" unicode="&#xD2;" horiz-adv-x="2060" d=" M2060,1024 Q2060,689 1933.5,454 Q1807,219 1589.5,95.5 Q1372,-28 1101,-28 Q828,-28 611,96 Q394,220 268,455 Q142,690 142,1024 Q142,1359 268,1594 Q394,1829 611,1952.5 Q828,2076 1101,2076 Q1372,2076 1589.5,1952.5 Q1807,1829 1933.5,1594 Q2060,1359 2060,1024 M1621,1024 Q1621,1241 1556.5,1390 Q1492,1539 1375,1616 Q1258,1693 1101,1693 Q944,1693 827,1616 Q710,1539 645.5,1390 Q581,1241 581,1024 Q581,807 645.5,658 Q710,509 827,432 Q944,355 1101,355 Q1258,355 1375,432 Q1492,509 1556.5,658 Q1621,807 1621,1024 M953,2246 L648,2701 L1041,2701 L1254,2246"/> 
            <glyph glyph-name="Ó" unicode="&#xD3;" horiz-adv-x="2060" d=" M2060,1024 Q2060,689 1933.5,454 Q1807,219 1589.5,95.5 Q1372,-28 1101,-28 Q828,-28 611,96 Q394,220 268,455 Q142,690 142,1024 Q142,1359 268,1594 Q394,1829 611,1952.5 Q828,2076 1101,2076 Q1372,2076 1589.5,1952.5 Q1807,1829 1933.5,1594 Q2060,1359 2060,1024 M1621,1024 Q1621,1241 1556.5,1390 Q1492,1539 1375,1616 Q1258,1693 1101,1693 Q944,1693 827,1616 Q710,1539 645.5,1390 Q581,1241 581,1024 Q581,807 645.5,658 Q710,509 827,432 Q944,355 1101,355 Q1258,355 1375,432 Q1492,509 1556.5,658 Q1621,807 1621,1024 M948,2246 L1160,2701 L1554,2701 L1249,2246"/> 
            <glyph glyph-name="Ô" unicode="&#xD4;" horiz-adv-x="2060" d=" M2060,1024 Q2060,689 1933.5,454 Q1807,219 1589.5,95.5 Q1372,-28 1101,-28 Q828,-28 611,96 Q394,220 268,455 Q142,690 142,1024 Q142,1359 268,1594 Q394,1829 611,1952.5 Q828,2076 1101,2076 Q1372,2076 1589.5,1952.5 Q1807,1829 1933.5,1594 Q2060,1359 2060,1024 M1621,1024 Q1621,1241 1556.5,1390 Q1492,1539 1375,1616 Q1258,1693 1101,1693 Q944,1693 827,1616 Q710,1539 645.5,1390 Q581,1241 581,1024 Q581,807 645.5,658 Q710,509 827,432 Q944,355 1101,355 Q1258,355 1375,432 Q1492,509 1556.5,658 Q1621,807 1621,1024 M1302,2232 L1101,2476 L900,2232 L537,2232 L537,2246 L942,2686 L1259,2686 L1665,2246 L1665,2232"/> 
            <glyph glyph-name="Õ" unicode="&#xD5;" horiz-adv-x="2060" d=" M2060,1024 Q2060,689 1933.5,454 Q1807,219 1589.5,95.5 Q1372,-28 1101,-28 Q828,-28 611,96 Q394,220 268,455 Q142,690 142,1024 Q142,1359 268,1594 Q394,1829 611,1952.5 Q828,2076 1101,2076 Q1372,2076 1589.5,1952.5 Q1807,1829 1933.5,1594 Q2060,1359 2060,1024 M1621,1024 Q1621,1241 1556.5,1390 Q1492,1539 1375,1616 Q1258,1693 1101,1693 Q944,1693 827,1616 Q710,1539 645.5,1390 Q581,1241 581,1024 Q581,807 645.5,658 Q710,509 827,432 Q944,355 1101,355 Q1258,355 1375,432 Q1492,509 1556.5,658 Q1621,807 1621,1024 M814,2250 L578,2253 Q578,2444 672,2546 Q766,2648 903,2649 Q973,2649 1023,2626.5 Q1073,2604 1114,2574 Q1155,2544 1192,2521.5 Q1229,2499 1272,2499 Q1330,2500 1360.5,2542.5 Q1391,2585 1391,2654 L1624,2647 Q1622,2458 1528,2355.5 Q1434,2253 1298,2252 Q1224,2251 1173.5,2274 Q1123,2297 1085,2326.5 Q1047,2356 1011,2379 Q975,2402 930,2402 Q878,2402 846,2361 Q814,2320 814,2250"/> 
            <glyph glyph-name="Ö" unicode="&#xD6;" horiz-adv-x="2060" d=" M2060,1024 Q2060,689 1933.5,454 Q1807,219 1589.5,95.5 Q1372,-28 1101,-28 Q828,-28 611,96 Q394,220 268,455 Q142,690 142,1024 Q142,1359 268,1594 Q394,1829 611,1952.5 Q828,2076 1101,2076 Q1372,2076 1589.5,1952.5 Q1807,1829 1933.5,1594 Q2060,1359 2060,1024 M1621,1024 Q1621,1241 1556.5,1390 Q1492,1539 1375,1616 Q1258,1693 1101,1693 Q944,1693 827,1616 Q710,1539 645.5,1390 Q581,1241 581,1024 Q581,807 645.5,658 Q710,509 827,432 Q944,355 1101,355 Q1258,355 1375,432 Q1492,509 1556.5,658 Q1621,807 1621,1024 M796,2258 Q710,2258 648,2318.5 Q586,2379 586,2462 Q586,2547 648,2606 Q710,2665 796,2665 Q883,2665 943.5,2606 Q1004,2547 1004,2462 Q1004,2379 943.5,2318.5 Q883,2258 796,2258 M1408,2258 Q1322,2258 1260,2318.5 Q1198,2379 1198,2462 Q1198,2547 1260,2606 Q1322,2665 1408,2665 Q1495,2665 1555.5,2606 Q1616,2547 1616,2462 Q1616,2379 1555.5,2318.5 Q1495,2258 1408,2258"/> 
            <glyph glyph-name="×" unicode="&#xD7;" horiz-adv-x="1686" d=" M1423,90 L228,1283 L490,1548 L1686,353 M490,90 L228,353 L1423,1548 L1686,1283"/> 
            <glyph glyph-name="Ø" unicode="&#xD8;" horiz-adv-x="2060" d=" M463,-98 L268,34 L1735,2142 L1930,2010 M2060,1024 Q2060,689 1933.5,454 Q1807,219 1589.5,95.5 Q1372,-28 1101,-28 Q828,-28 611,96 Q394,220 268,455 Q142,690 142,1024 Q142,1359 268,1594 Q394,1829 611,1952.5 Q828,2076 1101,2076 Q1372,2076 1589.5,1952.5 Q1807,1829 1933.5,1594 Q2060,1359 2060,1024 M1621,1024 Q1621,1241 1556.5,1390 Q1492,1539 1375,1616 Q1258,1693 1101,1693 Q944,1693 827,1616 Q710,1539 645.5,1390 Q581,1241 581,1024 Q581,807 645.5,658 Q710,509 827,432 Q944,355 1101,355 Q1258,355 1375,432 Q1492,509 1556.5,658 Q1621,807 1621,1024"/> 
            <glyph glyph-name="Ù" unicode="&#xD9;" horiz-adv-x="1876" d=" M1443,2048 L1876,2048 L1876,718 Q1876,494 1769.5,326 Q1663,158 1472,64.5 Q1281,-29 1027,-29 Q772,-29 581,64.5 Q390,158 284,326 Q178,494 178,718 L178,2048 L611,2048 L611,755 Q611,638 662.5,547 Q714,456 808,404 Q902,352 1027,352 Q1153,352 1246.5,404 Q1340,456 1391.5,547 Q1443,638 1443,755 M880,2246 L575,2701 L968,2701 L1181,2246"/> 
            <glyph glyph-name="Ú" unicode="&#xDA;" horiz-adv-x="1876" d=" M1443,2048 L1876,2048 L1876,718 Q1876,494 1769.5,326 Q1663,158 1472,64.5 Q1281,-29 1027,-29 Q772,-29 581,64.5 Q390,158 284,326 Q178,494 178,718 L178,2048 L611,2048 L611,755 Q611,638 662.5,547 Q714,456 808,404 Q902,352 1027,352 Q1153,352 1246.5,404 Q1340,456 1391.5,547 Q1443,638 1443,755 M874,2246 L1086,2701 L1480,2701 L1175,2246"/> 
            <glyph glyph-name="Û" unicode="&#xDB;" horiz-adv-x="1876" d=" M1443,2048 L1876,2048 L1876,718 Q1876,494 1769.5,326 Q1663,158 1472,64.5 Q1281,-29 1027,-29 Q772,-29 581,64.5 Q390,158 284,326 Q178,494 178,718 L178,2048 L611,2048 L611,755 Q611,638 662.5,547 Q714,456 808,404 Q902,352 1027,352 Q1153,352 1246.5,404 Q1340,456 1391.5,547 Q1443,638 1443,755 M1228,2232 L1027,2476 L826,2232 L463,2232 L463,2246 L868,2686 L1185,2686 L1591,2246 L1591,2232"/> 
            <glyph glyph-name="Ü" unicode="&#xDC;" horiz-adv-x="1876" d=" M1443,2048 L1876,2048 L1876,718 Q1876,494 1769.5,326 Q1663,158 1472,64.5 Q1281,-29 1027,-29 Q772,-29 581,64.5 Q390,158 284,326 Q178,494 178,718 L178,2048 L611,2048 L611,755 Q611,638 662.5,547 Q714,456 808,404 Q902,352 1027,352 Q1153,352 1246.5,404 Q1340,456 1391.5,547 Q1443,638 1443,755 M722,2258 Q636,2258 574,2318.5 Q512,2379 512,2462 Q512,2547 574,2606 Q636,2665 722,2665 Q809,2665 869.5,2606 Q930,2547 930,2462 Q930,2379 869.5,2318.5 Q809,2258 722,2258 M1334,2258 Q1248,2258 1186,2318.5 Q1124,2379 1124,2462 Q1124,2547 1186,2606 Q1248,2665 1334,2665 Q1421,2665 1481.5,2606 Q1542,2547 1542,2462 Q1542,2379 1481.5,2318.5 Q1421,2258 1334,2258"/> 
            <glyph glyph-name="Ý" unicode="&#xDD;" horiz-adv-x="1982" d=" M58,2048 L543,2048 L1010,1166 L1030,1166 L1497,2048 L1982,2048 L1235,724 L1235,0 L805,0 L805,724 M867,2246 L1079,2701 L1473,2701 L1168,2246"/> 
            <glyph glyph-name="Þ" unicode="&#xDE;" horiz-adv-x="1672" d=" M174,2048 L607,2048 L607,0 L174,0 M374,1672 L907,1672 Q1154,1672 1325,1590.5 Q1496,1509 1584,1367.5 Q1672,1226 1672,1046 Q1672,866 1584,725 Q1496,584 1325,503 Q1154,422 907,422 L374,422 L374,754 L907,754 Q1030,754 1107.5,793 Q1185,832 1221.5,897.5 Q1258,963 1258,1042 Q1258,1122 1221.5,1189 Q1185,1256 1107.5,1296.5 Q1030,1337 907,1337 L374,1337"/> 
            <glyph glyph-name="ß" unicode="&#xDF;" horiz-adv-x="1754" d=" M178,0 L178,1507 Q178,1684 265.5,1811.5 Q353,1939 511.5,2007.5 Q670,2076 883,2076 Q1083,2076 1248.5,2013 Q1414,1950 1514,1827 Q1614,1704 1614,1522 Q1614,1363 1535,1250.5 Q1456,1138 1318,1098 L1318,1076 Q1518,1062 1636,921 Q1754,780 1753,564 Q1752,385 1668.5,259 Q1585,133 1437,66.5 Q1289,0 1094,0 L825,0 L825,347 L1026,347 Q1117,347 1183.5,379 Q1250,411 1286.5,469.5 Q1323,528 1322,605 Q1322,725 1233,797.5 Q1144,870 991,870 L833,870 L833,1202 L939,1202 Q1012,1202 1065.5,1237.5 Q1119,1273 1148.5,1331.5 Q1178,1390 1178,1459 Q1180,1572 1104.5,1645.5 Q1029,1719 897,1719 Q766,1719 685,1644.5 Q604,1570 604,1445 L604,0"/> 
            <glyph glyph-name="à" unicode="&#xE0;" horiz-adv-x="1473" d=" M608,-29 Q461,-29 346,22.5 Q231,74 164.5,175.5 Q98,277 98,429 Q98,557 145,644 Q192,731 273,784 Q354,837 457.5,864 Q561,891 675,902 Q809,916 891,928.5 Q973,941 1010,966 Q1047,991 1047,1040 L1047,1046 Q1047,1141 987.5,1193 Q928,1245 819,1245 Q704,1245 636,1194.5 Q568,1144 546,1068 L152,1100 Q182,1240 270,1342.5 Q358,1445 497.5,1500.5 Q637,1556 821,1556 Q949,1556 1066.5,1526 Q1184,1496 1275.5,1433 Q1367,1370 1420,1271.5 Q1473,1173 1473,1036 L1473,0 L1069,0 L1069,213 L1057,213 Q1020,141 958,86.5 Q896,32 809,1.5 Q722,-29 608,-29 M730,265 Q824,265 896,302.5 Q968,340 1009,404 Q1050,468 1050,549 L1050,712 Q1030,699 995.5,688.5 Q961,678 918,669.5 Q875,661 832,654.5 Q789,648 754,643 Q679,632 623,608 Q567,584 536,543.5 Q505,503 505,443 Q505,356 568.5,310.5 Q632,265 730,265 M945,1734 L640,2189 L1033,2189 L1246,1734"/> 
            <glyph glyph-name="á" unicode="&#xE1;" horiz-adv-x="1473" d=" M608,-29 Q461,-29 346,22.5 Q231,74 164.5,175.5 Q98,277 98,429 Q98,557 145,644 Q192,731 273,784 Q354,837 457.5,864 Q561,891 675,902 Q809,916 891,928.5 Q973,941 1010,966 Q1047,991 1047,1040 L1047,1046 Q1047,1141 987.5,1193 Q928,1245 819,1245 Q704,1245 636,1194.5 Q568,1144 546,1068 L152,1100 Q182,1240 270,1342.5 Q358,1445 497.5,1500.5 Q637,1556 821,1556 Q949,1556 1066.5,1526 Q1184,1496 1275.5,1433 Q1367,1370 1420,1271.5 Q1473,1173 1473,1036 L1473,0 L1069,0 L1069,213 L1057,213 Q1020,141 958,86.5 Q896,32 809,1.5 Q722,-29 608,-29 M730,265 Q824,265 896,302.5 Q968,340 1009,404 Q1050,468 1050,549 L1050,712 Q1030,699 995.5,688.5 Q961,678 918,669.5 Q875,661 832,654.5 Q789,648 754,643 Q679,632 623,608 Q567,584 536,543.5 Q505,503 505,443 Q505,356 568.5,310.5 Q632,265 730,265 M684,1734 L896,2189 L1290,2189 L985,1734"/> 
            <glyph glyph-name="â" unicode="&#xE2;" horiz-adv-x="1473" d=" M608,-29 Q461,-29 346,22.5 Q231,74 164.5,175.5 Q98,277 98,429 Q98,557 145,644 Q192,731 273,784 Q354,837 457.5,864 Q561,891 675,902 Q809,916 891,928.5 Q973,941 1010,966 Q1047,991 1047,1040 L1047,1046 Q1047,1141 987.5,1193 Q928,1245 819,1245 Q704,1245 636,1194.5 Q568,1144 546,1068 L152,1100 Q182,1240 270,1342.5 Q358,1445 497.5,1500.5 Q637,1556 821,1556 Q949,1556 1066.5,1526 Q1184,1496 1275.5,1433 Q1367,1370 1420,1271.5 Q1473,1173 1473,1036 L1473,0 L1069,0 L1069,213 L1057,213 Q1020,141 958,86.5 Q896,32 809,1.5 Q722,-29 608,-29 M730,265 Q824,265 896,302.5 Q968,340 1009,404 Q1050,468 1050,549 L1050,712 Q1030,699 995.5,688.5 Q961,678 918,669.5 Q875,661 832,654.5 Q789,648 754,643 Q679,632 623,608 Q567,584 536,543.5 Q505,503 505,443 Q505,356 568.5,310.5 Q632,265 730,265 M1038,1720 L837,1964 L636,1720 L273,1720 L273,1734 L678,2174 L995,2174 L1401,1734 L1401,1720"/> 
            <glyph glyph-name="ã" unicode="&#xE3;" horiz-adv-x="1473" d=" M608,-29 Q461,-29 346,22.5 Q231,74 164.5,175.5 Q98,277 98,429 Q98,557 145,644 Q192,731 273,784 Q354,837 457.5,864 Q561,891 675,902 Q809,916 891,928.5 Q973,941 1010,966 Q1047,991 1047,1040 L1047,1046 Q1047,1141 987.5,1193 Q928,1245 819,1245 Q704,1245 636,1194.5 Q568,1144 546,1068 L152,1100 Q182,1240 270,1342.5 Q358,1445 497.5,1500.5 Q637,1556 821,1556 Q949,1556 1066.5,1526 Q1184,1496 1275.5,1433 Q1367,1370 1420,1271.5 Q1473,1173 1473,1036 L1473,0 L1069,0 L1069,213 L1057,213 Q1020,141 958,86.5 Q896,32 809,1.5 Q722,-29 608,-29 M730,265 Q824,265 896,302.5 Q968,340 1009,404 Q1050,468 1050,549 L1050,712 Q1030,699 995.5,688.5 Q961,678 918,669.5 Q875,661 832,654.5 Q789,648 754,643 Q679,632 623,608 Q567,584 536,543.5 Q505,503 505,443 Q505,356 568.5,310.5 Q632,265 730,265 M551,1725 L314,1728 Q314,1919 408.5,2021 Q503,2123 639,2124 Q709,2124 759.5,2101.5 Q810,2079 850.5,2049 Q891,2019 928,1996.5 Q965,1974 1008,1974 Q1066,1975 1096.5,2017.5 Q1127,2060 1127,2129 L1360,2122 Q1358,1933 1264,1830.5 Q1170,1728 1035,1727 Q960,1727 909.5,1749.5 Q859,1772 821,1801.5 Q783,1831 747,1854 Q711,1877 666,1877 Q614,1877 582.5,1836 Q551,1795 551,1725"/> 
            <glyph glyph-name="ä" unicode="&#xE4;" horiz-adv-x="1473" d=" M608,-29 Q461,-29 346,22.5 Q231,74 164.5,175.5 Q98,277 98,429 Q98,557 145,644 Q192,731 273,784 Q354,837 457.5,864 Q561,891 675,902 Q809,916 891,928.5 Q973,941 1010,966 Q1047,991 1047,1040 L1047,1046 Q1047,1141 987.5,1193 Q928,1245 819,1245 Q704,1245 636,1194.5 Q568,1144 546,1068 L152,1100 Q182,1240 270,1342.5 Q358,1445 497.5,1500.5 Q637,1556 821,1556 Q949,1556 1066.5,1526 Q1184,1496 1275.5,1433 Q1367,1370 1420,1271.5 Q1473,1173 1473,1036 L1473,0 L1069,0 L1069,213 L1057,213 Q1020,141 958,86.5 Q896,32 809,1.5 Q722,-29 608,-29 M730,265 Q824,265 896,302.5 Q968,340 1009,404 Q1050,468 1050,549 L1050,712 Q1030,699 995.5,688.5 Q961,678 918,669.5 Q875,661 832,654.5 Q789,648 754,643 Q679,632 623,608 Q567,584 536,543.5 Q505,503 505,443 Q505,356 568.5,310.5 Q632,265 730,265 M532,1746 Q446,1746 384,1806.5 Q322,1867 322,1950 Q322,2035 384,2094 Q446,2153 532,2153 Q619,2153 679.5,2094 Q740,2035 740,1950 Q740,1867 679.5,1806.5 Q619,1746 532,1746 M1144,1746 Q1058,1746 996,1806.5 Q934,1867 934,1950 Q934,2035 996,2094 Q1058,2153 1144,2153 Q1231,2153 1291.5,2094 Q1352,2035 1352,1950 Q1352,1867 1291.5,1806.5 Q1231,1746 1144,1746"/> 
            <glyph glyph-name="å" unicode="&#xE5;" horiz-adv-x="1473" d=" M608,-29 Q461,-29 346,22.5 Q231,74 164.5,175.5 Q98,277 98,429 Q98,557 145,644 Q192,731 273,784 Q354,837 457.5,864 Q561,891 675,902 Q809,916 891,928.5 Q973,941 1010,966 Q1047,991 1047,1040 L1047,1046 Q1047,1141 987.5,1193 Q928,1245 819,1245 Q704,1245 636,1194.5 Q568,1144 546,1068 L152,1100 Q182,1240 270,1342.5 Q358,1445 497.5,1500.5 Q637,1556 821,1556 Q949,1556 1066.5,1526 Q1184,1496 1275.5,1433 Q1367,1370 1420,1271.5 Q1473,1173 1473,1036 L1473,0 L1069,0 L1069,213 L1057,213 Q1020,141 958,86.5 Q896,32 809,1.5 Q722,-29 608,-29 M730,265 Q824,265 896,302.5 Q968,340 1009,404 Q1050,468 1050,549 L1050,712 Q1030,699 995.5,688.5 Q961,678 918,669.5 Q875,661 832,654.5 Q789,648 754,643 Q679,632 623,608 Q567,584 536,543.5 Q505,503 505,443 Q505,356 568.5,310.5 Q632,265 730,265 M837,1701 Q742,1701 664.5,1745 Q587,1789 540.5,1863.5 Q494,1938 494,2029 Q494,2120 540.5,2195.5 Q587,2271 664.5,2316.5 Q742,2362 837,2362 Q932,2362 1009,2316.5 Q1086,2271 1132,2195.5 Q1178,2120 1178,2029 Q1178,1938 1132,1863.5 Q1086,1789 1009,1745 Q932,1701 837,1701 M837,1879 Q903,1880 948,1924.5 Q993,1969 993,2029 Q993,2089 948,2135.5 Q903,2182 837,2182 Q770,2181 725.5,2135 Q681,2089 681,2029 Q681,1969 725.5,1924 Q770,1879 837,1879"/> 
            <glyph glyph-name="æ" unicode="&#xE6;" horiz-adv-x="2465" d=" M1786,-30 Q1571,-30 1411,63.5 Q1251,157 1192,329 L1178,1232 Q1273,1399 1414,1477.5 Q1555,1556 1742,1556 Q1895,1556 2026.5,1507.5 Q2158,1459 2256,1362 Q2354,1265 2409.5,1118.5 Q2465,972 2465,776 L2465,659 L1199,659 L1199,923 L2064,923 Q2063,1015 2023,1086 Q1983,1157 1912.5,1197.5 Q1842,1238 1750,1238 Q1652,1238 1578,1193.5 Q1504,1149 1462,1074 Q1420,999 1418,909 L1418,658 Q1418,544 1461,461 Q1504,378 1582,333 Q1660,288 1766,288 Q1838,288 1896.5,308 Q1955,328 1997.5,368 Q2040,408 2062,466 L2455,440 Q2425,298 2333,192.5 Q2241,87 2100.5,28.5 Q1960,-30 1786,-30 M730,265 Q824,265 896,302.5 Q968,340 1009,404 Q1050,468 1050,549 L1050,712 Q1030,699 995.5,688.5 Q961,678 918,669.5 Q875,661 832,654.5 Q789,648 754,643 Q679,632 623,608 Q567,584 536,543.5 Q505,503 505,443 Q505,356 568.5,310.5 Q632,265 730,265 M632,-29 Q473,-29 352.5,22.5 Q232,74 165,176 Q98,278 98,429 Q98,557 145,643.5 Q192,730 273,783 Q354,836 458,864 Q562,892 675,902 Q809,916 891,929 Q973,942 1010,966.5 Q1047,991 1047,1040 L1047,1046 Q1047,1141 987.5,1193 Q928,1245 819,1245 Q705,1245 636,1195 Q567,1145 546,1068 L152,1100 Q182,1240 269.5,1342.5 Q357,1445 498,1500.5 Q639,1556 828,1556 Q899,1556 969,1543 Q1039,1530 1102.5,1501 Q1166,1472 1215.5,1422 Q1265,1372 1294,1299 L1242,251 L1215,251 Q1174,165 1086.5,102 Q999,39 881,5 Q763,-29 632,-29"/> 
            <glyph glyph-name="ç" unicode="&#xE7;" horiz-adv-x="1550" d=" M864,-30 Q628,-30 458.5,70.5 Q289,171 198.5,350 Q108,529 108,762 Q108,998 199.5,1176.5 Q291,1355 460,1455.5 Q629,1556 862,1556 Q1063,1556 1214,1483 Q1365,1410 1453,1278 Q1541,1146 1550,968 L1148,968 Q1131,1083 1058.5,1153.5 Q986,1224 869,1224 Q770,1224 696.5,1170.5 Q623,1117 582,1015 Q541,913 541,768 Q541,621 581.5,518 Q622,415 696,361 Q770,307 869,307 Q942,307 1000.5,337 Q1059,367 1097.5,424.5 Q1136,482 1148,563 L1550,563 Q1540,387 1454.5,253.5 Q1369,120 1219,45 Q1069,-30 864,-30 M764,8 L960,8 L944,-79 Q1047,-95 1112.5,-156 Q1178,-217 1179,-322 Q1180,-471 1041,-559.5 Q902,-648 651,-648 L647,-458 Q773,-458 844.5,-427.5 Q916,-397 919,-333 Q921,-272 872,-240 Q823,-208 719,-195"/> 
            <glyph glyph-name="è" unicode="&#xE8;" horiz-adv-x="1575" d=" M870,-30 Q633,-30 462.5,66.5 Q292,163 200,340.5 Q108,518 108,761 Q108,998 200,1177 Q292,1356 459.5,1456 Q627,1556 853,1556 Q1005,1556 1136.5,1507.5 Q1268,1459 1366.5,1362 Q1465,1265 1520,1118.5 Q1575,972 1575,776 L1575,659 L278,659 L278,923 L1174,923 Q1174,1015 1134,1086 Q1094,1157 1023.5,1197.5 Q953,1238 860,1238 Q763,1238 688.5,1193.5 Q614,1149 572,1074.5 Q530,1000 529,909 L529,658 Q529,544 571.5,461 Q614,378 692,333 Q770,288 877,288 Q948,288 1007,308 Q1066,328 1108,368 Q1150,408 1172,466 L1566,440 Q1536,298 1443.5,192.5 Q1351,87 1205.5,28.5 Q1060,-30 870,-30 M952,1734 L647,2189 L1040,2189 L1253,1734"/> 
            <glyph glyph-name="é" unicode="&#xE9;" horiz-adv-x="1575" d=" M870,-30 Q633,-30 462.5,66.5 Q292,163 200,340.5 Q108,518 108,761 Q108,998 200,1177 Q292,1356 459.5,1456 Q627,1556 853,1556 Q1005,1556 1136.5,1507.5 Q1268,1459 1366.5,1362 Q1465,1265 1520,1118.5 Q1575,972 1575,776 L1575,659 L278,659 L278,923 L1174,923 Q1174,1015 1134,1086 Q1094,1157 1023.5,1197.5 Q953,1238 860,1238 Q763,1238 688.5,1193.5 Q614,1149 572,1074.5 Q530,1000 529,909 L529,658 Q529,544 571.5,461 Q614,378 692,333 Q770,288 877,288 Q948,288 1007,308 Q1066,328 1108,368 Q1150,408 1172,466 L1566,440 Q1536,298 1443.5,192.5 Q1351,87 1205.5,28.5 Q1060,-30 870,-30 M690,1734 L902,2189 L1296,2189 L991,1734"/> 
            <glyph glyph-name="ê" unicode="&#xEA;" horiz-adv-x="1575" d=" M870,-30 Q633,-30 462.5,66.5 Q292,163 200,340.5 Q108,518 108,761 Q108,998 200,1177 Q292,1356 459.5,1456 Q627,1556 853,1556 Q1005,1556 1136.5,1507.5 Q1268,1459 1366.5,1362 Q1465,1265 1520,1118.5 Q1575,972 1575,776 L1575,659 L278,659 L278,923 L1174,923 Q1174,1015 1134,1086 Q1094,1157 1023.5,1197.5 Q953,1238 860,1238 Q763,1238 688.5,1193.5 Q614,1149 572,1074.5 Q530,1000 529,909 L529,658 Q529,544 571.5,461 Q614,378 692,333 Q770,288 877,288 Q948,288 1007,308 Q1066,328 1108,368 Q1150,408 1172,466 L1566,440 Q1536,298 1443.5,192.5 Q1351,87 1205.5,28.5 Q1060,-30 870,-30 M1044,1720 L843,1964 L642,1720 L279,1720 L279,1734 L684,2174 L1001,2174 L1407,1734 L1407,1720"/> 
            <glyph glyph-name="ë" unicode="&#xEB;" horiz-adv-x="1575" d=" M870,-30 Q633,-30 462.5,66.5 Q292,163 200,340.5 Q108,518 108,761 Q108,998 200,1177 Q292,1356 459.5,1456 Q627,1556 853,1556 Q1005,1556 1136.5,1507.5 Q1268,1459 1366.5,1362 Q1465,1265 1520,1118.5 Q1575,972 1575,776 L1575,659 L278,659 L278,923 L1174,923 Q1174,1015 1134,1086 Q1094,1157 1023.5,1197.5 Q953,1238 860,1238 Q763,1238 688.5,1193.5 Q614,1149 572,1074.5 Q530,1000 529,909 L529,658 Q529,544 571.5,461 Q614,378 692,333 Q770,288 877,288 Q948,288 1007,308 Q1066,328 1108,368 Q1150,408 1172,466 L1566,440 Q1536,298 1443.5,192.5 Q1351,87 1205.5,28.5 Q1060,-30 870,-30 M538,1746 Q452,1746 390,1806.5 Q328,1867 328,1950 Q328,2035 390,2094 Q452,2153 538,2153 Q625,2153 685.5,2094 Q746,2035 746,1950 Q746,1867 685.5,1806.5 Q625,1746 538,1746 M1150,1746 Q1064,1746 1002,1806.5 Q940,1867 940,1950 Q940,2035 1002,2094 Q1064,2153 1150,2153 Q1237,2153 1297.5,2094 Q1358,2035 1358,1950 Q1358,1867 1297.5,1806.5 Q1237,1746 1150,1746"/> 
            <glyph glyph-name="ì" unicode="&#xEC;" horiz-adv-x="596" d=" M170,0 L170,1536 L596,1536 L596,0 M65772,1734 L65467,2189 L65860,2189 L66073,1734"/> 
            <glyph glyph-name="í" unicode="&#xED;" horiz-adv-x="837" d=" M170,0 L170,1536 L596,1536 L596,0 M65767,1734 L65979,2189 L66373,2189 L66068,1734"/> 
            <glyph glyph-name="î" unicode="&#xEE;" horiz-adv-x="948" d=" M170,0 L170,1536 L596,1536 L596,0 M66121,1720 L65920,1964 L65719,1720 L65356,1720 L65356,1734 L65761,2174 L66078,2174 L66484,1734 L66484,1720"/> 
            <glyph glyph-name="ï" unicode="&#xEF;" horiz-adv-x="899" d=" M170,0 L170,1536 L596,1536 L596,0 M79,1746 Q-7,1746 -69,1806.5 Q-131,1867 -131,1950 Q-131,2035 -69,2094 Q-7,2153 79,2153 Q166,2153 226.5,2094 Q287,2035 287,1950 Q287,1867 226.5,1806.5 Q166,1746 79,1746 M691,1746 Q605,1746 543,1806.5 Q481,1867 481,1950 Q481,2035 543,2094 Q605,2153 691,2153 Q778,2153 838.5,2094 Q899,2035 899,1950 Q899,1867 838.5,1806.5 Q778,1746 691,1746"/> 
            <glyph glyph-name="ð" unicode="&#xF0;" horiz-adv-x="1580" d=" M1309,1929 L371,1451 L344,1645 L1282,2122 M838,-32 Q618,-32 453.5,61 Q289,154 198.5,319.5 Q108,485 108,704 Q108,908 186.5,1070.5 Q265,1233 406,1327.5 Q547,1422 732,1422 Q825,1422 900.5,1396.5 Q976,1371 1033.5,1329.5 Q1091,1288 1130,1240 L1152,1240 Q1087,1382 966.5,1513 Q846,1644 687.5,1752 Q529,1860 350,1934 L392,2160 Q621,2105 833.5,1986.5 Q1046,1868 1214.5,1692 Q1383,1516 1481.5,1289 Q1580,1062 1580,788 Q1580,538 1490,353.5 Q1400,169 1233.5,68.5 Q1067,-32 838,-32 M848,294 Q955,294 1030.5,348 Q1106,402 1146,498.5 Q1186,595 1186,723 Q1186,841 1150,939.5 Q1114,1038 1039,1096.5 Q964,1155 848,1155 Q737,1155 662.5,1100 Q588,1045 551,949 Q514,853 514,729 Q514,604 552,506 Q590,408 664,351 Q738,294 848,294"/> 
            <glyph glyph-name="ñ" unicode="&#xF1;" horiz-adv-x="1586" d=" M596,888 L596,0 L170,0 L170,1536 L576,1536 L576,1265 L594,1265 Q645,1399 765,1477.5 Q885,1556 1056,1556 Q1216,1556 1335,1486 Q1454,1416 1520,1286.5 Q1586,1157 1586,978 L1586,0 L1160,0 L1160,902 Q1161,1043 1088,1122.5 Q1015,1202 887,1202 Q801,1202 735.5,1165 Q670,1128 633.5,1057.5 Q597,987 596,888 M591,1725 L354,1728 Q354,1919 448.5,2021 Q543,2123 679,2124 Q749,2124 799.5,2101.5 Q850,2079 890.5,2049 Q931,2019 968,1996.5 Q1005,1974 1048,1974 Q1106,1975 1136.5,2017.5 Q1167,2060 1167,2129 L1400,2122 Q1398,1933 1304,1830.5 Q1210,1728 1075,1727 Q1000,1727 949.5,1749.5 Q899,1772 861,1801.5 Q823,1831 787,1854 Q751,1877 706,1877 Q654,1877 622.5,1836 Q591,1795 591,1725"/> 
            <glyph glyph-name="ò" unicode="&#xF2;" horiz-adv-x="1620" d=" M864,-30 Q631,-30 461.5,69.5 Q292,169 200,347.5 Q108,526 108,762 Q108,1000 200,1178.5 Q292,1357 461.5,1456.5 Q631,1556 864,1556 Q1097,1556 1266.5,1456.5 Q1436,1357 1528,1178.5 Q1620,1000 1620,762 Q1620,526 1528,347.5 Q1436,169 1266.5,69.5 Q1097,-30 864,-30 M866,300 Q972,300 1043,360.5 Q1114,421 1150.5,526 Q1187,631 1187,765 Q1187,899 1150.5,1004 Q1114,1109 1043,1170 Q972,1231 866,1231 Q759,1231 686.5,1170 Q614,1109 577.5,1004 Q541,899 541,765 Q541,631 577.5,526 Q614,421 686.5,360.5 Q759,300 866,300 M716,1734 L411,2189 L804,2189 L1017,1734"/> 
            <glyph glyph-name="ó" unicode="&#xF3;" horiz-adv-x="1620" d=" M864,-30 Q631,-30 461.5,69.5 Q292,169 200,347.5 Q108,526 108,762 Q108,1000 200,1178.5 Q292,1357 461.5,1456.5 Q631,1556 864,1556 Q1097,1556 1266.5,1456.5 Q1436,1357 1528,1178.5 Q1620,1000 1620,762 Q1620,526 1528,347.5 Q1436,169 1266.5,69.5 Q1097,-30 864,-30 M866,300 Q972,300 1043,360.5 Q1114,421 1150.5,526 Q1187,631 1187,765 Q1187,899 1150.5,1004 Q1114,1109 1043,1170 Q972,1231 866,1231 Q759,1231 686.5,1170 Q614,1109 577.5,1004 Q541,899 541,765 Q541,631 577.5,526 Q614,421 686.5,360.5 Q759,300 866,300 M711,1734 L923,2189 L1317,2189 L1012,1734"/> 
            <glyph glyph-name="ô" unicode="&#xF4;" horiz-adv-x="1620" d=" M864,-30 Q631,-30 461.5,69.5 Q292,169 200,347.5 Q108,526 108,762 Q108,1000 200,1178.5 Q292,1357 461.5,1456.5 Q631,1556 864,1556 Q1097,1556 1266.5,1456.5 Q1436,1357 1528,1178.5 Q1620,1000 1620,762 Q1620,526 1528,347.5 Q1436,169 1266.5,69.5 Q1097,-30 864,-30 M866,300 Q972,300 1043,360.5 Q1114,421 1150.5,526 Q1187,631 1187,765 Q1187,899 1150.5,1004 Q1114,1109 1043,1170 Q972,1231 866,1231 Q759,1231 686.5,1170 Q614,1109 577.5,1004 Q541,899 541,765 Q541,631 577.5,526 Q614,421 686.5,360.5 Q759,300 866,300 M1065,1720 L864,1964 L663,1720 L300,1720 L300,1734 L705,2174 L1022,2174 L1428,1734 L1428,1720"/> 
            <glyph glyph-name="õ" unicode="&#xF5;" horiz-adv-x="1620" d=" M864,-30 Q631,-30 461.5,69.5 Q292,169 200,347.5 Q108,526 108,762 Q108,1000 200,1178.5 Q292,1357 461.5,1456.5 Q631,1556 864,1556 Q1097,1556 1266.5,1456.5 Q1436,1357 1528,1178.5 Q1620,1000 1620,762 Q1620,526 1528,347.5 Q1436,169 1266.5,69.5 Q1097,-30 864,-30 M866,300 Q972,300 1043,360.5 Q1114,421 1150.5,526 Q1187,631 1187,765 Q1187,899 1150.5,1004 Q1114,1109 1043,1170 Q972,1231 866,1231 Q759,1231 686.5,1170 Q614,1109 577.5,1004 Q541,899 541,765 Q541,631 577.5,526 Q614,421 686.5,360.5 Q759,300 866,300 M578,1725 L341,1728 Q341,1919 435.5,2021 Q530,2123 666,2124 Q736,2124 786.5,2101.5 Q837,2079 877.5,2049 Q918,2019 955,1996.5 Q992,1974 1035,1974 Q1093,1975 1123.5,2017.5 Q1154,2060 1154,2129 L1387,2122 Q1385,1933 1291,1830.5 Q1197,1728 1062,1727 Q987,1727 936.5,1749.5 Q886,1772 848,1801.5 Q810,1831 774,1854 Q738,1877 693,1877 Q641,1877 609.5,1836 Q578,1795 578,1725"/> 
            <glyph glyph-name="ö" unicode="&#xF6;" horiz-adv-x="1620" d=" M864,-30 Q631,-30 461.5,69.5 Q292,169 200,347.5 Q108,526 108,762 Q108,1000 200,1178.5 Q292,1357 461.5,1456.5 Q631,1556 864,1556 Q1097,1556 1266.5,1456.5 Q1436,1357 1528,1178.5 Q1620,1000 1620,762 Q1620,526 1528,347.5 Q1436,169 1266.5,69.5 Q1097,-30 864,-30 M866,300 Q972,300 1043,360.5 Q1114,421 1150.5,526 Q1187,631 1187,765 Q1187,899 1150.5,1004 Q1114,1109 1043,1170 Q972,1231 866,1231 Q759,1231 686.5,1170 Q614,1109 577.5,1004 Q541,899 541,765 Q541,631 577.5,526 Q614,421 686.5,360.5 Q759,300 866,300 M559,1746 Q473,1746 411,1806.5 Q349,1867 349,1950 Q349,2035 411,2094 Q473,2153 559,2153 Q646,2153 706.5,2094 Q767,2035 767,1950 Q767,1867 706.5,1806.5 Q646,1746 559,1746 M1171,1746 Q1085,1746 1023,1806.5 Q961,1867 961,1950 Q961,2035 1023,2094 Q1085,2153 1171,2153 Q1258,2153 1318.5,2094 Q1379,2035 1379,1950 Q1379,1867 1318.5,1806.5 Q1258,1746 1171,1746"/> 
            <glyph glyph-name="÷" unicode="&#xF7;" horiz-adv-x="1657" d=" M1657,989 L1657,650 L257,650 L257,989 M957,22 Q856,22 785,93 Q714,164 714,265 Q714,363 785,433 Q856,503 957,503 Q1055,503 1125,433 Q1195,363 1195,265 Q1195,164 1125,93 Q1055,22 957,22 M957,1135 Q890,1135 835,1168 Q780,1201 747,1256 Q714,1311 714,1378 Q714,1477 785.5,1546.5 Q857,1616 957,1616 Q1056,1616 1125.5,1546.5 Q1195,1477 1195,1378 Q1195,1277 1125.5,1206 Q1056,1135 957,1135"/> 
            <glyph glyph-name="ø" unicode="&#xF8;" horiz-adv-x="1620" d=" M409,-98 L214,34 L1317,1622 L1514,1490 M864,-32 Q631,-32 461.5,67.5 Q292,167 200,345 Q108,523 108,760 Q108,998 200,1176.5 Q292,1355 461.5,1454.5 Q631,1554 864,1554 Q1097,1554 1266.5,1454.5 Q1436,1355 1528,1176.5 Q1620,998 1620,760 Q1620,523 1528,345 Q1436,167 1266.5,67.5 Q1097,-32 864,-32 M866,298 Q972,298 1043,358.5 Q1114,419 1150.5,524 Q1187,629 1187,762 Q1187,897 1150.5,1002 Q1114,1107 1043,1168 Q972,1229 866,1229 Q759,1229 686.5,1168 Q614,1107 577.5,1002 Q541,897 541,762 Q541,629 577.5,524 Q614,419 686.5,358.5 Q759,298 866,298"/> 
            <glyph glyph-name="ù" unicode="&#xF9;" horiz-adv-x="1581" d=" M1155,654 L1155,1536 L1581,1536 L1581,0 L1172,0 L1172,279 L1156,279 Q1104,144 983.5,62 Q863,-20 690,-20 Q536,-20 419,50 Q302,120 236.5,249 Q171,378 170,558 L170,1536 L596,1536 L596,634 Q597,498 669,419 Q741,340 862,340 Q939,340 1006,375.5 Q1073,411 1114.5,481 Q1156,551 1155,654 M730,1734 L425,2189 L818,2189 L1031,1734"/> 
            <glyph glyph-name="ú" unicode="&#xFA;" horiz-adv-x="1581" d=" M1155,654 L1155,1536 L1581,1536 L1581,0 L1172,0 L1172,279 L1156,279 Q1104,144 983.5,62 Q863,-20 690,-20 Q536,-20 419,50 Q302,120 236.5,249 Q171,378 170,558 L170,1536 L596,1536 L596,634 Q597,498 669,419 Q741,340 862,340 Q939,340 1006,375.5 Q1073,411 1114.5,481 Q1156,551 1155,654 M724,1734 L936,2189 L1330,2189 L1025,1734"/> 
            <glyph glyph-name="û" unicode="&#xFB;" horiz-adv-x="1581" d=" M1155,654 L1155,1536 L1581,1536 L1581,0 L1172,0 L1172,279 L1156,279 Q1104,144 983.5,62 Q863,-20 690,-20 Q536,-20 419,50 Q302,120 236.5,249 Q171,378 170,558 L170,1536 L596,1536 L596,634 Q597,498 669,419 Q741,340 862,340 Q939,340 1006,375.5 Q1073,411 1114.5,481 Q1156,551 1155,654 M1079,1720 L878,1964 L677,1720 L314,1720 L314,1734 L719,2174 L1036,2174 L1442,1734 L1442,1720"/> 
            <glyph glyph-name="ü" unicode="&#xFC;" horiz-adv-x="1581" d=" M1155,654 L1155,1536 L1581,1536 L1581,0 L1172,0 L1172,279 L1156,279 Q1104,144 983.5,62 Q863,-20 690,-20 Q536,-20 419,50 Q302,120 236.5,249 Q171,378 170,558 L170,1536 L596,1536 L596,634 Q597,498 669,419 Q741,340 862,340 Q939,340 1006,375.5 Q1073,411 1114.5,481 Q1156,551 1155,654 M573,1746 Q487,1746 425,1806.5 Q363,1867 363,1950 Q363,2035 425,2094 Q487,2153 573,2153 Q660,2153 720.5,2094 Q781,2035 781,1950 Q781,1867 720.5,1806.5 Q660,1746 573,1746 M1185,1746 Q1099,1746 1037,1806.5 Q975,1867 975,1950 Q975,2035 1037,2094 Q1099,2153 1185,2153 Q1272,2153 1332.5,2094 Q1393,2035 1393,1950 Q1393,1867 1332.5,1806.5 Q1272,1746 1185,1746"/> 
            <glyph glyph-name="ý" unicode="&#xFD;" horiz-adv-x="1602" d=" M433,-576 Q352,-576 281.5,-563.5 Q211,-551 165,-532 L261,-214 Q336,-237 396.5,-239 Q457,-241 501.5,-211 Q546,-181 574,-109 L599,-44 L48,1536 L496,1536 L814,408 L830,408 L1151,1536 L1602,1536 L1005,-166 Q962,-290 888.5,-382.5 Q815,-475 703,-525.5 Q591,-576 433,-576 M669,1734 L881,2189 L1275,2189 L970,1734"/> 
            <glyph glyph-name="þ" unicode="&#xFE;" horiz-adv-x="1613" d=" M170,2048 L596,2048 L596,1256 L447,750 L596,302 L596,-576 L170,-576 M426,1359 L614,1359 Q640,1412 689.5,1457 Q739,1502 814,1529 Q889,1556 990,1556 Q1157,1556 1299,1468.5 Q1441,1381 1527,1205.5 Q1613,1030 1613,766 Q1613,508 1529.5,332 Q1446,156 1304.5,65.5 Q1163,-25 990,-25 Q893,-25 818,0.5 Q743,26 692,70 Q641,114 614,169 L426,169 M1209,768 Q1209,906 1171.5,1007 Q1134,1108 1059.5,1162.5 Q985,1217 871,1217 Q755,1217 685.5,1157.5 Q616,1098 585,996 Q554,894 554,768 Q554,643 584.5,540 Q615,437 684.5,375.5 Q754,314 871,314 Q984,314 1059,369.5 Q1134,425 1171.5,527 Q1209,629 1209,768"/> 
            <glyph glyph-name="ÿ" unicode="&#xFF;" horiz-adv-x="1602" d=" M433,-576 Q352,-576 281.5,-563.5 Q211,-551 165,-532 L261,-214 Q336,-237 396.5,-239 Q457,-241 501.5,-211 Q546,-181 574,-109 L599,-44 L48,1536 L496,1536 L814,408 L830,408 L1151,1536 L1602,1536 L1005,-166 Q962,-290 888.5,-382.5 Q815,-475 703,-525.5 Q591,-576 433,-576 M518,1746 Q431,1746 369,1806.5 Q307,1867 307,1950 Q307,2035 369,2094 Q431,2153 518,2153 Q605,2153 665.5,2094 Q726,2035 726,1950 Q726,1867 665.5,1806.5 Q605,1746 518,1746 M1130,1746 Q1043,1746 981,1806.5 Q919,1867 919,1950 Q919,2035 981,2094 Q1043,2153 1130,2153 Q1217,2153 1277.5,2094 Q1338,2035 1338,1950 Q1338,1867 1277.5,1806.5 Q1217,1746 1130,1746"/> 
            <glyph glyph-name="Ā" unicode="&#x100;" horiz-adv-x="2038" d=" M531,0 L67,0 L774,2048 L1332,2048 L2038,0 L1574,0 L1061,1580 L1045,1580 M502,805 L1598,805 L1598,467 L502,467 M1540,2560 L1540,2329 L566,2329 L566,2560"/> 
            <glyph glyph-name="ā" unicode="&#x101;" horiz-adv-x="1473" d=" M608,-29 Q461,-29 346,22.5 Q231,74 164.5,175.5 Q98,277 98,429 Q98,557 145,644 Q192,731 273,784 Q354,837 457.5,864 Q561,891 675,902 Q809,916 891,928.5 Q973,941 1010,966 Q1047,991 1047,1040 L1047,1046 Q1047,1141 987.5,1193 Q928,1245 819,1245 Q704,1245 636,1194.5 Q568,1144 546,1068 L152,1100 Q182,1240 270,1342.5 Q358,1445 497.5,1500.5 Q637,1556 821,1556 Q949,1556 1066.5,1526 Q1184,1496 1275.5,1433 Q1367,1370 1420,1271.5 Q1473,1173 1473,1036 L1473,0 L1069,0 L1069,213 L1057,213 Q1020,141 958,86.5 Q896,32 809,1.5 Q722,-29 608,-29 M730,265 Q824,265 896,302.5 Q968,340 1009,404 Q1050,468 1050,549 L1050,712 Q1030,699 995.5,688.5 Q961,678 918,669.5 Q875,661 832,654.5 Q789,648 754,643 Q679,632 623,608 Q567,584 536,543.5 Q505,503 505,443 Q505,356 568.5,310.5 Q632,265 730,265 M1324,2048 L1324,1817 L350,1817 L350,2048"/> 
            <glyph glyph-name="Ă" unicode="&#x102;" horiz-adv-x="2038" d=" M531,0 L67,0 L774,2048 L1332,2048 L2038,0 L1574,0 L1061,1580 L1045,1580 M502,805 L1598,805 L1598,467 L502,467 M1251,2584 L1548,2584 Q1547,2402 1413.5,2291 Q1280,2180 1053,2180 Q825,2180 692,2291 Q559,2402 559,2584 L854,2584 Q853,2515 898.5,2460 Q944,2405 1053,2405 Q1159,2405 1205,2459 Q1251,2513 1251,2584"/> 
            <glyph glyph-name="ă" unicode="&#x103;" horiz-adv-x="1473" d=" M608,-29 Q461,-29 346,22.5 Q231,74 164.5,175.5 Q98,277 98,429 Q98,557 145,644 Q192,731 273,784 Q354,837 457.5,864 Q561,891 675,902 Q809,916 891,928.5 Q973,941 1010,966 Q1047,991 1047,1040 L1047,1046 Q1047,1141 987.5,1193 Q928,1245 819,1245 Q704,1245 636,1194.5 Q568,1144 546,1068 L152,1100 Q182,1240 270,1342.5 Q358,1445 497.5,1500.5 Q637,1556 821,1556 Q949,1556 1066.5,1526 Q1184,1496 1275.5,1433 Q1367,1370 1420,1271.5 Q1473,1173 1473,1036 L1473,0 L1069,0 L1069,213 L1057,213 Q1020,141 958,86.5 Q896,32 809,1.5 Q722,-29 608,-29 M730,265 Q824,265 896,302.5 Q968,340 1009,404 Q1050,468 1050,549 L1050,712 Q1030,699 995.5,688.5 Q961,678 918,669.5 Q875,661 832,654.5 Q789,648 754,643 Q679,632 623,608 Q567,584 536,543.5 Q505,503 505,443 Q505,356 568.5,310.5 Q632,265 730,265 M1035,2072 L1332,2072 Q1331,1890 1197.5,1779 Q1064,1668 837,1668 Q609,1668 476,1779 Q343,1890 343,2072 L638,2072 Q637,2003 682.5,1948 Q728,1893 837,1893 Q943,1893 989,1947 Q1035,2001 1035,2072"/> 
            <glyph glyph-name="Ą" unicode="&#x104;" horiz-adv-x="2072" d=" M531,0 L67,0 L774,2048 L1332,2048 L2038,0 L1574,0 L1061,1580 L1045,1580 M502,805 L1598,805 L1598,467 L502,467 M1844,-574 Q1711,-574 1621.5,-505.5 Q1532,-437 1509,-310 Q1494,-228 1511.5,-145 Q1529,-62 1581.5,7 Q1634,76 1722,115 L2039,0 Q1945,-44 1885,-95 Q1825,-146 1826,-218 Q1825,-266 1850,-292 Q1875,-318 1923,-318 Q1956,-318 1982,-309.5 Q2008,-301 2028,-294 L2072,-514 Q2035,-535 1977.5,-554.5 Q1920,-574 1844,-574"/> 
            <glyph glyph-name="ą" unicode="&#x105;" horiz-adv-x="1506" d=" M608,-29 Q461,-29 346,22.5 Q231,74 164.5,175.5 Q98,277 98,429 Q98,557 145,644 Q192,731 273,784 Q354,837 457.5,864 Q561,891 675,902 Q809,916 891,928.5 Q973,941 1010,966 Q1047,991 1047,1040 L1047,1046 Q1047,1141 987.5,1193 Q928,1245 819,1245 Q704,1245 636,1194.5 Q568,1144 546,1068 L152,1100 Q182,1240 270,1342.5 Q358,1445 497.5,1500.5 Q637,1556 821,1556 Q949,1556 1066.5,1526 Q1184,1496 1275.5,1433 Q1367,1370 1420,1271.5 Q1473,1173 1473,1036 L1473,0 L1069,0 L1069,213 L1057,213 Q1020,141 958,86.5 Q896,32 809,1.5 Q722,-29 608,-29 M730,265 Q824,265 896,302.5 Q968,340 1009,404 Q1050,468 1050,549 L1050,712 Q1030,699 995.5,688.5 Q961,678 918,669.5 Q875,661 832,654.5 Q789,648 754,643 Q679,632 623,608 Q567,584 536,543.5 Q505,503 505,443 Q505,356 568.5,310.5 Q632,265 730,265 M1278,-574 Q1145,-574 1055.5,-505.5 Q966,-437 943,-310 Q928,-228 945.5,-145 Q963,-62 1015.5,7 Q1068,76 1156,115 L1473,0 Q1379,-44 1319,-95 Q1259,-146 1260,-218 Q1259,-266 1284,-292 Q1309,-318 1357,-318 Q1390,-318 1416,-309.5 Q1442,-301 1462,-294 L1506,-514 Q1469,-535 1411.5,-554.5 Q1354,-574 1278,-574"/> 
            <glyph glyph-name="Ć" unicode="&#x106;" horiz-adv-x="1985" d=" M1985,1331 L1547,1331 Q1535,1416 1498,1482.5 Q1461,1549 1403,1596 Q1345,1643 1269.5,1668 Q1194,1693 1106,1693 Q947,1693 829,1614.5 Q711,1536 646,1386.5 Q581,1237 581,1024 Q581,805 646.5,656 Q712,507 830,431 Q948,355 1103,355 Q1190,355 1264.5,378 Q1339,401 1397,445.5 Q1455,490 1493.5,554 Q1532,618 1547,700 L1985,698 Q1968,557 1900.5,426.5 Q1833,296 1719.5,193.5 Q1606,91 1449.5,31.5 Q1293,-28 1096,-28 Q822,-28 606.5,96 Q391,220 266.5,455 Q142,690 142,1024 Q142,1359 268,1594 Q394,1829 610,1952.5 Q826,2076 1096,2076 Q1274,2076 1426.5,2026 Q1579,1976 1697,1880.5 Q1815,1785 1889.5,1647 Q1964,1509 1985,1331 M943,2246 L1155,2701 L1549,2701 L1244,2246"/> 
            <glyph glyph-name="ć" unicode="&#x107;" horiz-adv-x="1550" d=" M864,-30 Q628,-30 458.5,70.5 Q289,171 198.5,350 Q108,529 108,762 Q108,998 199.5,1176.5 Q291,1355 460,1455.5 Q629,1556 862,1556 Q1063,1556 1214,1483 Q1365,1410 1453,1278 Q1541,1146 1550,968 L1148,968 Q1131,1083 1058.5,1153.5 Q986,1224 869,1224 Q770,1224 696.5,1170.5 Q623,1117 582,1015 Q541,913 541,768 Q541,621 581.5,518 Q622,415 696,361 Q770,307 869,307 Q942,307 1000.5,337 Q1059,367 1097.5,424.5 Q1136,482 1148,563 L1550,563 Q1540,387 1454.5,253.5 Q1369,120 1219,45 Q1069,-30 864,-30 M710,1734 L922,2189 L1316,2189 L1011,1734"/> 
            <glyph glyph-name="Ĉ" unicode="&#x108;" horiz-adv-x="1985" d=" M1985,1331 L1547,1331 Q1535,1416 1498,1482.5 Q1461,1549 1403,1596 Q1345,1643 1269.5,1668 Q1194,1693 1106,1693 Q947,1693 829,1614.5 Q711,1536 646,1386.5 Q581,1237 581,1024 Q581,805 646.5,656 Q712,507 830,431 Q948,355 1103,355 Q1190,355 1264.5,378 Q1339,401 1397,445.5 Q1455,490 1493.5,554 Q1532,618 1547,700 L1985,698 Q1968,557 1900.5,426.5 Q1833,296 1719.5,193.5 Q1606,91 1449.5,31.5 Q1293,-28 1096,-28 Q822,-28 606.5,96 Q391,220 266.5,455 Q142,690 142,1024 Q142,1359 268,1594 Q394,1829 610,1952.5 Q826,2076 1096,2076 Q1274,2076 1426.5,2026 Q1579,1976 1697,1880.5 Q1815,1785 1889.5,1647 Q1964,1509 1985,1331 M1297,2232 L1096,2476 L895,2232 L532,2232 L532,2246 L937,2686 L1254,2686 L1660,2246 L1660,2232"/> 
            <glyph glyph-name="ĉ" unicode="&#x109;" horiz-adv-x="1550" d=" M864,-30 Q628,-30 458.5,70.5 Q289,171 198.5,350 Q108,529 108,762 Q108,998 199.5,1176.5 Q291,1355 460,1455.5 Q629,1556 862,1556 Q1063,1556 1214,1483 Q1365,1410 1453,1278 Q1541,1146 1550,968 L1148,968 Q1131,1083 1058.5,1153.5 Q986,1224 869,1224 Q770,1224 696.5,1170.5 Q623,1117 582,1015 Q541,913 541,768 Q541,621 581.5,518 Q622,415 696,361 Q770,307 869,307 Q942,307 1000.5,337 Q1059,367 1097.5,424.5 Q1136,482 1148,563 L1550,563 Q1540,387 1454.5,253.5 Q1369,120 1219,45 Q1069,-30 864,-30 M1064,1720 L863,1964 L662,1720 L299,1720 L299,1734 L704,2174 L1021,2174 L1427,1734 L1427,1720"/> 
            <glyph glyph-name="Ċ" unicode="&#x10A;" horiz-adv-x="1985" d=" M1985,1331 L1547,1331 Q1535,1416 1498,1482.5 Q1461,1549 1403,1596 Q1345,1643 1269.5,1668 Q1194,1693 1106,1693 Q947,1693 829,1614.5 Q711,1536 646,1386.5 Q581,1237 581,1024 Q581,805 646.5,656 Q712,507 830,431 Q948,355 1103,355 Q1190,355 1264.5,378 Q1339,401 1397,445.5 Q1455,490 1493.5,554 Q1532,618 1547,700 L1985,698 Q1968,557 1900.5,426.5 Q1833,296 1719.5,193.5 Q1606,91 1449.5,31.5 Q1293,-28 1096,-28 Q822,-28 606.5,96 Q391,220 266.5,455 Q142,690 142,1024 Q142,1359 268,1594 Q394,1829 610,1952.5 Q826,2076 1096,2076 Q1274,2076 1426.5,2026 Q1579,1976 1697,1880.5 Q1815,1785 1889.5,1647 Q1964,1509 1985,1331 M1097,2246 Q1002,2246 934,2309.5 Q866,2373 866,2462 Q866,2550 934,2613.5 Q1002,2677 1096,2677 Q1192,2677 1259.5,2613.5 Q1327,2550 1327,2462 Q1327,2373 1259.5,2309.5 Q1192,2246 1097,2246"/> 
            <glyph glyph-name="ċ" unicode="&#x10B;" horiz-adv-x="1550" d=" M864,-30 Q628,-30 458.5,70.5 Q289,171 198.5,350 Q108,529 108,762 Q108,998 199.5,1176.5 Q291,1355 460,1455.5 Q629,1556 862,1556 Q1063,1556 1214,1483 Q1365,1410 1453,1278 Q1541,1146 1550,968 L1148,968 Q1131,1083 1058.5,1153.5 Q986,1224 869,1224 Q770,1224 696.5,1170.5 Q623,1117 582,1015 Q541,913 541,768 Q541,621 581.5,518 Q622,415 696,361 Q770,307 869,307 Q942,307 1000.5,337 Q1059,367 1097.5,424.5 Q1136,482 1148,563 L1550,563 Q1540,387 1454.5,253.5 Q1369,120 1219,45 Q1069,-30 864,-30 M864,1734 Q769,1734 701,1797.5 Q633,1861 633,1950 Q633,2038 701,2101.5 Q769,2165 863,2165 Q959,2165 1026.5,2101.5 Q1094,2038 1094,1950 Q1094,1861 1026.5,1797.5 Q959,1734 864,1734"/> 
            </font>
</defs>
</svg>
